<svg width="103" height="10" viewBox="0 0 133 14" fill="none" xmlns="http://www.w3.org/2000/svg">
<path d="M3.23 10.858V2.542H5.552V10.858H3.23ZM0.116 7.798V5.602H8.684V7.798H0.116ZM10.0706 13V11.11L14.9306 6.52C15.3146 6.172 15.5966 5.86 15.7766 5.584C15.9566 5.308 16.0766 5.056 16.1366 4.828C16.2086 4.6 16.2446 4.39 16.2446 4.198C16.2446 3.694 16.0706 3.31 15.7226 3.046C15.3866 2.77 14.8886 2.632 14.2286 2.632C13.7006 2.632 13.2086 2.734 12.7526 2.938C12.3086 3.142 11.9306 3.46 11.6186 3.892L9.49456 2.524C9.97456 1.804 10.6466 1.234 11.5106 0.813999C12.3746 0.394 13.3706 0.184 14.4986 0.184C15.4346 0.184 16.2506 0.34 16.9466 0.651999C17.6546 0.952 18.2006 1.378 18.5846 1.93C18.9806 2.482 19.1786 3.142 19.1786 3.91C19.1786 4.318 19.1246 4.726 19.0166 5.134C18.9206 5.53 18.7166 5.95 18.4046 6.394C18.1046 6.838 17.6606 7.336 17.0726 7.888L13.0406 11.686L12.4826 10.624H19.5926V13H10.0706ZM26.1958 13.216C25.1638 13.216 24.2398 12.964 23.4238 12.46C22.6078 11.944 21.9658 11.2 21.4978 10.228C21.0298 9.256 20.7958 8.08 20.7958 6.7C20.7958 5.32 21.0298 4.144 21.4978 3.172C21.9658 2.2 22.6078 1.462 23.4238 0.957999C24.2398 0.442 25.1638 0.184 26.1958 0.184C27.2398 0.184 28.1638 0.442 28.9678 0.957999C29.7838 1.462 30.4258 2.2 30.8938 3.172C31.3618 4.144 31.5958 5.32 31.5958 6.7C31.5958 8.08 31.3618 9.256 30.8938 10.228C30.4258 11.2 29.7838 11.944 28.9678 12.46C28.1638 12.964 27.2398 13.216 26.1958 13.216ZM26.1958 10.75C26.6878 10.75 27.1138 10.612 27.4738 10.336C27.8458 10.06 28.1338 9.622 28.3378 9.022C28.5538 8.422 28.6618 7.648 28.6618 6.7C28.6618 5.752 28.5538 4.978 28.3378 4.378C28.1338 3.778 27.8458 3.34 27.4738 3.064C27.1138 2.788 26.6878 2.65 26.1958 2.65C25.7158 2.65 25.2898 2.788 24.9178 3.064C24.5578 3.34 24.2698 3.778 24.0538 4.378C23.8498 4.978 23.7478 5.752 23.7478 6.7C23.7478 7.648 23.8498 8.422 24.0538 9.022C24.2698 9.622 24.5578 10.06 24.9178 10.336C25.2898 10.612 25.7158 10.75 26.1958 10.75ZM34.8862 13V1.48L36.1462 2.74H32.3662V0.399999H37.8022V13H34.8862ZM41.9351 13V1.48L43.1951 2.74H39.4151V0.399999H44.8511V13H41.9351ZM52.4399 13.216C51.4079 13.216 50.4839 12.964 49.6679 12.46C48.8519 11.944 48.2099 11.2 47.7419 10.228C47.2739 9.256 47.0399 8.08 47.0399 6.7C47.0399 5.32 47.2739 4.144 47.7419 3.172C48.2099 2.2 48.8519 1.462 49.6679 0.957999C50.4839 0.442 51.4079 0.184 52.4399 0.184C53.4839 0.184 54.4079 0.442 55.2119 0.957999C56.0279 1.462 56.6699 2.2 57.1379 3.172C57.6059 4.144 57.8399 5.32 57.8399 6.7C57.8399 8.08 57.6059 9.256 57.1379 10.228C56.6699 11.2 56.0279 11.944 55.2119 12.46C54.4079 12.964 53.4839 13.216 52.4399 13.216ZM52.4399 10.75C52.9319 10.75 53.3579 10.612 53.7179 10.336C54.0899 10.06 54.3779 9.622 54.5819 9.022C54.7979 8.422 54.9059 7.648 54.9059 6.7C54.9059 5.752 54.7979 4.978 54.5819 4.378C54.3779 3.778 54.0899 3.34 53.7179 3.064C53.3579 2.788 52.9319 2.65 52.4399 2.65C51.9599 2.65 51.5339 2.788 51.1619 3.064C50.8019 3.34 50.5139 3.778 50.2979 4.378C50.0939 4.978 49.9919 5.752 49.9919 6.7C49.9919 7.648 50.0939 8.422 50.2979 9.022C50.5139 9.622 50.8019 10.06 51.1619 10.336C51.5339 10.612 51.9599 10.75 52.4399 10.75ZM61.1304 13V1.48L62.3904 2.74H58.6104V0.399999H64.0464V13H61.1304ZM71.4552 13.216C70.3992 13.216 69.4752 13.06 68.6832 12.748C67.8912 12.424 67.2732 11.974 66.8292 11.398C66.3852 10.81 66.1632 10.126 66.1632 9.346C66.1632 8.566 66.3792 7.906 66.8112 7.366C67.2552 6.814 67.8732 6.4 68.6652 6.124C69.4572 5.836 70.3872 5.692 71.4552 5.692C72.5352 5.692 73.4712 5.836 74.2632 6.124C75.0672 6.4 75.6852 6.814 76.1172 7.366C76.5612 7.906 76.7832 8.566 76.7832 9.346C76.7832 10.126 76.5612 10.81 76.1172 11.398C75.6732 11.974 75.0492 12.424 74.2452 12.748C73.4532 13.06 72.5232 13.216 71.4552 13.216ZM71.4552 11.074C72.1872 11.074 72.7632 10.912 73.1832 10.588C73.6152 10.264 73.8312 9.82 73.8312 9.256C73.8312 8.692 73.6152 8.254 73.1832 7.942C72.7632 7.618 72.1872 7.456 71.4552 7.456C70.7352 7.456 70.1652 7.618 69.7452 7.942C69.3252 8.254 69.1152 8.692 69.1152 9.256C69.1152 9.82 69.3252 10.264 69.7452 10.588C70.1652 10.912 70.7352 11.074 71.4552 11.074ZM71.4552 7.168C70.4832 7.168 69.6312 7.036 68.8992 6.772C68.1792 6.508 67.6152 6.124 67.2072 5.62C66.8112 5.104 66.6132 4.492 66.6132 3.784C66.6132 3.04 66.8172 2.404 67.2252 1.876C67.6332 1.336 68.2032 0.921999 68.9352 0.633999C69.6672 0.334 70.5072 0.184 71.4552 0.184C72.4272 0.184 73.2732 0.334 73.9932 0.633999C74.7252 0.921999 75.2952 1.336 75.7032 1.876C76.1232 2.404 76.3332 3.04 76.3332 3.784C76.3332 4.492 76.1292 5.104 75.7212 5.62C75.3252 6.124 74.7612 6.508 74.0292 6.772C73.2972 7.036 72.4392 7.168 71.4552 7.168ZM71.4552 5.458C72.0672 5.458 72.5472 5.32 72.8952 5.044C73.2552 4.768 73.4352 4.39 73.4352 3.91C73.4352 3.406 73.2492 3.016 72.8772 2.74C72.5172 2.464 72.0432 2.326 71.4552 2.326C70.8792 2.326 70.4112 2.464 70.0512 2.74C69.6912 3.016 69.5112 3.406 69.5112 3.91C69.5112 4.39 69.6852 4.768 70.0332 5.044C70.3812 5.32 70.8552 5.458 71.4552 5.458ZM82.546 0.184C83.71 0.184 84.712 0.424 85.552 0.903999C86.392 1.384 87.04 2.086 87.496 3.01C87.952 3.922 88.18 5.062 88.18 6.43C88.18 7.882 87.904 9.112 87.352 10.12C86.812 11.128 86.062 11.896 85.102 12.424C84.142 12.952 83.026 13.216 81.754 13.216C81.094 13.216 80.458 13.144 79.846 13C79.234 12.856 78.706 12.64 78.262 12.352L79.342 10.21C79.69 10.45 80.062 10.618 80.458 10.714C80.854 10.798 81.268 10.84 81.7 10.84C82.78 10.84 83.638 10.51 84.274 9.85C84.922 9.19 85.246 8.212 85.246 6.916C85.246 6.7 85.24 6.46 85.228 6.196C85.216 5.932 85.186 5.668 85.138 5.404L85.93 6.16C85.726 6.628 85.438 7.024 85.066 7.348C84.694 7.66 84.262 7.9 83.77 8.068C83.278 8.224 82.726 8.302 82.114 8.302C81.31 8.302 80.578 8.14 79.918 7.816C79.27 7.492 78.748 7.036 78.352 6.448C77.968 5.86 77.776 5.17 77.776 4.378C77.776 3.514 77.986 2.77 78.406 2.146C78.838 1.522 79.414 1.042 80.134 0.705999C80.866 0.358 81.67 0.184 82.546 0.184ZM82.726 2.362C82.306 2.362 81.94 2.44 81.628 2.596C81.316 2.74 81.07 2.956 80.89 3.244C80.71 3.52 80.62 3.85 80.62 4.234C80.62 4.81 80.812 5.272 81.196 5.62C81.592 5.956 82.114 6.124 82.762 6.124C83.182 6.124 83.554 6.046 83.878 5.89C84.214 5.722 84.472 5.494 84.652 5.206C84.832 4.918 84.922 4.594 84.922 4.234C84.922 3.874 84.832 3.556 84.652 3.28C84.484 2.992 84.238 2.77 83.914 2.614C83.59 2.446 83.194 2.362 82.726 2.362ZM94.007 0.184C95.171 0.184 96.173 0.424 97.013 0.903999C97.853 1.384 98.501 2.086 98.957 3.01C99.413 3.922 99.641 5.062 99.641 6.43C99.641 7.882 99.365 9.112 98.813 10.12C98.273 11.128 97.523 11.896 96.563 12.424C95.603 12.952 94.487 13.216 93.215 13.216C92.555 13.216 91.919 13.144 91.307 13C90.695 12.856 90.167 12.64 89.723 12.352L90.803 10.21C91.151 10.45 91.523 10.618 91.919 10.714C92.315 10.798 92.729 10.84 93.161 10.84C94.241 10.84 95.099 10.51 95.735 9.85C96.383 9.19 96.707 8.212 96.707 6.916C96.707 6.7 96.701 6.46 96.689 6.196C96.677 5.932 96.647 5.668 96.599 5.404L97.391 6.16C97.187 6.628 96.899 7.024 96.527 7.348C96.155 7.66 95.723 7.9 95.231 8.068C94.739 8.224 94.187 8.302 93.575 8.302C92.771 8.302 92.039 8.14 91.379 7.816C90.731 7.492 90.209 7.036 89.813 6.448C89.429 5.86 89.237 5.17 89.237 4.378C89.237 3.514 89.447 2.77 89.867 2.146C90.299 1.522 90.875 1.042 91.595 0.705999C92.327 0.358 93.131 0.184 94.007 0.184ZM94.187 2.362C93.767 2.362 93.401 2.44 93.089 2.596C92.777 2.74 92.531 2.956 92.351 3.244C92.171 3.52 92.081 3.85 92.081 4.234C92.081 4.81 92.273 5.272 92.657 5.62C93.053 5.956 93.575 6.124 94.223 6.124C94.643 6.124 95.015 6.046 95.339 5.89C95.675 5.722 95.933 5.494 96.113 5.206C96.293 4.918 96.383 4.594 96.383 4.234C96.383 3.874 96.293 3.556 96.113 3.28C95.945 2.992 95.699 2.77 95.375 2.614C95.051 2.446 94.655 2.362 94.187 2.362ZM104.95 13.216C104.074 13.216 103.204 13.102 102.34 12.874C101.476 12.634 100.744 12.298 100.144 11.866L101.278 9.634C101.758 9.982 102.316 10.258 102.952 10.462C103.588 10.666 104.23 10.768 104.878 10.768C105.61 10.768 106.186 10.624 106.606 10.336C107.026 10.048 107.236 9.652 107.236 9.148C107.236 8.668 107.05 8.29 106.678 8.014C106.306 7.738 105.706 7.6 104.878 7.6H103.546V5.674L107.056 1.696L107.38 2.74H100.774V0.399999H109.594V2.29L106.102 6.268L104.626 5.422H105.472C107.02 5.422 108.19 5.77 108.982 6.466C109.774 7.162 110.17 8.056 110.17 9.148C110.17 9.856 109.984 10.522 109.612 11.146C109.24 11.758 108.67 12.256 107.902 12.64C107.134 13.024 106.15 13.216 104.95 13.216ZM115.515 13.216C114.639 13.216 113.769 13.102 112.905 12.874C112.041 12.634 111.309 12.298 110.709 11.866L111.843 9.634C112.323 9.982 112.881 10.258 113.517 10.462C114.153 10.666 114.795 10.768 115.443 10.768C116.175 10.768 116.751 10.624 117.171 10.336C117.591 10.048 117.801 9.652 117.801 9.148C117.801 8.668 117.615 8.29 117.243 8.014C116.871 7.738 116.271 7.6 115.443 7.6H114.111V5.674L117.621 1.696L117.945 2.74H111.339V0.399999H120.159V2.29L116.667 6.268L115.191 5.422H116.037C117.585 5.422 118.755 5.77 119.547 6.466C120.339 7.162 120.735 8.056 120.735 9.148C120.735 9.856 120.549 10.522 120.177 11.146C119.805 11.758 119.235 12.256 118.467 12.64C117.699 13.024 116.715 13.216 115.515 13.216ZM127.301 13.216C126.245 13.216 125.321 13.06 124.529 12.748C123.737 12.424 123.119 11.974 122.675 11.398C122.231 10.81 122.009 10.126 122.009 9.346C122.009 8.566 122.225 7.906 122.657 7.366C123.101 6.814 123.719 6.4 124.511 6.124C125.303 5.836 126.233 5.692 127.301 5.692C128.381 5.692 129.317 5.836 130.109 6.124C130.913 6.4 131.531 6.814 131.963 7.366C132.407 7.906 132.629 8.566 132.629 9.346C132.629 10.126 132.407 10.81 131.963 11.398C131.519 11.974 130.895 12.424 130.091 12.748C129.299 13.06 128.369 13.216 127.301 13.216ZM127.301 11.074C128.033 11.074 128.609 10.912 129.029 10.588C129.461 10.264 129.677 9.82 129.677 9.256C129.677 8.692 129.461 8.254 129.029 7.942C128.609 7.618 128.033 7.456 127.301 7.456C126.581 7.456 126.011 7.618 125.591 7.942C125.171 8.254 124.961 8.692 124.961 9.256C124.961 9.82 125.171 10.264 125.591 10.588C126.011 10.912 126.581 11.074 127.301 11.074ZM127.301 7.168C126.329 7.168 125.477 7.036 124.745 6.772C124.025 6.508 123.461 6.124 123.053 5.62C122.657 5.104 122.459 4.492 122.459 3.784C122.459 3.04 122.663 2.404 123.071 1.876C123.479 1.336 124.049 0.921999 124.781 0.633999C125.513 0.334 126.353 0.184 127.301 0.184C128.273 0.184 129.119 0.334 129.839 0.633999C130.571 0.921999 131.141 1.336 131.549 1.876C131.969 2.404 132.179 3.04 132.179 3.784C132.179 4.492 131.975 5.104 131.567 5.62C131.171 6.124 130.607 6.508 129.875 6.772C129.143 7.036 128.285 7.168 127.301 7.168ZM127.301 5.458C127.913 5.458 128.393 5.32 128.741 5.044C129.101 4.768 129.281 4.39 129.281 3.91C129.281 3.406 129.095 3.016 128.723 2.74C128.363 2.464 127.889 2.326 127.301 2.326C126.725 2.326 126.257 2.464 125.897 2.74C125.537 3.016 125.357 3.406 125.357 3.91C125.357 4.39 125.531 4.768 125.879 5.044C126.227 5.32 126.701 5.458 127.301 5.458Z" fill="black"/>
</svg>
