<svg width="302" height="168" viewBox="0 0 342 208" fill="none" xmlns="http://www.w3.org/2000/svg">
<g clip-path="url(#clip0_157_3336)">
<path d="M311.236 11.5C311.525 9.42338 308.591 7.71404 306.392 7.53772C305.339 7.44956 304.246 7.61119 303.252 7.26344C301.096 6.51408 300.234 3.72723 298.133 2.85542C296.56 2.18932 294.748 2.78195 293.234 3.55091C291.72 4.31986 290.202 5.28473 288.497 5.39248C287.028 5.48554 285.406 4.93699 284.088 5.66186C283.109 6.20062 282.619 7.31242 281.727 7.96873C280.836 8.62503 279.719 8.74748 278.636 8.80625C277.554 8.86503 276.437 8.87482 275.452 9.32542C274.468 9.77602 273.654 10.7948 273.86 11.8821L311.236 11.5Z" fill="#F5F5F5"/>
<path d="M75.2818 48.4834H33.8789V179.676H75.2818V48.4834Z" fill="#F5F5F5"/>
<path d="M75.2776 48.4834H54.5762V179.314H75.2776V48.4834Z" fill="#EBEBEB"/>
<path d="M53.2278 35.607H38.6055V48.4883H53.2278V35.607Z" fill="#F5F5F5"/>
<path d="M53.2231 35.607H49.7402V48.4883H53.2231V35.607Z" fill="#EBEBEB"/>
<path d="M30.4258 48.4834V47.734H76.4921V48.4834" fill="#E0E0E0"/>
<path d="M45.5533 54.1012H42.0508V61.487H45.5533V54.1012Z" fill="#FAFAFA"/>
<path d="M54.5764 64.3963C54.5764 64.4698 49.9424 64.5335 44.2257 64.5335C38.5091 64.5335 33.875 64.4698 33.875 64.3963C33.875 64.3229 38.5091 64.2543 44.2257 64.2543C49.9424 64.2543 54.5764 64.3131 54.5764 64.3963Z" fill="#E0E0E0"/>
<path d="M66.4302 54.1012H62.9277V61.487H66.4302V54.1012Z" fill="#E0E0E0"/>
<path d="M75.4534 64.3963C75.4534 64.4698 70.8193 64.5335 65.1027 64.5335C59.386 64.5335 54.752 64.4698 54.752 64.3963C54.752 64.3229 59.386 64.2543 65.1027 64.2543C70.8193 64.2543 75.4534 64.3131 75.4534 64.3963Z" fill="#E0E0E0"/>
<path d="M66.4302 68.7701H62.9277V76.1609H66.4302V68.7701Z" fill="#E0E0E0"/>
<path d="M75.4534 79.0604C75.4534 79.1338 70.8193 79.1975 65.1027 79.1975C59.386 79.1975 54.752 79.1338 54.752 79.0604C54.752 78.9869 59.386 78.9183 65.1027 78.9183C70.8193 78.9183 75.4534 78.982 75.4534 79.0604Z" fill="#E0E0E0"/>
<path d="M66.4302 83.8798H62.9277V91.2657H66.4302V83.8798Z" fill="#E0E0E0"/>
<path d="M75.4534 94.1701C75.4534 94.2485 70.8193 94.3121 65.1027 94.3121C59.386 94.3121 54.752 94.2485 54.752 94.1701C54.752 94.0917 59.386 94.0281 65.1027 94.0281C70.8193 94.0281 75.4534 94.0917 75.4534 94.1701Z" fill="#E0E0E0"/>
<path d="M66.4302 98.9944H62.9277V106.38H66.4302V98.9944Z" fill="#E0E0E0"/>
<path d="M75.4534 109.28C75.4534 109.358 70.8193 109.422 65.1027 109.422C59.386 109.422 54.752 109.358 54.752 109.28C54.752 109.201 59.386 109.138 65.1027 109.138C70.8193 109.138 75.4534 109.201 75.4534 109.28Z" fill="#E0E0E0"/>
<path d="M66.4302 113.673H62.9277V121.059H66.4302V113.673Z" fill="#E0E0E0"/>
<path d="M75.4534 123.959C75.4534 124.037 70.8193 124.101 65.1027 124.101C59.386 124.101 54.752 124.037 54.752 123.959C54.752 123.88 59.386 123.817 65.1027 123.817C70.8193 123.817 75.4534 123.88 75.4534 123.959Z" fill="#E0E0E0"/>
<path d="M66.4302 128.411H62.9277V135.797H66.4302V128.411Z" fill="#E0E0E0"/>
<path d="M66.4302 143.344H62.9277V150.73H66.4302V143.344Z" fill="#E0E0E0"/>
<path d="M75.4534 138.696C75.4534 138.774 70.8193 138.838 65.1027 138.838C59.386 138.838 54.752 138.774 54.752 138.696C54.752 138.618 59.386 138.559 65.1027 138.559C70.8193 138.559 75.4534 138.623 75.4534 138.696Z" fill="#E0E0E0"/>
<path d="M45.5533 68.9954H42.0508V76.3813H45.5533V68.9954Z" fill="#FAFAFA"/>
<path d="M54.5764 79.2808C54.5764 79.3591 49.9424 79.4228 44.2257 79.4228C38.5091 79.4228 33.875 79.3591 33.875 79.2808C33.875 79.2024 38.5091 79.1387 44.2257 79.1387C49.9424 79.1387 54.5764 79.2024 54.5764 79.2808Z" fill="#E0E0E0"/>
<path d="M45.5533 83.8847H42.0508V91.2706H45.5533V83.8847Z" fill="#FAFAFA"/>
<path d="M54.5764 94.175C54.5764 94.2534 49.9424 94.317 44.2257 94.317C38.5091 94.317 33.875 94.2534 33.875 94.175C33.875 94.0966 38.5091 94.033 44.2257 94.033C49.9424 94.033 54.5764 94.0966 54.5764 94.175Z" fill="#E0E0E0"/>
<path d="M45.5533 98.7789H42.0508V106.165H45.5533V98.7789Z" fill="#FAFAFA"/>
<path d="M54.5764 109.069C54.5764 109.143 49.9424 109.206 44.2257 109.206C38.5091 109.206 33.875 109.143 33.875 109.069C33.875 108.996 38.5091 108.927 44.2257 108.927C49.9424 108.927 54.5764 108.991 54.5764 109.069Z" fill="#E0E0E0"/>
<path d="M45.5533 113.673H42.0508V121.059H45.5533V113.673Z" fill="#FAFAFA"/>
<path d="M54.5764 123.959C54.5764 124.037 49.9424 124.101 44.2257 124.101C38.5091 124.101 33.875 124.037 33.875 123.959C33.875 123.88 38.5091 123.817 44.2257 123.817C49.9424 123.817 54.5764 123.88 54.5764 123.959Z" fill="#E0E0E0"/>
<path d="M45.5533 128.562H42.0508V135.948H45.5533V128.562Z" fill="#FAFAFA"/>
<path d="M54.5764 138.843C54.5764 138.921 49.9424 138.985 44.2257 138.985C38.5091 138.985 33.875 138.921 33.875 138.843C33.875 138.765 38.5091 138.701 44.2257 138.701C49.9424 138.701 54.5764 138.774 54.5764 138.843Z" fill="#E0E0E0"/>
<path d="M45.5533 143.457H42.0508V150.843H45.5533V143.457Z" fill="#FAFAFA"/>
<path d="M238.644 18.5676H178.965V207.672H238.644V18.5676Z" fill="#F5F5F5"/>
<path d="M238.644 18.5676H208.807V207.153H238.644V18.5676Z" fill="#EBEBEB"/>
<path d="M206.851 0H185.777V18.5676H206.851V0Z" fill="#F5F5F5"/>
<path d="M206.851 0H201.83V18.5676H206.851V0Z" fill="#EBEBEB"/>
<path d="M173.992 18.5676V17.4852H240.393V18.5676" fill="#E0E0E0"/>
<path d="M195.797 26.6637H190.746V37.3115H195.797V26.6637Z" fill="#FAFAFA"/>
<path d="M208.802 41.4893C208.802 41.602 202.125 41.695 193.886 41.695C185.647 41.695 178.965 41.602 178.965 41.4893C178.965 41.3767 185.642 41.2885 193.886 41.2885C202.13 41.2885 208.802 41.3767 208.802 41.4893Z" fill="#E0E0E0"/>
<path d="M225.896 26.6637H220.846V37.3115H225.896V26.6637Z" fill="#E0E0E0"/>
<path d="M238.903 41.4893C238.903 41.602 232.221 41.695 223.982 41.695C215.742 41.695 209.061 41.602 209.061 41.4893C209.061 41.3767 215.742 41.2885 223.982 41.2885C232.221 41.2885 238.903 41.3767 238.903 41.4893Z" fill="#E0E0E0"/>
<path d="M225.896 47.8075H220.846V58.4553H225.896V47.8075Z" fill="#E0E0E0"/>
<path d="M238.903 62.638C238.903 62.7507 232.221 62.8388 223.982 62.8388C215.742 62.8388 209.061 62.7507 209.061 62.638C209.061 62.5254 215.742 62.4323 223.982 62.4323C232.221 62.4323 238.903 62.5254 238.903 62.638Z" fill="#E0E0E0"/>
<path d="M225.896 69.588H220.846V80.2358H225.896V69.588Z" fill="#E0E0E0"/>
<path d="M238.903 84.4186C238.903 84.5312 232.221 84.6243 223.982 84.6243C215.742 84.6243 209.061 84.5312 209.061 84.4186C209.061 84.3059 215.742 84.2129 223.982 84.2129C232.221 84.2129 238.903 84.3059 238.903 84.4186Z" fill="#E0E0E0"/>
<path d="M225.896 91.3735H220.846V102.021H225.896V91.3735Z" fill="#E0E0E0"/>
<path d="M238.903 106.199C238.903 106.312 232.221 106.405 223.982 106.405C215.742 106.405 209.061 106.312 209.061 106.199C209.061 106.086 215.742 105.998 223.982 105.998C232.221 105.998 238.903 106.086 238.903 106.199Z" fill="#E0E0E0"/>
<path d="M225.896 112.532H220.846V123.18H225.896V112.532Z" fill="#E0E0E0"/>
<path d="M238.903 127.363C238.903 127.47 232.221 127.563 223.982 127.563C215.742 127.563 209.061 127.47 209.061 127.363C209.061 127.255 215.742 127.157 223.982 127.157C232.221 127.157 238.903 127.25 238.903 127.363Z" fill="#E0E0E0"/>
<path d="M225.896 133.774H220.846V144.422H225.896V133.774Z" fill="#E0E0E0"/>
<path d="M225.896 155.3H220.846V165.947H225.896V155.3Z" fill="#E0E0E0"/>
<path d="M238.903 148.604C238.903 148.717 232.221 148.81 223.982 148.81C215.742 148.81 209.061 148.717 209.061 148.604C209.061 148.492 215.742 148.404 223.982 148.404C232.221 148.404 238.903 148.492 238.903 148.604Z" fill="#E0E0E0"/>
<path d="M195.797 48.1307H190.746V58.7786H195.797V48.1307Z" fill="#FAFAFA"/>
<path d="M208.802 62.9613C208.802 63.0691 202.125 63.1621 193.886 63.1621C185.647 63.1621 178.965 63.0691 178.965 62.9613C178.965 62.8535 185.642 62.7556 193.886 62.7556C202.13 62.7556 208.802 62.8486 208.802 62.9613Z" fill="#E0E0E0"/>
<path d="M195.797 69.5978H190.746V80.2456H195.797V69.5978Z" fill="#FAFAFA"/>
<path d="M208.802 84.4284C208.802 84.5361 202.125 84.6292 193.886 84.6292C185.647 84.6292 178.965 84.5361 178.965 84.4284C178.965 84.3206 185.642 84.2227 193.886 84.2227C202.13 84.2227 208.802 84.3157 208.802 84.4284Z" fill="#E0E0E0"/>
<path d="M195.797 91.0649H190.746V101.713H195.797V91.0649Z" fill="#FAFAFA"/>
<path d="M208.802 105.895C208.802 106.003 202.125 106.096 193.886 106.096C185.647 106.096 178.965 106.003 178.965 105.895C178.965 105.788 185.642 105.69 193.886 105.69C202.13 105.69 208.802 105.783 208.802 105.895Z" fill="#E0E0E0"/>
<path d="M195.797 112.532H190.746V123.18H195.797V112.532Z" fill="#FAFAFA"/>
<path d="M208.802 127.363C208.802 127.47 202.125 127.563 193.886 127.563C185.647 127.563 178.965 127.47 178.965 127.363C178.965 127.255 185.642 127.157 193.886 127.157C202.13 127.157 208.802 127.25 208.802 127.363Z" fill="#E0E0E0"/>
<path d="M195.797 133.999H190.746V144.647H195.797V133.999Z" fill="#FAFAFA"/>
<path d="M208.802 148.83C208.802 148.942 202.125 149.03 193.886 149.03C185.647 149.03 178.965 148.942 178.965 148.83C178.965 148.717 185.642 148.624 193.886 148.624C202.13 148.624 208.802 148.717 208.802 148.83Z" fill="#E0E0E0"/>
<path d="M195.797 155.466H190.746V166.114H195.797V155.466Z" fill="#FAFAFA"/>
<path d="M259.703 104.348H227.098V207.662H259.703V104.348Z" fill="#F5F5F5"/>
<path d="M259.703 104.348H243.4V207.378H259.703V104.348Z" fill="#EBEBEB"/>
<path d="M242.334 94.2044H230.822V104.348H242.334V94.2044Z" fill="#F5F5F5"/>
<path d="M242.339 94.2044H239.596V104.348H242.339V94.2044Z" fill="#EBEBEB"/>
<path d="M224.385 104.348V103.755H260.659V104.348" fill="#E0E0E0"/>
<path d="M236.293 108.77H233.535V114.589H236.293V108.77Z" fill="#FAFAFA"/>
<path d="M243.4 116.876C243.4 116.935 239.751 116.984 235.249 116.984C230.747 116.984 227.098 116.935 227.098 116.876C227.098 116.818 230.747 116.764 235.249 116.764C239.751 116.764 243.4 116.803 243.4 116.876Z" fill="#E0E0E0"/>
<path d="M252.738 108.77H249.98V114.589H252.738V108.77Z" fill="#E0E0E0"/>
<path d="M259.845 116.876C259.845 116.935 256.196 116.984 251.694 116.984C247.192 116.984 243.543 116.935 243.543 116.876C243.543 116.818 247.192 116.764 251.694 116.764C256.196 116.764 259.845 116.803 259.845 116.876Z" fill="#E0E0E0"/>
<path d="M252.738 120.324H249.98V126.143H252.738V120.324Z" fill="#E0E0E0"/>
<path d="M259.845 128.425C259.845 128.489 256.196 128.538 251.694 128.538C247.192 128.538 243.543 128.489 243.543 128.425C243.543 128.362 247.192 128.313 251.694 128.313C256.196 128.313 259.845 128.367 259.845 128.425Z" fill="#E0E0E0"/>
<path d="M252.738 132.226H249.98V138.045H252.738V132.226Z" fill="#E0E0E0"/>
<path d="M259.845 140.312C259.845 140.371 256.196 140.425 251.694 140.425C247.192 140.425 243.543 140.371 243.543 140.312C243.543 140.254 247.192 140.2 251.694 140.2C256.196 140.2 259.845 140.263 259.845 140.312Z" fill="#E0E0E0"/>
<path d="M252.738 144.128H249.98V149.946H252.738V144.128Z" fill="#E0E0E0"/>
<path d="M259.845 152.229C259.845 152.287 256.196 152.336 251.694 152.336C247.192 152.336 243.543 152.287 243.543 152.229C243.543 152.17 247.192 152.116 251.694 152.116C256.196 152.116 259.845 152.165 259.845 152.229Z" fill="#E0E0E0"/>
<path d="M252.738 155.687H249.98V161.505H252.738V155.687Z" fill="#E0E0E0"/>
<path d="M259.845 163.788C259.845 163.851 256.196 163.9 251.694 163.9C247.192 163.9 243.543 163.851 243.543 163.788C243.543 163.724 247.192 163.675 251.694 163.675C256.196 163.675 259.845 163.724 259.845 163.788Z" fill="#E0E0E0"/>
<path d="M252.738 167.294H249.98V173.113H252.738V167.294Z" fill="#E0E0E0"/>
<path d="M252.738 179.049H249.98V184.868H252.738V179.049Z" fill="#E0E0E0"/>
<path d="M259.845 175.395C259.845 175.454 256.196 175.503 251.694 175.503C247.192 175.503 243.543 175.454 243.543 175.395C243.543 175.337 247.192 175.283 251.694 175.283C256.196 175.283 259.845 175.332 259.845 175.395Z" fill="#E0E0E0"/>
<path d="M236.293 120.501H233.535V126.319H236.293V120.501Z" fill="#FAFAFA"/>
<path d="M243.4 128.602C243.4 128.665 239.751 128.714 235.249 128.714C230.747 128.714 227.098 128.665 227.098 128.602C227.098 128.538 230.747 128.489 235.249 128.489C239.751 128.489 243.4 128.558 243.4 128.602Z" fill="#E0E0E0"/>
<path d="M236.293 132.231H233.535V138.05H236.293V132.231Z" fill="#FAFAFA"/>
<path d="M243.4 140.312C243.4 140.371 239.751 140.42 235.249 140.42C230.747 140.42 227.098 140.371 227.098 140.312C227.098 140.254 230.747 140.2 235.249 140.2C239.751 140.2 243.4 140.268 243.4 140.312Z" fill="#E0E0E0"/>
<path d="M236.293 143.956H233.535V149.775H236.293V143.956Z" fill="#FAFAFA"/>
<path d="M243.4 152.067C243.4 152.131 239.751 152.18 235.249 152.18C230.747 152.18 227.098 152.131 227.098 152.067C227.098 152.003 230.747 151.959 235.249 151.959C239.751 151.959 243.4 151.999 243.4 152.067Z" fill="#E0E0E0"/>
<path d="M236.293 155.687H233.535V161.505H236.293V155.687Z" fill="#FAFAFA"/>
<path d="M243.4 163.788C243.4 163.851 239.751 163.9 235.249 163.9C230.747 163.9 227.098 163.851 227.098 163.788C227.098 163.724 230.747 163.675 235.249 163.675C239.751 163.675 243.4 163.724 243.4 163.788Z" fill="#E0E0E0"/>
<path d="M236.293 167.412H233.535V173.23H236.293V167.412Z" fill="#FAFAFA"/>
<path d="M243.4 175.518C243.4 175.577 239.751 175.626 235.249 175.626C230.747 175.626 227.098 175.577 227.098 175.518C227.098 175.459 230.747 175.405 235.249 175.405C239.751 175.405 243.4 175.454 243.4 175.518Z" fill="#E0E0E0"/>
<path d="M236.293 179.142H233.535V184.961H236.293V179.142Z" fill="#FAFAFA"/>
<path d="M96.1931 141.057H61.0898V207.667H96.1931V141.057Z" fill="#E0E0E0"/>
<path d="M96.1936 141.057H79.7344V207.667H96.1936V141.057Z" fill="#EBEBEB"/>
<path d="M71.602 147.321H68.4473V154.986H71.602V147.321Z" fill="#F5F5F5"/>
<path d="M71.602 177.33H68.4473V184.995H71.602V177.33Z" fill="#F5F5F5"/>
<path d="M79.7279 157.998C79.7279 158.067 75.5543 158.116 70.4206 158.116C65.2869 158.116 61.1133 158.067 61.1133 157.998C61.1133 157.93 65.2869 157.881 70.4206 157.881C75.5543 157.881 79.7279 157.944 79.7279 157.998Z" fill="#F5F5F5"/>
<path d="M71.602 162.441H68.4473V170.106H71.602V162.441Z" fill="#F5F5F5"/>
<path d="M79.7279 173.128C79.7279 173.191 75.5543 173.245 70.4206 173.245C65.2869 173.245 61.1133 173.191 61.1133 173.128C61.1133 173.064 65.2869 173.005 70.4206 173.005C75.5543 173.005 79.7279 173.049 79.7279 173.128Z" fill="#F5F5F5"/>
<path d="M86.3813 147.321H83.2266V154.986H86.3813V147.321Z" fill="#E0E0E0"/>
<path d="M93.2289 147.321H90.0742V154.986H93.2289V147.321Z" fill="#E0E0E0"/>
<path d="M86.3813 161.872H83.2266V169.538H86.3813V161.872Z" fill="#E0E0E0"/>
<path d="M93.2289 161.872H90.0742V169.538H93.2289V161.872Z" fill="#E0E0E0"/>
<path d="M86.3813 176.419H83.2266V184.084H86.3813V176.419Z" fill="#E0E0E0"/>
<path d="M93.2289 176.419H90.0742V184.084H93.2289V176.419Z" fill="#E0E0E0"/>
<path d="M98.8283 139.445H58.4492V141.116H98.8283V139.445Z" fill="#E0E0E0"/>
<path d="M96.4332 141.292C96.4332 141.356 88.5954 141.409 78.9109 141.409C69.2264 141.409 61.3887 141.356 61.3887 141.292C61.3887 141.228 69.2264 141.169 78.9109 141.169C88.5954 141.169 96.4332 141.204 96.4332 141.292Z" fill="#EBEBEB"/>
<path d="M61.4925 207.618H4.95782L4.71289 118.287H61.2475L61.4925 207.618Z" fill="#EBEBEB"/>
<path d="M61.2414 118.287H32.9766V207.618H61.2414V118.287Z" fill="#E0E0E0"/>
<path d="M31.1297 100.699H11.168V118.287H31.1297V100.699Z" fill="#EBEBEB"/>
<path d="M31.1296 100.699H26.373V118.287H31.1296V100.699Z" fill="#E0E0E0"/>
<path d="M62.8979 117.258H0V118.282H62.8979V117.258Z" fill="#E0E0E0"/>
<path d="M20.657 125.957H15.8711V136.046H20.657V125.957Z" fill="white"/>
<path d="M32.9768 140.004C32.9768 140.112 26.6478 140.195 18.8444 140.195C11.0409 140.195 4.70703 140.112 4.70703 140.004C4.70703 139.896 11.036 139.823 18.8444 139.823C26.6527 139.823 32.9768 139.896 32.9768 140.004Z" fill="#E0E0E0"/>
<path d="M49.1668 125.957H44.3809V136.046H49.1668V125.957Z" fill="#F5F5F5"/>
<path d="M61.4875 140.004C61.4875 140.112 55.1585 140.195 47.3551 140.195C39.5516 140.195 33.2227 140.112 33.2227 140.004C33.2227 139.896 39.5467 139.813 47.3551 139.813C55.1634 139.813 61.4875 139.896 61.4875 140.004Z" fill="#EBEBEB"/>
<path d="M49.1668 145.984H44.3809V156.073H49.1668V145.984Z" fill="#F5F5F5"/>
<path d="M61.4875 160.036C61.4875 160.139 55.1585 160.227 47.3551 160.227C39.5516 160.227 33.2227 160.139 33.2227 160.036C33.2227 159.933 39.5467 159.84 47.3551 159.84C55.1634 159.84 61.4875 159.928 61.4875 160.036Z" fill="#EBEBEB"/>
<path d="M49.1668 166.618H44.3809V176.708H49.1668V166.618Z" fill="#F5F5F5"/>
<path d="M61.4875 180.67C61.4875 180.773 55.1585 180.861 47.3551 180.861C39.5516 180.861 33.2227 180.773 33.2227 180.67C33.2227 180.567 39.5467 180.474 47.3551 180.474C55.1634 180.474 61.4875 180.562 61.4875 180.67Z" fill="#EBEBEB"/>
<path d="M49.1668 187.253H44.3809V197.342H49.1668V187.253Z" fill="#F5F5F5"/>
<path d="M61.4875 201.3C61.4875 201.408 55.1585 201.496 47.3551 201.496C39.5516 201.496 33.2227 201.408 33.2227 201.3C33.2227 201.192 39.5467 201.109 47.3551 201.109C55.1634 201.109 61.4875 201.197 61.4875 201.3Z" fill="#EBEBEB"/>
<path d="M20.657 146.293H15.8711V156.382H20.657V146.293Z" fill="white"/>
<path d="M32.9768 160.339C32.9768 160.447 26.6478 160.53 18.8444 160.53C11.0409 160.53 4.70703 160.447 4.70703 160.339C4.70703 160.232 11.036 160.148 18.8444 160.148C26.6527 160.148 32.9768 160.232 32.9768 160.339Z" fill="#E0E0E0"/>
<path d="M20.657 166.628H15.8711V176.718H20.657V166.628Z" fill="white"/>
<path d="M32.9768 180.675C32.9768 180.783 26.6478 180.866 18.8444 180.866C11.0409 180.866 4.70703 180.783 4.70703 180.675C4.70703 180.567 11.036 180.474 18.8444 180.474C26.6527 180.474 32.9768 180.567 32.9768 180.675Z" fill="#E0E0E0"/>
<path d="M20.657 186.964H15.8711V197.053H20.657V186.964Z" fill="white"/>
<path d="M32.9768 201.011C32.9768 201.119 26.6478 201.202 18.8444 201.202C11.0409 201.202 4.70703 201.119 4.70703 201.011C4.70703 200.903 11.036 200.82 18.8444 200.82C26.6527 200.82 32.9768 200.903 32.9768 201.011Z" fill="#E0E0E0"/>
<path d="M329.47 69.2942C329.876 66.3261 325.688 63.9066 322.538 63.6323C321.039 63.5098 319.477 63.74 318.056 63.2454C314.975 62.1727 313.745 58.1908 310.737 56.9223C308.489 55.9721 305.898 56.8194 303.723 57.9019C301.548 58.9843 299.387 60.3752 296.953 60.532C294.837 60.6691 292.544 59.8806 290.683 60.9189C289.301 61.6879 288.576 63.2796 287.303 64.22C286.029 65.1604 284.437 65.3318 282.894 65.4151C281.351 65.4984 279.749 65.513 278.343 66.1596C276.937 66.8061 275.771 68.2901 276.065 69.8084L329.47 69.2942Z" fill="#F5F5F5"/>
<path d="M342 174.974H296.521V207.662H342V174.974Z" fill="#EBEBEB"/>
<path d="M308.715 174.974C308.784 174.974 308.715 181.875 308.715 181.875H305.35V174.974H308.715Z" fill="#F5F5F5"/>
<path d="M319.261 207.662H342V174.974H319.261V207.662Z" fill="#E0E0E0"/>
<path d="M303.997 201.266H297.908V205.571H303.997V201.266Z" fill="white"/>
<path d="M308.161 201.266H305.119V205.571H308.161V201.266Z" fill="white"/>
<path d="M337.68 153.688H308.068V174.974H337.68V153.688Z" fill="#EBEBEB"/>
<path d="M316.009 153.688C316.048 153.688 316.009 158.184 316.009 158.184H313.814V153.688H316.009Z" fill="#F5F5F5"/>
<path d="M322.876 174.974H337.68V153.688H322.876V174.974Z" fill="#E0E0E0"/>
<path d="M312.932 170.806H308.969V173.613H312.932V170.806Z" fill="white"/>
<path d="M315.652 170.806H313.668V173.613H315.652V170.806Z" fill="white"/>
<path d="M34.9959 12.2347C35.2262 10.5548 32.8553 9.16869 31.0771 9.02666C30.2247 8.95809 29.343 9.08543 28.5347 8.80625C26.7908 8.19893 26.0854 5.94594 24.3905 5.22596C23.1169 4.6872 21.6522 5.16718 20.4177 5.78921C19.1833 6.41123 17.9684 7.18998 16.587 7.25855C15.3869 7.33691 14.0839 6.89121 13.0356 7.47895C12.2518 7.91485 11.8403 8.81605 11.1202 9.34501C10.3695 9.81037 9.50013 10.0485 8.61703 10.0307C7.73916 10.0058 6.8646 10.1488 6.04037 10.4519C5.2419 10.8144 4.57079 11.6568 4.74714 12.5188L34.9959 12.2347Z" fill="#EBEBEB"/>
<path d="M337.728 46.3577C337.953 44.717 335.641 43.3701 333.902 43.228C333.074 43.1644 332.212 43.2868 331.423 43.0174C329.723 42.4199 329.042 40.2208 327.382 39.5204C326.142 39.0012 324.712 39.4665 323.507 40.069C322.302 40.6714 321.112 41.4403 319.769 41.5383C318.599 41.6167 317.32 41.1808 316.306 41.7538C315.542 42.1799 315.145 43.0566 314.44 43.5758C313.704 44.0267 312.853 44.2562 311.99 44.237C311.134 44.2144 310.282 44.354 309.477 44.6484C308.699 45.001 308.057 45.8239 308.218 46.6614L337.728 46.3577Z" fill="#EBEBEB"/>
<path d="M87.0716 22.6426C87.4929 19.5716 83.1527 17.0444 79.905 16.7652C78.3472 16.6427 76.7356 16.8778 75.266 16.3685C72.077 15.2567 70.8034 11.1376 67.6928 9.825C65.3659 8.84544 62.6913 9.71725 60.438 10.8535C58.1846 11.9898 55.9557 13.4151 53.4379 13.5767C51.2433 13.7188 48.8675 12.9057 46.9472 13.9734C45.5217 14.7718 44.7723 16.4223 43.4545 17.4019C42.1368 18.3815 40.4909 18.5529 38.8891 18.641C37.2872 18.7292 35.6364 18.7439 34.1815 19.41C32.7266 20.0761 31.5265 21.614 31.8253 23.1862L87.0716 22.6426Z" fill="#F5F5F5"/>
<path d="M341.828 207.662C341.828 207.736 267.027 207.789 174.786 207.789C82.5456 207.789 7.74414 207.736 7.74414 207.662C7.74414 207.589 82.5309 207.535 174.811 207.535C267.09 207.535 341.828 207.594 341.828 207.662Z" fill="#263238"/>
<path d="M141.365 187.155C141.885 187.277 142.375 187.502 142.806 187.817C143.237 188.133 143.6 188.532 143.873 188.992C144.416 189.913 144.739 190.947 144.818 192.014C145.034 194.066 144.328 196.338 143.466 198.204C141.458 197.102 140.527 194.624 140.101 193.336C139.464 191.299 139.547 187.228 141.365 187.155Z" fill="#E8505B"/>
<path d="M146.15 201.079C145.91 200.532 145.818 199.931 145.884 199.337C145.95 198.742 146.172 198.176 146.527 197.695C146.892 197.222 147.346 196.826 147.865 196.53C148.384 196.234 148.957 196.044 149.55 195.971C149.818 195.908 150.097 195.904 150.368 195.961C150.638 196.018 150.892 196.133 151.112 196.299C151.289 196.487 151.414 196.718 151.473 196.969C151.532 197.22 151.525 197.482 151.45 197.729C151.288 198.221 151.001 198.661 150.618 199.008C149.359 200.242 147.914 201.212 146.15 201.079Z" fill="#E8505B"/>
<path d="M145.343 207.687C145.317 207.548 145.305 207.407 145.308 207.265C145.308 206.962 145.284 206.575 145.269 206.109C145.186 204.829 145.31 203.544 145.637 202.304C145.986 201.059 146.662 199.931 147.596 199.037C147.88 198.772 148.194 198.542 148.532 198.351C148.623 198.297 148.718 198.25 148.816 198.209C148.879 198.18 148.914 198.165 148.919 198.17C148.47 198.442 148.05 198.759 147.665 199.115C146.775 200.017 146.128 201.129 145.784 202.348C145.462 203.575 145.326 204.843 145.382 206.109C145.382 206.599 145.382 206.991 145.382 207.265C145.382 207.407 145.369 207.548 145.343 207.687Z" fill="#263238"/>
<path d="M141.584 190.27C141.61 190.325 141.63 190.382 141.643 190.441C141.682 190.574 141.726 190.745 141.785 190.931C141.908 191.377 142.079 192.018 142.275 192.817C142.682 194.409 143.211 196.613 143.745 199.066C144.279 201.52 144.7 203.744 144.989 205.365C145.131 206.173 145.244 206.834 145.312 207.28C145.347 207.496 145.371 207.672 145.391 207.804C145.395 207.866 145.395 207.928 145.391 207.99C145.367 207.932 145.351 207.871 145.342 207.809C145.312 207.677 145.278 207.505 145.234 207.29C145.146 206.825 145.018 206.173 144.866 205.385C144.553 203.773 144.107 201.545 143.583 199.096C143.059 196.647 142.54 194.438 142.162 192.841C141.976 192.053 141.824 191.411 141.717 190.946L141.599 190.456C141.587 190.395 141.582 190.332 141.584 190.27Z" fill="#263238"/>
<path d="M143.505 202.936C143.034 201.768 142.292 200.728 141.339 199.904C140.387 199.079 139.252 198.494 138.028 198.195C137.406 198.048 136.632 198.033 136.26 198.557C135.888 199.081 136.162 199.806 136.515 200.34C137.275 201.44 138.344 202.29 139.588 202.783C140.831 203.277 142.192 203.391 143.5 203.112" fill="#E8505B"/>
<path d="M138.719 200.036C138.852 200.046 138.983 200.071 139.111 200.11C139.263 200.144 139.414 200.187 139.561 200.237C139.738 200.301 139.939 200.35 140.149 200.448C140.384 200.539 140.612 200.644 140.835 200.761C141.093 200.89 141.343 201.034 141.585 201.192C142.141 201.555 142.654 201.981 143.113 202.461C143.566 202.947 143.96 203.485 144.289 204.062C144.429 204.314 144.555 204.574 144.666 204.841C144.766 205.071 144.855 205.307 144.93 205.546C144.993 205.744 145.046 205.945 145.087 206.149C145.128 206.3 145.158 206.453 145.175 206.609C145.203 206.739 145.218 206.872 145.219 207.006C145.185 207.006 145.121 206.443 144.827 205.581C144.749 205.345 144.657 205.115 144.553 204.89C144.44 204.629 144.311 204.376 144.166 204.131C143.839 203.566 143.45 203.041 143.005 202.563C142.562 202.094 142.069 201.674 141.536 201.31C141.299 201.15 141.053 201.003 140.801 200.869C140.571 200.737 140.34 200.639 140.135 200.546C139.268 200.183 138.709 200.066 138.719 200.036Z" fill="#263238"/>
<path d="M297.36 202.514C297.546 201.799 297.076 201.079 296.547 200.555C296.018 200.031 295.386 199.576 295.111 198.88C294.666 197.764 295.263 196.319 294.504 195.388C294.058 194.84 293.26 194.653 292.863 194.071C292.679 193.747 292.558 193.391 292.505 193.023C292.082 191.168 291.168 189.461 289.86 188.081C289.774 189.733 290.133 191.379 290.899 192.846C291.258 193.41 291.521 194.029 291.677 194.678C291.844 195.741 291.251 196.833 291.511 197.876C291.81 199.066 293.147 199.865 293.211 201.089C293.265 202.128 292.358 203.048 292.427 204.077C292.483 204.517 292.64 204.938 292.887 205.306C293.244 205.992 293.787 206.563 294.453 206.956C295.119 207.348 295.882 207.545 296.654 207.525L298.844 207.603L297.36 202.514Z" fill="#E8505B"/>
<g opacity="0.3">
<path d="M297.36 202.514C297.546 201.799 297.076 201.079 296.547 200.555C296.018 200.031 295.386 199.576 295.111 198.88C294.666 197.764 295.263 196.319 294.504 195.388C294.058 194.84 293.26 194.653 292.863 194.071C292.679 193.747 292.558 193.391 292.505 193.023C292.082 191.168 291.168 189.461 289.86 188.081C289.774 189.733 290.133 191.379 290.899 192.846C291.258 193.41 291.521 194.029 291.677 194.678C291.844 195.741 291.251 196.833 291.511 197.876C291.81 199.066 293.147 199.865 293.211 201.089C293.265 202.128 292.358 203.048 292.427 204.077C292.483 204.517 292.64 204.938 292.887 205.306C293.244 205.992 293.787 206.563 294.453 206.956C295.119 207.348 295.882 207.545 296.654 207.525L298.844 207.603L297.36 202.514Z" fill="black"/>
</g>
<path d="M299.285 207.652C299.484 207.688 299.688 207.688 299.888 207.652C300.13 207.617 300.368 207.558 300.598 207.476C300.915 207.362 301.212 207.197 301.475 206.986C301.635 206.856 301.76 206.688 301.837 206.496C301.902 206.285 301.937 206.066 301.94 205.845C301.944 205.607 301.962 205.37 301.994 205.135C302.034 204.886 302.124 204.648 302.259 204.434C302.612 203.983 302.89 203.477 303.082 202.936C303.188 202.3 303.168 201.649 303.023 201.021C302.865 200.342 302.883 199.633 303.077 198.964C303.312 198.283 303.787 197.661 304.027 196.892C304.267 196.123 304.154 195.275 304.208 194.443C304.223 194.023 304.319 193.611 304.492 193.228C304.669 192.841 304.914 192.479 305.105 192.072C305.439 191.218 305.629 190.314 305.668 189.398C305.722 188.938 305.776 188.472 305.825 188.002C305.857 187.528 305.939 187.059 306.07 186.601C306.215 186.14 306.39 185.688 306.594 185.25C306.696 185.019 306.781 184.782 306.849 184.54C306.888 184.285 306.902 184.05 306.917 183.79C306.942 183.285 306.922 182.779 306.858 182.277C306.8 181.787 306.707 181.268 306.653 180.763V180.675V180.577L306.564 180.621C306.101 180.853 305.697 181.188 305.384 181.601C305.082 182.008 304.839 182.457 304.664 182.933C304.349 183.865 304.121 184.824 303.983 185.798C303.843 186.727 303.537 187.622 303.082 188.443C302.842 188.83 302.553 189.188 302.298 189.565C302.026 189.936 301.84 190.362 301.754 190.814C301.627 191.739 302.136 192.552 302.028 193.37C301.981 193.774 301.846 194.161 301.632 194.507C301.431 194.854 301.201 195.178 300.975 195.486C300.749 195.803 300.554 196.141 300.392 196.495C300.236 196.841 300.145 197.213 300.123 197.592C300.069 198.327 300.172 199.027 300.123 199.688C300.063 200.317 299.88 200.928 299.584 201.486C299.319 202.025 299.026 202.51 298.781 202.955C298.658 203.183 298.546 203.417 298.447 203.656C298.36 203.878 298.296 204.11 298.256 204.346C298.196 204.76 298.196 205.181 298.256 205.595C298.316 206.173 298.533 206.724 298.883 207.187C298.939 207.254 298.998 207.318 299.06 207.378C299.105 207.423 299.154 207.464 299.207 207.5L299.329 207.589C299.175 207.463 299.034 207.322 298.908 207.167C298.568 206.705 298.361 206.157 298.31 205.585C298.262 205.176 298.272 204.762 298.34 204.356C298.383 204.125 298.449 203.899 298.536 203.68C298.635 203.446 298.746 203.217 298.869 202.994C299.114 202.505 299.413 202.044 299.682 201.501C299.986 200.934 300.176 200.313 300.24 199.674C300.299 198.998 300.196 198.293 300.24 197.573C300.264 197.207 300.354 196.848 300.505 196.515C300.666 196.171 300.86 195.842 301.083 195.535C301.303 195.212 301.539 194.889 301.744 194.531C301.968 194.173 302.11 193.77 302.161 193.351C302.268 192.474 301.764 191.656 301.891 190.799C301.978 190.367 302.158 189.959 302.42 189.604C302.665 189.232 302.959 188.879 303.204 188.477C303.672 187.645 303.984 186.733 304.125 185.788C304.266 184.823 304.492 183.873 304.801 182.948C304.974 182.484 305.212 182.047 305.506 181.65C305.803 181.25 306.189 180.924 306.633 180.7L306.535 180.641V180.729C306.589 181.243 306.682 181.743 306.741 182.242C306.799 182.73 306.817 183.221 306.795 183.712C306.789 183.956 306.767 184.2 306.731 184.442C306.668 184.676 306.586 184.906 306.486 185.127C306.28 185.571 306.104 186.027 305.957 186.494C305.826 186.957 305.744 187.433 305.712 187.914C305.658 188.404 305.604 188.854 305.555 189.315C305.517 190.216 305.332 191.104 305.007 191.945C304.825 192.342 304.581 192.709 304.394 193.111C304.217 193.507 304.119 193.935 304.105 194.369C304.056 195.212 304.164 196.04 303.939 196.784C303.713 197.528 303.233 198.151 302.993 198.856C302.797 199.542 302.78 200.267 302.944 200.962C303.09 201.578 303.115 202.217 303.018 202.843C302.828 203.372 302.555 203.868 302.21 204.312C302.072 204.535 301.98 204.783 301.94 205.042C301.91 205.279 301.894 205.518 301.891 205.757C301.892 205.972 301.86 206.187 301.798 206.394C301.725 206.572 301.609 206.73 301.46 206.854C301.203 207.063 300.914 207.229 300.603 207.344C300.376 207.429 300.141 207.491 299.902 207.53C299.756 207.56 299.606 207.575 299.457 207.574L299.285 207.652Z" fill="#263238"/>
<path d="M306.177 181.885C306.176 181.908 306.176 181.931 306.177 181.953L306.128 182.149C306.084 182.321 306.035 182.58 305.952 182.909C305.869 183.237 305.668 183.594 305.496 184.05C305.296 184.556 305.123 185.073 304.977 185.597C304.811 186.185 304.664 186.832 304.487 187.522C304.356 188.265 304.12 188.986 303.787 189.663C303.61 190.015 303.405 190.378 303.248 190.769C303.089 191.172 302.982 191.594 302.93 192.023C302.814 192.913 302.65 193.796 302.44 194.668C302.004 196.461 301.582 198.17 301.205 199.723C300.828 201.275 300.461 202.661 300.167 203.847C299.873 205.032 299.643 205.958 299.481 206.629C299.403 206.947 299.344 207.202 299.3 207.383L299.256 207.584C299.253 207.606 299.253 207.629 299.256 207.652C299.256 207.652 299.256 207.628 299.28 207.584L299.339 207.393C299.388 207.207 299.456 206.957 299.545 206.638C299.716 205.972 299.966 205.032 300.274 203.871C300.583 202.71 300.936 201.3 301.337 199.757C301.739 198.214 302.146 196.495 302.587 194.702C302.796 193.825 302.96 192.937 303.076 192.043C303.128 191.624 303.23 191.213 303.38 190.818C303.537 190.436 303.733 190.079 303.914 189.716C304.246 189.031 304.48 188.302 304.61 187.552C304.762 186.856 304.904 186.21 305.06 185.627C305.217 185.044 305.393 184.525 305.55 184.074C305.707 183.624 305.903 183.256 305.981 182.918C306.06 182.58 306.099 182.331 306.133 182.154L306.177 181.944C306.177 181.909 306.177 181.885 306.177 181.885Z" fill="#263238"/>
<path d="M299.672 207.657C301.103 206.81 301.509 204.229 300.916 202.681C300.324 201.133 299.275 199.713 299.114 198.057C298.991 196.784 299.408 195.481 299.114 194.237C298.717 192.562 297.081 191.264 297.096 189.54C297.096 188.561 297.659 187.659 297.615 186.695C297.561 185.509 296.635 184.569 296.086 183.526C295.224 181.924 295.17 180.038 294.872 178.246C294.573 176.453 293.892 174.533 292.305 173.652C292.074 175.175 291.673 176.218 291.815 178.275C291.864 179.02 292.721 180.435 292.839 182.056C292.907 183.036 292.956 184.015 293.015 184.966C293.027 185.914 293.182 186.855 293.475 187.757C293.735 188.433 294.151 189.05 294.343 189.746C294.705 191.063 294.23 192.489 294.524 193.821C294.769 194.947 295.552 195.917 295.709 197.063C295.935 198.67 294.896 200.34 295.425 201.873C295.69 202.637 296.317 203.249 296.493 204.033C296.635 204.645 296.493 205.287 296.606 205.899C296.807 206.878 298.692 207.652 299.697 207.593" fill="#E8505B"/>
<path d="M292.697 175.165C292.697 175.165 292.697 175.195 292.697 175.248L292.732 175.498C292.761 175.719 292.8 176.042 292.874 176.478C292.947 176.914 293.168 177.369 293.363 177.947C293.559 178.525 293.726 179.172 293.888 179.906C294.049 180.641 294.186 181.449 294.329 182.321C294.442 183.262 294.69 184.182 295.063 185.054C295.259 185.514 295.485 185.97 295.656 186.455C295.819 186.956 295.92 187.476 295.955 188.002C296.036 189.118 296.176 190.228 296.376 191.328C296.812 193.581 297.228 195.736 297.611 197.695C297.993 199.654 298.37 201.393 298.674 202.872C298.977 204.351 299.227 205.527 299.403 206.359C299.487 206.761 299.555 207.079 299.604 207.305L299.663 207.549L299.688 207.633C299.69 207.605 299.69 207.577 299.688 207.549L299.643 207.3C299.599 207.074 299.541 206.751 299.467 206.345C299.301 205.512 299.065 204.322 298.781 202.852C298.497 201.383 298.11 199.576 297.723 197.617C297.336 195.658 296.935 193.517 296.499 191.25C296.301 190.152 296.16 189.046 296.077 187.934C296.04 187.397 295.936 186.868 295.769 186.357C295.592 185.867 295.367 185.402 295.166 184.951C294.796 184.088 294.547 183.178 294.426 182.247C294.28 181.376 294.137 180.563 293.966 179.828C293.818 179.166 293.636 178.512 293.422 177.869C293.241 177.301 293.016 176.83 292.932 176.399C292.849 175.968 292.805 175.66 292.761 175.444C292.761 175.341 292.727 175.263 292.717 175.199C292.711 175.188 292.704 175.176 292.697 175.165Z" fill="#263238"/>
<path d="M257.956 143.021H40.4238V164.757H257.956V143.021Z" fill="#E8505B"/>
<g opacity="0.4">
<path d="M257.956 143.021H40.4238V164.757H257.956V143.021Z" fill="black"/>
</g>
<path d="M210.83 167.505H146.619V187.635H210.83V167.505Z" fill="#455A64"/>
<path d="M101.744 158.395V185.005H123.67L132.458 172.271H292.549V158.395H101.744Z" fill="#263238"/>
<path d="M100.377 74.1332C100.353 73.7053 100.162 73.3039 99.8453 73.0154C99.5284 72.7269 99.1108 72.5743 98.6825 72.5904C90.0169 72.9479 48.8785 74.8336 40.4187 78.8987C33.9427 82.0138 26.8496 93.6411 21.8481 101.473C18.2623 107.086 10.3413 119.546 8.73947 125.918C7.38256 131.305 6.5645 142.511 6.65757 148.07L8.92072 177.487H46.2039L49.9366 167.769C51.1278 164.674 53.2291 162.012 55.9637 160.135C58.6982 158.258 61.9375 157.253 65.2545 157.254H102.303V108.437L100.377 74.1332Z" fill="#BF4C26"/>
<path d="M35.9988 82.1558C30.8651 87.0536 25.7118 95.3799 21.8468 101.473C18.5256 106.669 11.4912 117.733 9.19374 124.404C9.14965 124.527 9.11536 124.644 9.07617 124.767C10.2126 124.453 11.9614 123.812 12.5052 122.734C13.3233 121.103 14.3715 115.515 27.3332 94.4199C31.2717 87.9891 35.1122 84.2275 35.9988 82.1558Z" fill="#455A64"/>
<path d="M81.2226 79.9763C71.69 80.5199 51.0228 81.9354 44.4195 84.1786C35.8176 87.1173 26.1625 109.887 25.7069 110.886L19.2016 127.539C19.1651 127.648 19.155 127.764 19.1722 127.877C19.1893 127.991 19.2332 128.099 19.3001 128.192C19.3671 128.285 19.4553 128.361 19.5574 128.414C19.6595 128.466 19.7726 128.494 19.8874 128.494H36.7043C37.3412 128.494 37.9731 128.381 38.5706 128.161L82.8 111.675C83.7766 111.31 84.6185 110.656 85.2129 109.8C85.8074 108.944 86.126 107.927 86.1261 106.885V84.6145C86.1265 83.9827 85.9978 83.3575 85.7481 82.7771C85.4983 82.1967 85.1328 81.6734 84.6737 81.2392C84.2147 80.805 83.6719 80.469 83.0785 80.2519C82.4851 80.0347 81.8536 79.9409 81.2226 79.9763Z" fill="#263238"/>
<path d="M21.0781 126.858C21.0781 126.858 27.3091 112.885 29.4057 108.305C32.5702 101.389 39.9622 87.2446 44.9539 85.7214C49.5438 84.3451 62.7406 82.67 81.3161 81.6072H81.4924C82.2902 81.6098 83.0545 81.9282 83.6181 82.4926C84.1817 83.0571 84.4989 83.8217 84.5002 84.6194V107.394C84.4984 107.955 84.326 108.503 84.0057 108.964C83.6855 109.425 83.2327 109.778 82.7073 109.975L50.0288 114.006C48.7189 114.168 47.4598 114.613 46.339 115.309C45.2181 116.006 44.2624 116.939 43.5382 118.042L37.8754 126.677C37.543 126.8 37.1913 126.863 36.8369 126.863L21.0781 126.858Z" fill="#455A64"/>
<path d="M48.8424 114.256L37.7324 126.628L43.8802 85.55L45.4183 85.021L42.391 115.451C42.3767 115.604 42.4019 115.758 42.4642 115.898C42.5264 116.038 42.6237 116.16 42.7466 116.252C42.8695 116.344 43.014 116.403 43.1661 116.423C43.3183 116.443 43.4731 116.424 43.6156 116.367L48.8424 114.256Z" fill="#263238"/>
<path d="M5.92719 150.926C5.888 150.392 6.06925 149.946 6.34357 149.946L12.3003 149.398C12.7901 149.349 13.2457 150.274 13.3045 151.357L13.5739 155.927C13.618 156.661 13.3975 157.283 13.084 157.337L7.00978 158.385C6.73546 158.434 6.47094 158.028 6.43175 157.489L5.92719 150.926Z" fill="#EBEBEB"/>
<path d="M48.8492 172.275H5.92773V189.481H48.8492V172.275Z" fill="#263238"/>
<path d="M77.5 207.453C90.4602 206.955 100.563 196.047 100.065 183.088C99.5671 170.13 88.6572 160.029 75.697 160.527C62.7368 161.025 52.6341 171.933 53.132 184.891C53.6298 197.849 64.5398 207.95 77.5 207.453Z" fill="#263238"/>
<path d="M53.129 183.584C53.1316 183.606 53.1316 183.627 53.129 183.648C53.0469 189.87 55.4382 195.87 59.7777 200.33C64.1172 204.791 70.05 207.346 76.2728 207.436C82.4956 207.525 88.4995 205.141 92.9656 200.808C97.4317 196.474 99.9948 190.546 100.092 184.324C100.092 184.324 100.092 184.285 100.092 184.265L53.129 183.584Z" fill="#263238"/>
<path d="M60.1209 183.746C60.0728 187.007 60.9929 190.208 62.7648 192.946C64.5367 195.684 67.0807 197.834 70.0753 199.126C73.0698 200.418 76.3803 200.793 79.588 200.204C82.7957 199.614 85.7565 198.087 88.096 195.815C90.4356 193.543 92.0486 190.629 92.7312 187.44C93.4139 184.251 93.1354 180.932 91.931 177.901C90.7266 174.871 88.6505 172.266 85.9651 170.415C83.2797 168.565 80.1058 167.552 76.8447 167.505C72.4732 167.442 68.2557 169.118 65.1196 172.163C61.9834 175.209 60.1854 179.375 60.1209 183.746Z" fill="#FAFAFA"/>
<path d="M76.8449 167.505C72.4734 167.442 68.2558 169.118 65.1197 172.163C61.9836 175.209 60.1856 179.375 60.1211 183.746L93.0935 184.236C93.1576 179.863 91.4818 175.644 88.4346 172.506C85.3875 169.368 81.2185 167.569 76.8449 167.505Z" fill="#E0E0E0"/>
<path d="M66.5675 183.839C66.5386 185.825 67.0994 187.775 68.1788 189.442C69.2583 191.109 70.8079 192.418 72.6318 193.205C74.4557 193.991 76.4719 194.219 78.4253 193.86C80.3788 193.501 82.1819 192.57 83.6064 191.186C85.031 189.802 86.0131 188.027 86.4285 186.085C86.844 184.143 86.6741 182.121 85.9403 180.276C85.2066 178.43 83.9419 176.844 82.3063 175.717C80.6708 174.59 78.7377 173.974 76.7516 173.946C74.0891 173.908 71.5204 174.929 69.6106 176.784C67.7008 178.639 66.6062 181.177 66.5675 183.839Z" fill="#263238"/>
<path d="M31.0627 94.8901H29.1474C26.9884 94.8901 25.2383 96.6399 25.2383 98.7985V114.339C25.2383 116.498 26.9884 118.248 29.1474 118.248H31.0627C33.2216 118.248 34.9718 116.498 34.9718 114.339V98.7985C34.9718 96.6399 33.2216 94.8901 31.0627 94.8901Z" fill="#263238"/>
<path d="M21.2067 132.686H20.7168V107.987C20.7181 106.809 21.1866 105.68 22.0196 104.847C22.8525 104.014 23.9819 103.546 25.1598 103.544H26.3355V104.034H25.1598C24.1118 104.036 23.107 104.452 22.3659 105.193C21.6249 105.934 21.208 106.939 21.2067 107.987V132.686Z" fill="#263238"/>
<path d="M24.543 132.716L23.1812 109.623C23.162 109.228 23.2228 108.833 23.3597 108.462C23.4967 108.092 23.7071 107.752 23.9783 107.465C24.2495 107.177 24.5759 106.947 24.9381 106.788C25.3003 106.63 25.6907 106.546 26.086 106.542V107.032C25.7564 107.032 25.4302 107.099 25.1275 107.23C24.8248 107.361 24.552 107.552 24.3259 107.792C24.0997 108.031 23.925 108.315 23.8124 108.625C23.6998 108.935 23.6517 109.264 23.671 109.593L25.0328 132.691L24.543 132.716Z" fill="#263238"/>
<path d="M26.0857 130.463H19.4824V138.108H26.0857V130.463Z" fill="#263238"/>
<path d="M23.6454 115.951H20.9609V116.44H23.6454V115.951Z" fill="#263238"/>
<path d="M46.0605 80.6375L46.6434 80.5591L48.3628 80.3583L55.0249 79.5893L79.8608 76.7633C81.1834 76.6213 82.5305 76.4449 83.9266 76.3225C84.6398 76.2681 85.3571 76.3143 86.0575 76.4596C86.7696 76.6261 87.4565 76.8864 88.1002 77.2335C89.428 77.9723 90.5044 79.0912 91.1912 80.4465C91.5465 81.1392 91.7864 81.8853 91.9015 82.6554C91.9631 83.0443 91.9975 83.4371 92.0044 83.8308V85.0112C92.0044 91.3343 92.0044 98.1226 92.0044 105.318C92.0044 119.707 92.0044 135.713 92.0044 152.826V152.954H66.2035C64.7306 152.905 63.2563 152.976 61.7948 153.164C58.7799 153.598 55.9355 154.828 53.5553 156.729C51.1751 158.629 49.3454 161.13 48.2551 163.974C48.0434 164.496 47.8651 165.031 47.7211 165.575C47.5619 166.114 47.4359 166.662 47.3439 167.216L47.2166 168.049L47.1578 168.465L47.1333 168.881L47.0941 169.719V170.14V170.189C47.2019 170.081 46.9422 170.355 46.9618 170.326H14.2441V170.189C14.2441 162.808 14.2441 155.691 14.2441 148.893C14.2441 145.494 14.2441 142.175 14.2441 138.936V134.146C14.2441 133.357 14.2441 132.579 14.2441 131.8C14.2601 131.025 14.3157 130.252 14.4107 129.483C14.7843 126.52 15.7256 123.656 17.1833 121.049C18.532 118.512 19.8383 116.063 21.1022 113.703L28.0484 100.689L33.6866 90.1245C34.0981 89.3572 34.4933 88.6144 34.8721 87.896C35.0681 87.5434 35.2395 87.1858 35.4452 86.8528C35.6481 86.5273 35.8689 86.2134 36.1066 85.9124C36.9561 84.8532 37.9562 83.9242 39.0751 83.1549C40.6161 82.109 42.3389 81.3598 44.1549 80.946C44.7784 80.7965 45.412 80.6934 46.0507 80.6375L45.5608 80.7109C45.2424 80.7599 44.7722 80.8432 44.1549 80.9852C42.3496 81.4119 40.639 82.1692 39.1094 83.2186C37.9999 83.9889 37.0096 84.918 36.1702 85.9761C35.9331 86.2718 35.7154 86.5826 35.5187 86.9067C35.3179 87.2299 35.1464 87.5923 34.9505 87.9499L33.7699 90.1833L28.1806 100.758C26.084 104.705 23.7719 109.059 21.2736 113.781L17.3547 121.128C15.9106 123.715 14.9807 126.557 14.6164 129.498C14.5231 130.26 14.4691 131.027 14.4548 131.795C14.4548 132.564 14.4548 133.353 14.4548 134.136V138.926C14.4548 142.162 14.4548 145.481 14.4548 148.883C14.4548 155.682 14.4548 162.798 14.4548 170.179L14.3323 170.062H46.9226C46.9569 170.037 46.6875 170.297 46.8002 170.179V170.125V169.704L46.8443 168.852V168.431L46.9079 168.009L47.0353 167.162C47.1284 166.6 47.256 166.044 47.4174 165.497C47.5639 164.944 47.7456 164.401 47.9611 163.871C49.0689 160.986 50.9261 158.448 53.3413 156.52C55.7566 154.591 58.6425 153.342 61.7017 152.9C63.1634 152.714 64.6376 152.643 66.1104 152.689H91.7937L91.6664 152.812C91.6664 135.718 91.6664 119.712 91.6664 105.303C91.6664 98.1079 91.6664 91.3196 91.6664 84.9965C91.6983 84.2196 91.6655 83.4415 91.5684 82.6701C91.4569 81.9174 91.2237 81.1878 90.8777 80.5101C90.2127 79.1853 89.1625 78.0926 87.8651 77.3755C87.2397 77.0332 86.5706 76.7778 85.8762 76.6164C85.1923 76.4721 84.4915 76.4242 83.7943 76.4743C82.408 76.5919 81.0511 76.7682 79.7334 76.9102L54.9024 79.6579L48.2355 80.3877L46.5161 80.5689L46.0605 80.6375Z" fill="#263238"/>
<path d="M84.1878 134.768C84.1878 134.768 84.325 134.768 84.5699 134.709C84.93 134.645 85.2734 134.509 85.579 134.308C86.0609 133.992 86.4217 133.522 86.6028 132.975C86.7135 132.634 86.7584 132.275 86.7351 131.917C86.7245 131.521 86.6222 131.132 86.4363 130.781C86.2231 130.38 85.9061 130.043 85.5183 129.806C85.1306 129.569 84.6863 129.441 84.2319 129.434H80.9988H73.5922C72.9755 129.435 72.3806 129.663 71.9209 130.074C71.4611 130.485 71.1685 131.05 71.0988 131.663C71.0218 132.244 71.1298 132.836 71.4074 133.353C71.6827 133.842 72.1138 134.224 72.632 134.44C73.1444 134.618 73.6888 134.685 74.229 134.636H75.7965H78.6132L82.6937 134.675H83.8057C83.9337 134.672 84.0617 134.682 84.1878 134.704C84.061 134.72 83.9334 134.728 83.8057 134.729H82.6937L78.6132 134.768H75.7965H74.229C73.9546 134.768 73.6901 134.768 73.4011 134.768C73.1071 134.746 72.8182 134.68 72.5439 134.572C71.9772 134.337 71.505 133.92 71.2016 133.387C70.8974 132.826 70.7775 132.183 70.8587 131.55C70.9345 130.878 71.2548 130.257 71.7589 129.805C72.2629 129.354 72.9154 129.103 73.5922 129.101H80.9988H84.2319C84.9385 129.115 85.6119 129.404 86.1094 129.906C86.6068 130.408 86.8892 131.084 86.8967 131.79C86.9123 132.164 86.8575 132.538 86.7351 132.892C86.5336 133.461 86.145 133.944 85.6329 134.264C85.3133 134.462 84.9536 134.588 84.5797 134.631C84.4552 134.692 84.3235 134.738 84.1878 134.768Z" fill="#263238"/>
<path d="M83.2917 128.616C81.8959 128.739 80.4942 128.78 79.0936 128.739C77.6914 128.78 76.288 128.739 74.8906 128.616C76.2878 128.49 77.6913 128.448 79.0936 128.489C80.4943 128.448 81.8961 128.49 83.2917 128.616Z" fill="white"/>
<path d="M50.7978 189.623L46.8789 189.339C47.9027 175.307 49.4017 166.912 51.464 163.675C55.422 157.455 59.3556 156.328 63.7105 155.589C67.7665 154.898 71.8568 155.06 75.8149 155.221L76.7946 155.26C84.9655 155.579 102.081 155.295 102.267 155.295L102.331 159.213C102.16 159.213 84.9361 159.502 76.6574 159.179L75.6777 159.139C71.9205 158.993 68.0408 158.831 64.3865 159.458C60.4921 160.119 57.9007 160.878 54.7754 165.786C53.83 167.25 52.0567 172.339 50.7978 189.623Z" fill="#263238"/>
<path d="M297.354 29.7787H104.359V158.258H297.354V29.7787Z" fill="#BF4C26"/>
<path d="M295.038 155.716C295.038 154.888 294.998 107.766 294.935 32.6831L295.038 32.781L106.442 32.8104L106.569 32.6831C106.569 76.4156 106.569 118.042 106.569 155.716L106.452 155.598L295.047 155.716L106.452 155.833H106.314V155.716C106.314 118.042 106.314 76.4156 106.314 32.6831V32.5606H106.457L295.052 32.5851H295.155V32.688C295.077 107.766 295.038 154.893 295.038 155.716Z" fill="#263238"/>
<g opacity="0.5">
<path d="M131.717 93.7006L133.544 130.449L276.671 100.68L274.143 62.3742L131.717 93.7006Z" fill="black"/>
</g>
<path d="M142.562 119.15L143.542 115.721C145.458 116.546 147.584 116.748 149.621 116.299C151.811 115.809 153.05 114.771 152.761 113.512C152.169 110.755 143.944 114.066 142.754 108.57C141.994 105.024 144.605 102.066 149.386 101.042C151.703 100.553 153.957 100.602 155.666 101.238L154.809 104.603C153.222 104.006 151.494 103.892 149.842 104.275C147.525 104.765 146.359 105.95 146.623 107.184C147.211 110.02 155.465 106.694 156.607 111.999C157.371 115.574 154.711 118.542 149.905 119.571C147.103 120.178 144.262 119.909 142.562 119.15Z" fill="white"/>
<path d="M175.129 95.8115L175.379 113.796L171.387 114.653L171.284 107.331L163.47 109.006L163.578 116.353L159.556 117.19L159.307 99.2008L163.323 98.3388L163.421 105.406L171.235 103.731L171.137 96.6638L175.129 95.8115Z" fill="white"/>
<path d="M179.213 94.9348L183.22 94.0728L183.47 112.058L179.453 112.92L179.213 94.9348Z" fill="white"/>
<path d="M202.179 95.6401C203.119 100.024 200.479 103.477 195.321 104.559L191.475 105.382L191.549 110.334L187.532 111.196L187.297 93.1912L194.272 91.7219C198.583 90.7766 201.454 92.2508 202.179 95.6401ZM198.211 96.8499C197.853 95.1748 196.501 94.641 194.478 95.0769L191.348 95.7479L191.426 101.993L194.802 101.268C197.427 100.69 198.701 99.1274 198.211 96.8352V96.8499Z" fill="white"/>
<path d="M219.961 91.8051C220.902 96.2132 218.261 99.6416 213.103 100.724L209.263 101.552L209.346 106.503L205.329 107.365L205.074 89.3807L212.05 87.882C216.375 86.9563 219.246 88.4306 219.961 91.8051ZM215.993 93.0198C215.636 91.3398 214.279 90.806 212.26 91.2419L209.13 91.9129L209.209 98.1625L212.584 97.4376C215.229 96.8695 216.493 95.3071 216.003 93.0198H215.993Z" fill="white"/>
<path d="M222.898 85.5604L226.915 84.6984L227.17 102.688L223.153 103.55L222.898 85.5604Z" fill="white"/>
<path d="M246.784 80.4569L247.039 98.4417L243.757 99.147L235.013 89.7138L235.16 100.979L231.241 101.826L230.986 83.8364L234.288 83.1262L243.042 92.5643L242.865 81.2993L246.784 80.4569Z" fill="white"/>
<path d="M262.672 85.7612L266.321 84.9776L266.414 92.3782C264.796 94.1823 262.638 95.4142 260.262 95.8899C255.035 97.0115 251.082 94.6899 250.126 90.2329C248.863 84.3556 252.218 78.968 258.748 77.5574C262.05 76.8472 264.69 77.386 266.586 79.0268L264.225 81.9654C262.755 80.8341 261.227 80.599 259.326 81.0104C255.285 81.8773 253.32 85.34 254.133 89.1358C254.687 91.7219 256.789 93.1031 260.066 92.3978C261.055 92.1957 261.987 91.7757 262.794 91.1684L262.672 85.7612Z" fill="white"/>
<path d="M251.174 60.7L280.061 53.9361L278.924 50.8652L251.174 60.7Z" fill="#FAFAFA"/>
<path d="M121.832 86.314L141.911 81.6121L141.118 79.4767L121.832 86.314Z" fill="#FAFAFA"/>
<path d="M190.588 134.699L219.48 127.931L218.338 124.86L190.588 134.699Z" fill="#FAFAFA"/>
<path d="M160.037 93.5726C160.037 93.6412 153.424 95.0419 145.233 96.6876C137.043 98.3332 130.396 99.6263 130.381 99.5577C130.366 99.4891 136.994 98.0884 145.184 96.4378C153.375 94.7872 160.022 93.504 160.037 93.5726Z" fill="#FAFAFA"/>
<path d="M160.296 90.6682C160.273 90.5835 160.263 90.4961 160.266 90.4086C160.266 90.2078 160.266 89.9629 160.242 89.669C160.242 88.9882 160.242 88.0674 160.202 86.9458C160.202 84.6096 160.163 81.4505 160.144 77.9584C160.124 74.4662 160.075 71.3022 160.051 68.9709C160.051 67.8493 160.021 66.9285 160.011 66.2477V65.5032C159.999 65.4188 159.999 65.333 160.011 65.2486C160.034 65.3316 160.046 65.4172 160.046 65.5032C160.046 65.7041 160.075 65.9441 160.095 66.2428C160.134 66.8844 160.173 67.815 160.212 68.966C160.296 71.2631 160.359 74.4417 160.384 77.9535C160.408 81.4652 160.384 84.6439 160.384 86.9409C160.384 88.0674 160.354 88.9882 160.345 89.669C160.345 89.9629 160.345 90.2078 160.32 90.4086C160.319 90.4957 160.311 90.5825 160.296 90.6682Z" fill="#FAFAFA"/>
<path d="M76.9223 90.6192C76.9223 90.6192 76.8635 90.678 76.741 90.771L76.2022 91.1579C75.7123 91.4959 75.0412 91.9661 74.1889 92.5489C72.4793 93.7048 70.0985 95.2819 67.4435 96.9814C64.7885 98.681 62.3637 100.185 60.5855 101.257C59.7037 101.791 58.9836 102.237 58.484 102.511L57.9059 102.834C57.8401 102.877 57.7694 102.911 57.6953 102.937C57.6953 102.937 57.7541 102.878 57.8766 102.795L58.4301 102.423L60.4924 101.105L67.2966 96.7659L74.0762 92.3971L76.1385 91.0796L76.7067 90.7269C76.7745 90.6834 76.8468 90.6472 76.9223 90.6192Z" fill="#FAFAFA"/>
<path d="M68.5512 92.833C68.5512 92.833 68.4924 92.8918 68.3699 92.9848L67.8311 93.3718C67.3412 93.7048 66.6701 94.1799 65.8129 94.7578C64.1033 95.9186 61.7225 97.4908 59.0724 99.1659C56.4223 100.841 53.9926 102.374 52.2144 103.447C51.3326 103.98 50.6125 104.426 50.1129 104.695L49.5349 105.024C49.4701 105.067 49.3991 105.1 49.3242 105.122C49.3791 105.068 49.4399 105.02 49.5055 104.98L50.059 104.612L52.1164 103.29L58.9255 98.9552L65.7051 94.5864L67.7674 93.264L68.3308 92.9163C68.4002 92.8789 68.4744 92.8509 68.5512 92.833Z" fill="#FAFAFA"/>
<path d="M27.3098 107.091C27.2347 106.957 27.1834 106.811 27.158 106.66C27.0796 106.38 26.9718 105.969 26.8493 105.46C26.5273 104.128 26.3629 102.764 26.3595 101.394C26.3525 100.011 26.6714 98.645 27.2902 97.4075C27.4838 97.0373 27.717 96.6891 27.9858 96.3692C28.0765 96.247 28.1855 96.1396 28.3091 96.0509C27.9964 96.5152 27.7086 96.9959 27.447 97.4908C26.8887 98.7213 26.603 100.058 26.6093 101.409C26.6242 102.762 26.7702 104.11 27.0453 105.435C27.1678 105.981 27.2561 106.534 27.3098 107.091Z" fill="#FAFAFA"/>
<path d="M7.3629 141.816C7.34518 141.642 7.34518 141.466 7.3629 141.292C7.3629 140.939 7.3629 140.43 7.39229 139.823C7.43148 138.564 7.52455 136.825 7.67641 134.925C7.82826 133.024 8.00951 131.281 8.16626 130.027C8.24464 129.4 8.31322 128.896 8.36711 128.558C8.38555 128.376 8.42332 128.197 8.47977 128.024C8.50439 128.206 8.50439 128.39 8.47977 128.572L8.35241 130.042C8.24464 131.354 8.09768 133.054 7.93603 134.939C7.77438 136.825 7.67641 138.52 7.58333 139.837C7.53925 140.425 7.50006 140.92 7.47067 141.307C7.45575 141.48 7.41956 141.651 7.3629 141.816Z" fill="#FAFAFA"/>
<path d="M61.0457 151.323C61.0457 151.376 60.1003 151.509 58.6356 151.984C57.7783 152.262 56.9418 152.601 56.1324 152.998C54.1493 153.982 52.3551 155.309 50.8321 156.916C50.2102 157.568 49.6356 158.264 49.1127 158.997C48.2261 160.256 47.8097 161.123 47.7656 161.099C47.8384 160.885 47.9303 160.679 48.0399 160.481C48.1495 160.242 48.2739 160.01 48.4122 159.786C48.569 159.522 48.7404 159.213 48.9658 158.895C49.4729 158.137 50.0397 157.422 50.6607 156.754C51.4304 155.939 52.2678 155.19 53.1639 154.516C54.0683 153.86 55.0289 153.284 56.0344 152.797C56.8559 152.402 57.7077 152.075 58.5817 151.817C58.9491 151.695 59.2969 151.626 59.5957 151.553C59.8527 151.49 60.1126 151.441 60.3746 151.406C60.5951 151.357 60.8199 151.329 61.0457 151.323Z" fill="#FAFAFA"/>
<path d="M109.287 121.755C109.281 121.684 109.281 121.614 109.287 121.544C109.287 121.394 109.287 121.188 109.287 120.927C109.287 120.368 109.287 119.57 109.253 118.551C109.223 116.475 109.184 113.492 109.13 109.814C108.998 102.423 108.817 92.2404 108.616 80.9901C108.415 69.7399 108.244 59.5377 108.175 52.1616C108.141 48.4736 108.131 45.4859 108.136 43.4239C108.136 42.4003 108.136 41.602 108.136 41.0485V40.4314C108.136 40.2893 108.136 40.2208 108.136 40.2208C108.143 40.2908 108.143 40.3613 108.136 40.4314C108.136 40.5783 108.136 40.784 108.136 41.0485C108.136 41.602 108.136 42.4003 108.17 43.4239C108.2 45.5006 108.239 48.4785 108.293 52.1567C108.425 59.5475 108.606 69.7301 108.807 80.9852C109.008 92.2404 109.184 102.433 109.248 109.809C109.282 113.502 109.297 116.485 109.292 118.546C109.292 119.57 109.292 120.368 109.292 120.927C109.292 121.186 109.292 121.392 109.292 121.544C109.295 121.614 109.293 121.684 109.287 121.755Z" fill="#FAFAFA"/>
<path d="M251.018 207.425C263.977 206.907 274.063 195.983 273.544 183.026C273.026 170.068 262.1 159.984 249.141 160.502C236.181 161.021 226.096 171.945 226.614 184.902C227.132 197.859 238.058 207.943 251.018 207.425Z" fill="#263238"/>
<path d="M226.588 183.584C226.588 183.584 226.588 183.629 226.588 183.648C226.499 189.874 228.886 195.881 233.226 200.347C237.566 204.812 243.502 207.372 249.729 207.461C255.956 207.551 261.964 205.164 266.43 200.825C270.897 196.485 273.457 190.55 273.546 184.324V184.265L226.588 183.584Z" fill="#263238"/>
<path d="M233.578 183.746C233.531 187.005 234.451 190.205 236.223 192.941C237.995 195.677 240.538 197.827 243.532 199.118C246.525 200.409 249.834 200.783 253.04 200.194C256.247 199.604 259.206 198.078 261.545 195.807C263.883 193.536 265.496 190.622 266.178 187.435C266.861 184.248 266.583 180.93 265.38 177.9C264.176 174.871 262.101 172.267 259.417 170.416C256.734 168.566 253.561 167.553 250.302 167.505C245.93 167.442 241.713 169.118 238.577 172.163C235.44 175.209 233.642 179.375 233.578 183.746Z" fill="#FAFAFA"/>
<path d="M250.302 167.505C248.137 167.473 245.987 167.868 243.975 168.667C241.963 169.466 240.128 170.654 238.575 172.162C237.022 173.67 235.782 175.469 234.924 177.457C234.067 179.445 233.609 181.582 233.578 183.746L266.546 184.236C266.579 182.071 266.185 179.92 265.386 177.907C264.587 175.894 263.4 174.059 261.891 172.505C260.383 170.951 258.583 169.71 256.594 168.852C254.606 167.994 252.468 167.536 250.302 167.505Z" fill="#E0E0E0"/>
<path d="M240.044 183.839C240.015 185.825 240.576 187.775 241.655 189.442C242.735 191.109 244.284 192.418 246.108 193.205C247.932 193.991 249.948 194.219 251.902 193.86C253.855 193.501 255.658 192.57 257.083 191.186C258.508 189.802 259.49 188.027 259.905 186.085C260.321 184.143 260.151 182.121 259.417 180.276C258.683 178.431 257.418 176.844 255.783 175.717C254.147 174.59 252.214 173.974 250.228 173.946C247.566 173.908 244.997 174.929 243.087 176.784C241.177 178.639 240.083 181.177 240.044 183.839Z" fill="#263238"/>
<path d="M219.197 190.417C219.197 190.417 215.621 157.112 250.137 157.112C281.977 157.112 281.272 185.754 280.968 190.187H275.977C275.977 190.187 278.519 161.956 250.137 161.956C221.754 161.956 224.223 190.76 224.223 190.76C224.223 190.76 222.127 190.657 219.197 190.417Z" fill="#455A64"/>
<path d="M237.685 160.56C237.599 160.604 237.509 160.637 237.415 160.658C237.234 160.722 236.964 160.785 236.631 160.903C235.674 161.207 234.736 161.572 233.824 161.995C230.807 163.379 228.134 165.414 225.998 167.955C223.861 170.496 222.315 173.478 221.47 176.688C221.212 177.655 221.014 178.636 220.877 179.627C220.824 179.98 220.804 180.254 220.775 180.44C220.766 180.536 220.75 180.631 220.726 180.724C220.714 180.63 220.714 180.534 220.726 180.44C220.726 180.249 220.726 179.95 220.784 179.617C220.882 178.61 221.055 177.611 221.304 176.63C222.107 173.371 223.647 170.339 225.806 167.769C227.964 165.199 230.684 163.158 233.756 161.804C234.68 161.392 235.633 161.048 236.607 160.775C236.95 160.677 237.224 160.624 237.405 160.579C237.497 160.563 237.591 160.556 237.685 160.56Z" fill="#FAFAFA"/>
<path d="M322.463 194.453L326.636 200.732L328.513 206.648C328.544 206.75 328.596 206.844 328.665 206.924C328.734 207.005 328.819 207.07 328.915 207.116C329.011 207.162 329.115 207.188 329.221 207.192C329.327 207.195 329.433 207.177 329.532 207.138C329.651 207.098 329.758 207.028 329.844 206.936C329.929 206.843 329.99 206.731 330.021 206.609C330.404 205.061 331.78 199.36 331.452 198.915C331.124 198.469 327.484 192.004 327.484 192.004L322.463 194.453Z" fill="#455A64"/>
<g opacity="0.6">
<path d="M329.531 207.133L331.158 198.484L331.329 198.753C331.478 198.985 331.539 199.263 331.5 199.537C331.398 200.266 331.065 202.279 330.031 206.589C330.001 206.714 329.941 206.829 329.855 206.924C329.77 207.019 329.662 207.091 329.541 207.133H329.531Z" fill="white"/>
</g>
<g opacity="0.6">
<path d="M328.546 197.254C328.509 197.361 328.511 197.478 328.55 197.584C328.589 197.69 328.664 197.78 328.762 197.837C328.868 197.883 328.987 197.887 329.095 197.848C329.204 197.809 329.293 197.729 329.345 197.626C329.39 197.513 329.391 197.386 329.347 197.272C329.304 197.158 329.219 197.064 329.11 197.009C328.995 196.972 328.87 196.981 328.762 197.035C328.653 197.089 328.571 197.184 328.532 197.298" fill="white"/>
</g>
<path d="M329.222 203.43C328.944 203.325 328.648 203.277 328.35 203.288C328.058 203.343 327.779 203.453 327.527 203.612C327.527 203.612 327.562 203.499 327.699 203.381C327.882 203.235 328.103 203.145 328.336 203.122C328.568 203.094 328.803 203.137 329.012 203.244C329.168 203.327 329.237 203.416 329.222 203.43Z" fill="#263238"/>
<path d="M329.312 204.572C329.063 204.581 328.816 204.609 328.572 204.655C328.341 204.742 328.116 204.847 327.901 204.968C327.862 204.944 328.082 204.616 328.528 204.478C328.656 204.43 328.795 204.413 328.931 204.429C329.068 204.445 329.198 204.494 329.312 204.572Z" fill="#263238"/>
<path d="M329.38 201.799C328.996 201.788 328.611 201.806 328.229 201.853C327.859 201.95 327.497 202.076 327.146 202.23C327.421 201.929 327.795 201.738 328.2 201.692C328.594 201.589 329.011 201.627 329.38 201.799Z" fill="#263238"/>
<path d="M328.268 199.786C328.268 199.835 327.827 199.909 327.362 200.183C326.897 200.457 326.598 200.795 326.559 200.766C326.707 200.448 326.962 200.192 327.279 200.041C327.567 199.841 327.919 199.75 328.268 199.786Z" fill="#263238"/>
<path d="M327.087 197.911C326.744 197.996 326.414 198.128 326.107 198.302C325.839 198.519 325.6 198.769 325.396 199.047C325.396 199.047 325.396 198.919 325.49 198.738C325.618 198.509 325.797 198.313 326.014 198.165C326.231 198.017 326.479 197.922 326.739 197.886C326.964 197.866 327.087 197.891 327.087 197.911Z" fill="#263238"/>
<path d="M325.916 197.94C325.849 197.872 325.796 197.792 325.759 197.705C325.638 197.471 325.566 197.214 325.549 196.951C325.519 196.761 325.552 196.567 325.642 196.397C325.677 196.344 325.728 196.302 325.787 196.279C325.847 196.255 325.912 196.25 325.975 196.265C326.093 196.304 326.194 196.384 326.259 196.49C326.38 196.714 326.419 196.972 326.37 197.222C326.321 197.471 326.186 197.696 325.989 197.857C325.792 198.011 325.552 198.103 325.302 198.121C325.052 198.14 324.802 198.083 324.584 197.96C324.529 197.93 324.481 197.888 324.445 197.837C324.408 197.786 324.384 197.727 324.373 197.666C324.366 197.602 324.38 197.537 324.412 197.481C324.445 197.426 324.495 197.382 324.554 197.357C324.733 197.292 324.925 197.275 325.113 197.308C325.373 197.337 325.627 197.412 325.862 197.529C325.95 197.566 326.029 197.619 326.097 197.685C325.785 197.553 325.455 197.465 325.118 197.426C324.952 197.403 324.784 197.422 324.628 197.48C324.595 197.492 324.567 197.515 324.548 197.545C324.53 197.576 324.521 197.611 324.525 197.646C324.536 197.686 324.555 197.723 324.582 197.755C324.608 197.787 324.64 197.813 324.677 197.832C324.869 197.933 325.085 197.977 325.302 197.959C325.518 197.941 325.724 197.861 325.896 197.729C326.057 197.59 326.169 197.401 326.213 197.192C326.257 196.984 326.232 196.767 326.141 196.573C326.1 196.497 326.032 196.438 325.95 196.407C325.916 196.398 325.88 196.399 325.846 196.412C325.813 196.424 325.784 196.446 325.764 196.475C325.681 196.624 325.65 196.797 325.676 196.965C325.703 197.301 325.784 197.63 325.916 197.94Z" fill="#263238"/>
<path d="M318.495 198.043L318.006 204.346C318.006 204.346 324.261 206.487 324.286 207.662L312.039 207.633L312.382 197.783L318.495 198.043Z" fill="#455A64"/>
<g opacity="0.6">
<path d="M314.249 203.665C314.129 203.695 314.025 203.768 313.957 203.87C313.889 203.973 313.862 204.097 313.881 204.219C313.909 204.338 313.981 204.443 314.083 204.512C314.185 204.581 314.308 204.609 314.43 204.591C314.556 204.558 314.666 204.479 314.737 204.369C314.809 204.26 314.837 204.128 314.817 203.999C314.778 203.874 314.692 203.771 314.578 203.71C314.463 203.65 314.329 203.637 314.205 203.675" fill="white"/>
</g>
<g opacity="0.6">
<path d="M312.055 207.633L312.089 206.653L323.929 207.094C324.053 207.16 324.16 207.256 324.238 207.373C324.317 207.49 324.365 207.625 324.38 207.765L312.055 207.633Z" fill="white"/>
</g>
<path d="M318.216 204.292C318.216 204.351 317.913 204.366 317.609 204.547C317.305 204.728 317.119 204.973 317.09 204.949C317.06 204.924 317.139 204.576 317.506 204.366C317.873 204.155 318.231 204.239 318.216 204.292Z" fill="#263238"/>
<path d="M319.479 204.875C319.479 204.934 319.229 205.022 319.014 205.267C318.798 205.512 318.735 205.757 318.671 205.757C318.607 205.757 318.588 205.414 318.862 205.115C319.136 204.816 319.479 204.816 319.479 204.875Z" fill="#263238"/>
<path d="M320.151 206.433C320.098 206.433 320.024 206.139 320.191 205.816C320.357 205.492 320.641 205.375 320.68 205.429C320.72 205.483 320.524 205.649 320.391 205.918C320.259 206.188 320.21 206.433 320.151 206.433Z" fill="#263238"/>
<path d="M318.167 202.843C318.137 202.897 317.868 202.803 317.53 202.813C317.192 202.823 316.922 202.916 316.893 202.867C316.863 202.818 317.123 202.608 317.525 202.603C317.926 202.598 318.196 202.799 318.167 202.843Z" fill="#263238"/>
<g opacity="0.3">
<path d="M318.402 199.292L318.314 200.413L312.299 200.119L312.328 199.106L318.402 199.292Z" fill="black"/>
</g>
<path d="M318.241 201.569C318.038 201.617 317.826 201.608 317.628 201.545C317.408 201.494 317.194 201.419 316.991 201.319C316.872 201.262 316.757 201.195 316.649 201.119C316.58 201.078 316.519 201.027 316.467 200.967C316.433 200.921 316.414 200.865 316.414 200.808C316.414 200.75 316.433 200.694 316.467 200.648C316.5 200.608 316.541 200.576 316.587 200.553C316.634 200.531 316.685 200.52 316.737 200.521C316.813 200.525 316.889 200.538 316.962 200.56C317.092 200.599 317.218 200.648 317.339 200.707C317.543 200.81 317.73 200.944 317.893 201.104C318.167 201.378 318.255 201.594 318.231 201.594C318.206 201.594 318.074 201.422 317.795 201.192C317.629 201.061 317.448 200.951 317.256 200.864C317.145 200.811 317.028 200.77 316.908 200.741C316.781 200.702 316.673 200.697 316.634 200.741C316.595 200.786 316.634 200.771 316.634 200.81C316.669 200.855 316.713 200.893 316.761 200.923C316.864 200.994 316.97 201.059 317.08 201.119C317.266 201.221 317.461 201.306 317.663 201.373C317.859 201.426 318.052 201.491 318.241 201.569Z" fill="#263238"/>
<path d="M318.157 201.652C318.049 201.473 318 201.264 318.02 201.055C318.02 200.692 318.116 200.335 318.299 200.021C318.333 199.939 318.389 199.868 318.461 199.816C318.533 199.763 318.617 199.731 318.706 199.723C318.76 199.728 318.811 199.747 318.855 199.779C318.899 199.811 318.934 199.854 318.955 199.904C318.981 199.979 318.999 200.056 319.009 200.134C319.03 200.319 319.014 200.506 318.962 200.684C318.91 200.862 318.823 201.028 318.706 201.172C318.451 201.476 318.216 201.54 318.216 201.52C318.216 201.501 318.412 201.383 318.608 201.084C318.718 200.912 318.791 200.718 318.823 200.516C318.84 200.398 318.84 200.277 318.823 200.159C318.823 200.026 318.769 199.924 318.715 199.933C318.662 199.943 318.549 200.021 318.495 200.124C318.43 200.229 318.374 200.338 318.328 200.453C318.253 200.647 318.205 200.852 318.186 201.06C318.137 201.417 318.191 201.643 318.157 201.652Z" fill="#263238"/>
<path d="M322.973 146.19C322.973 146.19 325.222 150.799 325.81 154.085C325.976 155.016 319.373 202.26 319.373 202.26L311.564 201.966L315.224 158.003L313.921 149.187L322.973 146.19Z" fill="#263238"/>
<path d="M304.006 149.045C303.952 152.236 304.116 155.427 304.496 158.596C305.074 163.229 306.397 168.504 306.828 171.453C307.778 177.976 309.649 179.211 309.649 179.211L324.629 198.376L330.508 193.091L317.281 171.967C317.281 171.967 313.764 148.526 313.887 149.158C314.009 149.79 304.006 149.045 304.006 149.045Z" fill="#263238"/>
<path d="M309.963 179.495C310.005 179.565 310.053 179.632 310.105 179.696L310.531 180.244L312.104 182.272C313.431 184.001 315.239 186.371 317.242 188.992C319.246 191.612 321.068 193.992 322.42 195.687C323.091 196.534 323.645 197.215 324.037 197.68L324.487 198.209C324.538 198.274 324.593 198.335 324.654 198.391C324.614 198.319 324.566 198.251 324.512 198.19L324.086 197.636L322.513 195.613L317.374 188.889C315.376 186.259 313.549 183.888 312.197 182.198C311.526 181.346 310.972 180.67 310.585 180.205L310.129 179.671C310.08 179.607 310.024 179.548 309.963 179.495Z" fill="#455A64"/>
<path d="M308.293 152.635C308.284 152.898 308.212 153.155 308.082 153.385C307.558 154.541 306.596 155.443 305.408 155.892C305.169 156 304.91 156.055 304.648 156.054C305.435 155.721 306.167 155.27 306.819 154.717C307.415 154.103 307.912 153.401 308.293 152.635Z" fill="#455A64"/>
<path d="M324.458 149.961C324.1 150.124 323.703 150.181 323.313 150.123C322.924 150.066 322.559 149.897 322.264 149.638C322.298 149.574 322.754 149.785 323.351 149.868C323.949 149.951 324.444 149.892 324.458 149.961Z" fill="#455A64"/>
<path d="M316.028 156.475C316.053 156.578 316.071 156.683 316.082 156.789C316.111 157.014 316.146 157.313 316.195 157.69C316.283 158.498 316.41 159.649 316.572 161.05C316.876 163.93 317.292 167.907 317.772 172.481V172.427L319.942 175.895L327.481 188.027C328.426 189.57 329.196 190.823 329.739 191.72L330.327 192.719C330.403 192.833 330.467 192.954 330.518 193.081C330.432 192.974 330.353 192.861 330.283 192.743L329.636 191.764L327.31 188.115C325.35 185.005 322.671 180.739 319.707 176.027L317.542 172.555V172.525C317.101 167.965 316.709 163.969 316.43 161.084L316.126 157.714C316.097 157.337 316.072 157.038 316.058 156.808C316.034 156.699 316.024 156.587 316.028 156.475Z" fill="#455A64"/>
<path d="M313.749 115.304L318.422 116.803L318.775 126.711C318.775 126.711 321.302 138.353 321.851 139.823C322.495 141.583 322.972 143.4 323.276 145.249C323.276 145.249 322.375 151.822 315.806 152.596C309.237 153.37 303.124 149.599 303.124 149.599C303.124 149.599 300.934 139.803 298.926 131.016C297.015 122.656 298.568 117.67 298.568 117.67L305.764 115.084L313.749 115.304Z" fill="#455A64"/>
<path d="M317.226 120.82L312.932 121.339L313.065 122.443L317.359 121.923L317.226 120.82Z" fill="#FAFAFA"/>
<path d="M318.255 108.966C318.214 108.725 318.084 108.508 317.891 108.357C317.698 108.207 317.456 108.134 317.212 108.153C317.321 108.071 317.408 107.962 317.464 107.838C317.52 107.713 317.544 107.576 317.534 107.44C317.524 107.303 317.48 107.171 317.405 107.057C317.331 106.942 317.229 106.847 317.109 106.782C317.338 106.433 317.429 106.011 317.365 105.598C317.301 105.186 317.086 104.812 316.761 104.549L311.828 111.352C312.207 111.653 312.644 111.874 313.111 112.002C313.579 112.13 314.067 112.162 314.547 112.096C315.51 111.955 316.434 111.622 317.266 111.117C317.495 111.018 317.685 110.846 317.804 110.627C317.897 110.397 317.765 110.063 317.511 110.059C317.749 110.002 317.957 109.859 318.095 109.657C318.233 109.455 318.29 109.209 318.255 108.966Z" fill="#263238"/>
<path d="M306.004 105.249C305.912 105.227 305.815 105.233 305.727 105.267C305.639 105.301 305.563 105.361 305.51 105.44C305.456 105.518 305.428 105.61 305.429 105.705C305.43 105.799 305.459 105.892 305.514 105.969C305.367 105.949 305.217 105.969 305.08 106.028C304.944 106.086 304.826 106.18 304.738 106.3C304.651 106.42 304.598 106.561 304.584 106.709C304.571 106.857 304.597 107.006 304.661 107.139C304.314 107.12 303.97 107.214 303.682 107.409C303.536 107.508 303.421 107.647 303.352 107.81C303.283 107.972 303.261 108.151 303.29 108.325C303.331 108.493 303.435 108.638 303.582 108.729C303.728 108.821 303.905 108.851 304.074 108.815C303.987 108.965 303.946 109.138 303.955 109.311C303.964 109.485 304.022 109.653 304.123 109.794C304.176 109.86 304.243 109.913 304.319 109.951C304.395 109.988 304.478 110.009 304.563 110.011C304.647 110.013 304.731 109.997 304.809 109.964C304.887 109.931 304.957 109.881 305.014 109.819C304.92 109.946 304.872 110.1 304.876 110.258C304.881 110.416 304.938 110.568 305.039 110.689C305.14 110.811 305.279 110.895 305.433 110.928C305.588 110.961 305.749 110.941 305.891 110.872C305.852 111.029 305.864 111.194 305.925 111.344C305.986 111.494 306.093 111.621 306.23 111.707C306.368 111.793 306.529 111.833 306.69 111.822C306.852 111.811 307.006 111.749 307.13 111.645L306.004 105.249Z" fill="#263238"/>
<path d="M306.308 103.946L306.092 115.99C306.076 116.939 306.422 117.859 307.058 118.564C307.695 119.268 308.575 119.705 309.521 119.786C310.032 119.831 310.546 119.771 311.032 119.609C311.519 119.447 311.967 119.188 312.349 118.846C312.731 118.505 313.038 118.089 313.253 117.623C313.468 117.158 313.585 116.654 313.597 116.142C313.597 114.996 313.636 114.055 313.636 114.055C313.636 114.055 316.575 113.859 316.864 110.97C317.036 109.295 317.08 105.474 317.09 102.54C317.093 101.585 316.738 100.663 316.094 99.9573C315.449 99.2515 314.564 98.8135 313.612 98.73L311.863 98.5781C311.143 98.5559 310.426 98.6781 309.754 98.9377C309.082 99.1972 308.469 99.5887 307.952 100.089C307.434 100.59 307.021 101.189 306.739 101.851C306.457 102.514 306.31 103.226 306.308 103.946Z" fill="#FFBE9D"/>
<path d="M313.627 114.055C312.287 113.928 311.011 113.418 309.953 112.586C309.953 112.586 310.698 114.775 313.612 114.77L313.627 114.055Z" fill="#EB996E"/>
<path d="M316.271 105.484C316.217 105.533 315.923 105.273 315.477 105.234C315.032 105.195 314.689 105.391 314.645 105.332C314.6 105.273 314.684 105.21 314.836 105.122C315.038 105.004 315.273 104.952 315.507 104.975C315.739 104.996 315.959 105.09 316.134 105.244C316.261 105.357 316.3 105.46 316.271 105.484Z" fill="#263238"/>
<path d="M311.563 105.675C311.555 105.783 311.504 105.883 311.423 105.954C311.341 106.026 311.235 106.063 311.127 106.057C311.074 106.057 311.022 106.047 310.973 106.026C310.924 106.005 310.88 105.975 310.843 105.937C310.806 105.9 310.777 105.855 310.758 105.805C310.739 105.756 310.729 105.703 310.731 105.651C310.739 105.543 310.79 105.443 310.871 105.371C310.953 105.3 311.058 105.263 311.167 105.269C311.22 105.269 311.272 105.279 311.321 105.3C311.369 105.32 311.414 105.35 311.451 105.388C311.488 105.426 311.517 105.471 311.536 105.52C311.555 105.569 311.565 105.622 311.563 105.675Z" fill="#263238"/>
<path d="M315.873 106.067C315.864 106.175 315.814 106.275 315.732 106.346C315.651 106.418 315.545 106.454 315.437 106.449C315.384 106.448 315.332 106.436 315.284 106.415C315.236 106.393 315.192 106.363 315.156 106.324C315.119 106.286 315.091 106.241 315.072 106.192C315.053 106.143 315.044 106.09 315.045 106.037C315.053 105.929 315.103 105.828 315.184 105.757C315.266 105.685 315.373 105.649 315.481 105.655C315.534 105.655 315.587 105.666 315.636 105.687C315.685 105.708 315.729 105.739 315.765 105.777C315.802 105.816 315.83 105.861 315.849 105.911C315.867 105.961 315.876 106.014 315.873 106.067Z" fill="#263238"/>
<path d="M311.94 105.102C311.886 105.151 311.592 104.891 311.146 104.852C310.701 104.813 310.353 105.009 310.309 104.95C310.265 104.891 310.348 104.828 310.5 104.74C310.703 104.623 310.937 104.571 311.17 104.592C311.403 104.613 311.624 104.706 311.803 104.857C311.93 104.975 311.969 105.078 311.94 105.102Z" fill="#263238"/>
<path d="M313.262 108.545C313.508 108.492 313.76 108.469 314.011 108.477C314.129 108.477 314.237 108.477 314.261 108.388C314.283 108.272 314.267 108.152 314.217 108.046C314.134 107.757 314.046 107.463 313.957 107.149C313.709 106.389 313.524 105.609 313.404 104.818C313.71 105.556 313.957 106.318 314.143 107.095C314.227 107.414 314.31 107.713 314.388 107.997C314.44 108.142 314.44 108.301 314.388 108.447C314.368 108.486 314.34 108.519 314.305 108.546C314.27 108.572 314.23 108.59 314.188 108.599C314.122 108.606 314.057 108.606 313.992 108.599C313.747 108.612 313.502 108.593 313.262 108.545Z" fill="#263238"/>
<path d="M311.926 108.736C312 108.736 311.96 109.226 312.343 109.603C312.725 109.98 313.244 109.975 313.244 110.039C313.244 110.103 313.116 110.127 312.901 110.112C312.617 110.09 312.35 109.969 312.147 109.77C311.95 109.58 311.836 109.322 311.828 109.05C311.828 108.844 311.897 108.731 311.926 108.736Z" fill="#263238"/>
<path d="M312.185 103.662C312.126 103.78 311.695 103.662 311.161 103.701C310.627 103.74 310.181 103.824 310.137 103.701C310.093 103.579 310.196 103.54 310.377 103.437C310.616 103.311 310.881 103.244 311.151 103.241C311.421 103.233 311.69 103.289 311.935 103.402C312.116 103.505 312.204 103.608 312.185 103.662Z" fill="#263238"/>
<path d="M316.325 104.201C316.237 104.299 315.938 104.167 315.571 104.127C315.203 104.088 314.885 104.127 314.821 104.024C314.757 103.922 314.851 103.873 314.997 103.789C315.191 103.691 315.409 103.652 315.624 103.677C315.839 103.702 316.042 103.791 316.207 103.931C316.33 104.069 316.364 104.157 316.325 104.201Z" fill="#263238"/>
<path d="M307.091 106.204C307.042 106.18 305.131 105.44 305.038 107.428C304.945 109.417 306.944 109.118 306.954 109.059C306.963 109.001 307.091 106.204 307.091 106.204Z" fill="#FFBE9D"/>
<path d="M306.39 108.271C306.39 108.271 306.351 108.295 306.292 108.32C306.209 108.351 306.116 108.351 306.033 108.32C305.909 108.231 305.812 108.112 305.75 107.973C305.688 107.835 305.664 107.682 305.68 107.531C305.686 107.361 305.728 107.195 305.802 107.042C305.827 106.981 305.865 106.928 305.913 106.884C305.961 106.841 306.019 106.809 306.082 106.792C306.122 106.783 306.164 106.79 306.2 106.809C306.236 106.829 306.263 106.861 306.278 106.9C306.278 106.958 306.278 106.997 306.278 106.997C306.278 106.997 306.322 106.968 306.312 106.885C306.303 106.835 306.277 106.79 306.238 106.757C306.187 106.713 306.12 106.69 306.052 106.694C305.97 106.706 305.892 106.739 305.826 106.79C305.76 106.84 305.708 106.907 305.675 106.983C305.579 107.15 305.527 107.339 305.523 107.531C305.503 107.708 305.536 107.886 305.617 108.043C305.698 108.201 305.824 108.331 305.979 108.418C306.031 108.435 306.087 108.441 306.142 108.435C306.197 108.429 306.25 108.412 306.297 108.384C306.38 108.32 306.395 108.276 306.39 108.271Z" fill="#EB996E"/>
<path d="M305.994 106.028C306.183 106.031 306.368 106.087 306.529 106.188C306.689 106.289 306.819 106.431 306.905 106.601C307.008 106.895 307.008 107.218 307.111 107.512C307.213 107.806 307.483 108.09 307.792 108.041C307.897 108.019 307.995 107.969 308.075 107.897C308.155 107.824 308.215 107.732 308.247 107.629C308.308 107.421 308.328 107.203 308.306 106.988C308.272 106.052 308.159 105.117 308.203 104.186C308.213 103.243 308.499 102.324 309.026 101.541C309.297 101.154 309.668 100.848 310.099 100.655C310.53 100.462 311.006 100.389 311.475 100.444C312.088 100.547 312.622 100.934 313.224 101.061C313.584 101.141 313.957 101.138 314.316 101.053C314.675 100.969 315.01 100.804 315.296 100.572C315.37 100.513 315.698 100.336 315.698 100.336C315.706 100.115 315.652 99.8963 315.541 99.7046C314.429 98.4753 312.269 97.9659 310.642 98.2353C309.81 98.3634 309.016 98.6712 308.315 99.1372C307.613 99.6032 307.022 100.216 306.582 100.934C305.759 102.379 305.778 104.485 306.023 106.037" fill="#263238"/>
<path d="M317.442 102.046C317.267 102.325 317.021 102.554 316.729 102.708C316.438 102.863 316.111 102.939 315.781 102.927C315.122 102.897 314.473 102.743 313.871 102.472C312.916 102.144 311.932 101.909 310.932 101.772C310.834 101.772 310.716 101.772 310.672 101.669C310.628 101.566 310.736 101.429 310.844 101.355C311.77 100.758 313.891 100.527 314.993 100.576C315.545 100.588 316.086 100.741 316.562 101.02C317.039 101.3 317.436 101.697 317.716 102.173" fill="#263238"/>
<path d="M317.152 102.109C316.579 101.386 315.746 100.916 314.83 100.797C313.073 100.649 311.31 100.989 309.733 101.779C308.157 102.569 306.829 103.778 305.895 105.273C305.718 104.43 305.629 103.569 305.631 102.707C305.68 102.114 306.346 98.6369 310.04 97.8533C310.054 97.8435 315.678 96.2321 317.152 102.109Z" fill="#455A64"/>
<path d="M306.283 104.524C307.586 102.907 309.226 101.593 311.089 100.674C313.274 99.6781 315.579 98.9685 317.947 98.5634C318.554 98.42 319.186 98.4083 319.798 98.5291C320.103 98.596 320.383 98.7471 320.605 98.9654C320.828 99.1837 320.985 99.4602 321.057 99.7634C321.18 100.527 319.745 101.571 319.098 101.967C318.448 102.322 317.779 102.641 317.094 102.922C317.094 102.922 317.236 101.536 315.032 101.052C312.019 100.39 306.283 104.524 306.283 104.524Z" fill="#455A64"/>
<path d="M320.185 98.6271C319.976 98.583 319.765 98.5503 319.553 98.5292C318.967 98.5071 318.381 98.5465 317.804 98.6467C315.892 98.969 314.021 99.4995 312.224 100.229C310.415 100.924 308.753 101.955 307.326 103.265C306.9 103.665 306.525 104.116 306.209 104.607C305.993 104.96 305.91 105.175 305.89 105.166C305.871 105.156 305.891 105.107 305.93 105.004C305.983 104.851 306.049 104.702 306.126 104.558C306.413 104.035 306.776 103.556 307.203 103.138C308.614 101.764 310.291 100.694 312.131 99.9936C313.944 99.2537 315.841 98.7405 317.779 98.4655C318.37 98.3824 318.969 98.3709 319.562 98.4312C319.731 98.444 319.896 98.4837 320.052 98.5487C320.141 98.5928 320.189 98.6173 320.185 98.6271Z" fill="#263238"/>
<path d="M313.032 99.3961C313.752 99.0903 314.516 98.9034 315.296 98.8426C315.125 98.683 314.936 98.5448 314.732 98.4312C314.126 98.479 313.53 98.6228 312.969 98.8573L313.032 99.3961Z" fill="#FAFAFA"/>
<path d="M317.485 103.089C317.577 102.962 317.632 102.813 317.646 102.658C317.661 102.502 317.633 102.346 317.567 102.205C317.5 102.063 317.397 101.942 317.269 101.854C317.14 101.766 316.99 101.714 316.834 101.703C316.937 101.662 317.03 101.6 317.108 101.521C317.185 101.442 317.246 101.348 317.286 101.244C317.325 101.141 317.343 101.03 317.338 100.919C317.332 100.809 317.304 100.7 317.255 100.601C317.14 100.408 316.963 100.26 316.754 100.178C316.545 100.097 316.315 100.087 316.099 100.15C315.886 100.221 315.692 100.341 315.535 100.501C315.377 100.661 315.26 100.857 315.193 101.071C315.102 100.936 314.977 100.826 314.831 100.752C314.686 100.679 314.524 100.644 314.361 100.651C314.197 100.658 314.039 100.706 313.9 100.792C313.761 100.877 313.646 100.997 313.567 101.14C313.523 101.017 313.435 100.916 313.319 100.856C313.204 100.796 313.07 100.782 312.944 100.816C312.696 100.898 312.469 101.034 312.278 101.213C312.087 101.395 311.84 101.507 311.578 101.532L311.406 101.605C311.547 101.83 311.765 101.997 312.019 102.072C312.273 102.148 312.547 102.128 312.788 102.016C312.786 102.183 312.838 102.346 312.936 102.481C313.035 102.616 313.175 102.714 313.335 102.763C313.495 102.811 313.666 102.806 313.823 102.748C313.979 102.69 314.113 102.583 314.203 102.442C314.234 102.566 314.295 102.68 314.38 102.774C314.466 102.868 314.574 102.939 314.694 102.981C314.814 103.023 314.943 103.034 315.069 103.014C315.194 102.993 315.313 102.942 315.413 102.864C315.468 103.007 315.556 103.135 315.669 103.238C315.783 103.341 315.919 103.416 316.066 103.457C316.214 103.498 316.369 103.504 316.52 103.474C316.67 103.444 316.811 103.379 316.932 103.285C317.057 103.483 317.138 103.706 317.17 103.938C317.202 104.171 317.184 104.407 317.118 104.632C317.28 104.596 317.428 104.515 317.546 104.399C317.663 104.283 317.746 104.136 317.785 103.975C317.823 103.814 317.815 103.646 317.762 103.489C317.709 103.332 317.613 103.194 317.485 103.089Z" fill="#263238"/>
<path d="M309.201 102.599C308.518 102.902 307.862 103.264 307.242 103.682C306.619 104.107 306.121 104.69 305.797 105.371L306.777 106.307C307.046 106.395 307.266 106.488 307.472 106.307C307.578 106.215 307.66 106.097 307.71 105.966C307.759 105.834 307.775 105.692 307.756 105.553C307.886 105.58 308.021 105.572 308.147 105.528C308.272 105.484 308.383 105.407 308.468 105.304C308.552 105.202 308.607 105.078 308.626 104.946C308.644 104.815 308.627 104.681 308.574 104.558C308.672 104.535 308.761 104.487 308.833 104.418C308.905 104.349 308.958 104.262 308.986 104.167C309.011 104.071 309.012 103.97 308.987 103.874C308.962 103.778 308.913 103.69 308.844 103.618C308.954 103.611 309.061 103.573 309.15 103.507C309.239 103.44 309.306 103.35 309.344 103.246C309.382 103.141 309.389 103.029 309.364 102.921C309.338 102.813 309.282 102.715 309.201 102.638V102.599Z" fill="#263238"/>
<path d="M318.424 116.803C318.424 116.803 321.319 118.542 322.191 120.089C323.063 121.637 327.697 132.931 327.506 134.783C327.315 136.634 322.965 137.775 322.965 137.775L318.424 131.898L320.501 130.659L318.424 126.657V116.803Z" fill="#455A64"/>
<path d="M322.974 137.761C322.974 137.761 312.452 139.867 308.631 135.312L309.738 131.467C309.738 131.467 316.689 133.113 318.864 132.407L322.974 137.761Z" fill="#FFBE9D"/>
<path d="M324.061 128.416C324.101 128.494 322.827 129.028 321.499 130.042C320.172 131.055 319.334 132.153 319.266 132.099C319.385 131.824 319.551 131.573 319.755 131.354C320.218 130.793 320.742 130.285 321.318 129.841C321.898 129.4 322.523 129.024 323.184 128.719C323.458 128.569 323.754 128.467 324.061 128.416Z" fill="#263238"/>
<path d="M320.686 130.517C320.311 129.923 319.995 129.295 319.741 128.641C319.406 128.025 319.117 127.385 318.879 126.726C319.341 127.263 319.71 127.874 319.971 128.533C320.301 129.158 320.542 129.825 320.686 130.517Z" fill="#263238"/>
<path d="M318.777 125.761C318.749 125.208 318.663 124.66 318.522 124.125C318.433 123.577 318.29 123.039 318.096 122.519C318.214 123.619 318.442 124.706 318.777 125.761Z" fill="#263238"/>
<path d="M299.886 118.272C300.087 118.483 302.977 120.398 303.942 123.66C304.907 126.922 305.97 130.326 305.97 130.326L309.737 130.815L307.611 139.504C306.172 139.282 304.798 138.754 303.582 137.954C302.366 137.155 301.336 136.103 300.562 134.871C298.881 131.942 297.521 128.84 296.506 125.619C296.506 125.619 296.824 115.069 299.886 118.272Z" fill="#455A64"/>
<path d="M308.444 130.644C308.444 130.644 306.847 127.069 306.631 127.02C306.416 126.971 303.335 125.888 303.335 125.888C303.241 126.139 303.241 126.416 303.335 126.667L302.223 126.809C302.223 126.809 302.389 127.49 302.766 127.583L302.365 127.94C302.566 128.206 302.824 128.423 303.119 128.577C303.233 128.633 303.357 128.663 303.484 128.663C303.611 128.663 303.736 128.633 303.849 128.577C303.849 128.577 303.712 128.832 304.339 129.234C304.966 129.635 306.058 130.213 306.058 130.213L308.444 130.644Z" fill="#FFBE9D"/>
<path d="M306.063 130.233C306.063 130.233 304.971 129.635 304.344 129.253C303.8 128.91 303.815 128.675 303.854 128.607C303.742 128.657 303.62 128.684 303.496 128.684C303.373 128.684 303.251 128.657 303.139 128.607C302.843 128.449 302.584 128.231 302.379 127.965L302.747 127.578C302.379 127.47 302.218 126.829 302.213 126.799L303.32 126.657C303.231 126.407 303.231 126.134 303.32 125.883C303.349 125.883 306.411 126.971 306.622 127.015C306.832 127.059 308.37 130.497 308.439 130.644L306.063 130.233ZM303.34 126.662L302.228 126.804C302.228 126.883 302.419 127.48 302.766 127.568L302.36 127.926C302.557 128.188 302.812 128.403 303.104 128.553C303.217 128.608 303.341 128.636 303.467 128.636C303.593 128.636 303.717 128.608 303.829 128.553V128.582C303.829 128.582 303.702 128.837 304.319 129.229C304.937 129.62 306 130.208 306.039 130.208L308.405 130.624C307.846 129.385 306.764 127.054 306.602 127.02C306.44 126.985 303.477 125.947 303.31 125.888C303.223 126.141 303.233 126.417 303.34 126.662Z" fill="#EB996E"/>
<path d="M303.432 126.677C304.082 126.993 304.757 127.256 305.45 127.465C305.734 127.568 306.013 127.642 306.234 127.749C306.431 127.843 306.592 127.997 306.694 128.19C306.88 128.523 306.949 128.763 306.978 128.754C306.966 128.536 306.906 128.323 306.802 128.131C306.699 127.91 306.527 127.728 306.312 127.612C306.051 127.495 305.782 127.393 305.509 127.309C304.832 127.048 304.138 126.837 303.432 126.677Z" fill="#EB996E"/>
<path d="M302.713 127.578C302.884 127.68 303.074 127.748 303.271 127.779C303.624 127.877 304.124 127.955 304.653 128.097C305.104 128.209 305.528 128.409 305.902 128.685C306.186 128.905 306.308 129.096 306.333 129.082C306.264 128.888 306.142 128.718 305.98 128.592C305.61 128.274 305.17 128.048 304.697 127.931C304.153 127.784 303.649 127.725 303.296 127.661C303.105 127.612 302.91 127.584 302.713 127.578Z" fill="#EB996E"/>
<path d="M305.539 129.214C305.358 128.969 305.096 128.795 304.8 128.724C304.52 128.598 304.206 128.569 303.908 128.641C303.908 128.695 304.3 128.719 304.746 128.881C305.192 129.042 305.51 129.253 305.539 129.214Z" fill="#EB996E"/>
<path d="M309.413 131.741L318.912 126.951L320.651 130.492C320.651 130.492 311.897 139.166 307.797 139.054" fill="#FFBE9D"/>
<path d="M303.643 121.701C303.657 121.94 303.699 122.177 303.77 122.406C303.873 122.832 304.02 123.42 304.196 124.066C304.372 124.713 304.539 125.301 304.686 125.722C304.74 125.953 304.822 126.177 304.931 126.388C304.914 126.151 304.871 125.916 304.804 125.687C304.701 125.261 304.554 124.674 304.377 124.022C304.201 123.371 304.034 122.793 303.888 122.377C303.832 122.143 303.75 121.916 303.643 121.701Z" fill="#263238"/>
<path d="M304.054 133.49C304.083 133.49 304.166 133.054 304.387 132.373C304.512 131.977 304.704 131.606 304.955 131.276C305.256 130.883 305.69 130.613 306.175 130.517C306.682 130.493 307.19 130.551 307.679 130.688L308.923 130.938C309.079 130.959 309.232 130.998 309.379 131.055C309.482 131.102 309.565 131.186 309.609 131.291C309.628 131.335 309.638 131.384 309.638 131.433C309.638 131.481 309.628 131.53 309.609 131.575C309.609 131.575 309.741 131.496 309.687 131.271C309.668 131.207 309.636 131.147 309.593 131.096C309.55 131.044 309.497 131.002 309.437 130.972C309.282 130.9 309.117 130.849 308.947 130.82L307.708 130.536C307.202 130.385 306.673 130.322 306.146 130.35C305.612 130.455 305.138 130.758 304.818 131.198C304.563 131.546 304.374 131.937 304.26 132.353C304.179 132.63 304.116 132.912 304.069 133.196C304.049 133.292 304.044 133.392 304.054 133.49Z" fill="#263238"/>
<path d="M302.746 131.58C303.006 131.121 303.354 130.718 303.77 130.394C304.23 130.12 304.724 129.906 305.239 129.758C305.075 129.731 304.907 129.745 304.75 129.797C304.368 129.876 304.006 130.033 303.687 130.257C303.363 130.482 303.097 130.779 302.908 131.124C302.815 131.259 302.759 131.416 302.746 131.58Z" fill="#263238"/>
<path d="M296.506 125.619C296.506 125.619 296.506 125.683 296.555 125.805C296.604 125.927 296.658 126.114 296.731 126.324C296.893 126.814 297.113 127.441 297.388 128.229C297.662 129.018 297.995 129.998 298.465 131.026C298.936 132.055 299.489 133.162 300.16 134.283C300.787 135.345 301.587 136.296 302.526 137.094C303.292 137.748 304.151 138.284 305.073 138.686C305.699 138.955 306.358 139.138 307.033 139.23C307.215 139.257 307.398 139.275 307.582 139.284C307.709 139.284 307.773 139.284 307.773 139.284C307.773 139.284 307.513 139.254 307.043 139.171C306.384 139.053 305.742 138.854 305.132 138.579C303.117 137.648 301.436 136.121 300.317 134.205C299.651 133.093 299.112 131.971 298.617 130.967C298.122 129.963 297.804 129.008 297.505 128.195C297.206 127.382 296.976 126.75 296.8 126.305L296.594 125.815C296.572 125.747 296.542 125.681 296.506 125.619Z" fill="#263238"/>
<path d="M299.229 118.478C299.229 118.527 299.953 118.791 300.781 119.286C301.609 119.781 302.202 120.295 302.251 120.266C301.45 119.384 300.402 118.765 299.243 118.488L299.229 118.478Z" fill="#263238"/>
<path d="M306.436 141.556C306.592 141.652 306.755 141.734 306.925 141.801C307.087 141.88 307.283 141.968 307.513 142.056C307.743 142.144 308.003 142.262 308.307 142.355C309 142.601 309.706 142.807 310.423 142.972C311.304 143.166 312.195 143.307 313.093 143.393C313.992 143.467 314.895 143.483 315.797 143.442C316.532 143.408 317.265 143.331 317.991 143.212C318.3 143.168 318.579 143.104 318.819 143.055C319.059 143.006 319.275 142.952 319.441 142.908C319.62 142.869 319.795 142.816 319.965 142.751C319.784 142.77 319.604 142.801 319.427 142.845C319.26 142.879 319.049 142.923 318.804 142.962C318.56 143.001 318.28 143.06 317.972 143.094C317.247 143.198 316.518 143.264 315.787 143.29C314.893 143.32 313.998 143.297 313.107 143.222C312.217 143.139 311.332 143.005 310.457 142.82C309.744 142.664 309.039 142.471 308.346 142.242C308.042 142.154 307.783 142.051 307.548 141.968C307.312 141.885 307.116 141.806 306.955 141.743C306.786 141.669 306.613 141.607 306.436 141.556Z" fill="#263238"/>
<path d="M314.15 146.488C314.81 146.404 315.456 146.239 316.076 145.999C316.712 145.816 317.324 145.556 317.898 145.225C317.898 145.181 317.055 145.494 316.022 145.837C314.988 146.18 314.141 146.444 314.15 146.488Z" fill="#263238"/>
<g opacity="0.3">
<path d="M321.4 138.02C319.23 138.449 316.999 138.482 314.817 138.118C314.024 137.878 313.195 137.779 312.367 137.824C311.712 137.984 311.078 138.224 310.481 138.539C309.354 139.003 308.13 139.179 306.918 139.054C305.705 138.928 304.543 138.504 303.535 137.819C303.89 138.496 304.401 139.078 305.026 139.517C305.652 139.956 306.374 140.239 307.131 140.342C308.646 140.534 310.185 140.397 311.642 139.94C312.51 139.657 313.407 139.476 314.317 139.401C315.473 139.372 316.605 139.749 317.746 139.769C319.085 139.807 320.4 139.41 321.493 138.637L321.4 138.02Z" fill="black"/>
</g>
<g opacity="0.3">
<path d="M317.638 145.563C317.151 146.38 316.479 147.072 315.676 147.583C314.873 148.093 313.961 148.408 313.014 148.501C312.605 148.553 312.19 148.52 311.794 148.403C311.596 148.345 311.412 148.247 311.253 148.115C311.095 147.983 310.966 147.819 310.873 147.635C311.312 147.353 311.798 147.152 312.308 147.042L317.584 145.597" fill="black"/>
</g>
<path d="M320.509 130.634C320.38 130.792 320.238 130.938 320.083 131.07C319.798 131.344 319.387 131.736 318.902 132.236C318.417 132.735 317.839 133.353 317.134 133.965C316.428 134.577 315.625 135.209 314.777 135.865C313.98 136.489 313.144 137.062 312.274 137.579C311.561 138.004 310.806 138.354 310.021 138.623C309.492 138.802 308.947 138.935 308.395 139.019C308.194 139.055 307.99 139.066 307.787 139.054C308.523 138.898 309.25 138.699 309.962 138.456C310.725 138.166 311.46 137.805 312.157 137.379C313.005 136.854 313.823 136.282 314.606 135.664C315.453 135.008 316.262 134.386 316.962 133.788C317.663 133.191 318.251 132.598 318.76 132.109C319.269 131.619 319.7 131.246 320.004 130.997C320.157 130.856 320.326 130.734 320.509 130.634Z" fill="#EB996E"/>
</g>
<defs>
<clipPath id="clip0_157_3336">
<rect width="342" height="208" fill="white"/>
</clipPath>
</defs>
</svg>
