<svg width="446" height="202" viewBox="0 0 576 242" fill="none" xmlns="http://www.w3.org/2000/svg">
<path d="M529 102H222V178H529V102Z" fill="#272833"/>
<path d="M297.048 152.36C295.128 152.36 293.34 152.048 291.684 151.424C290.052 150.776 288.624 149.876 287.4 148.724C286.2 147.548 285.264 146.168 284.592 144.584C283.92 143 283.584 141.272 283.584 139.4C283.584 137.528 283.92 135.8 284.592 134.216C285.264 132.632 286.212 131.264 287.436 130.112C288.66 128.936 290.088 128.036 291.72 127.412C293.352 126.764 295.14 126.44 297.084 126.44C299.148 126.44 301.032 126.8 302.736 127.52C304.44 128.216 305.88 129.26 307.056 130.652L304.032 133.496C303.12 132.512 302.1 131.78 300.972 131.3C299.844 130.796 298.62 130.544 297.3 130.544C295.98 130.544 294.768 130.76 293.664 131.192C292.584 131.624 291.636 132.236 290.82 133.028C290.028 133.82 289.404 134.756 288.948 135.836C288.516 136.916 288.3 138.104 288.3 139.4C288.3 140.696 288.516 141.884 288.948 142.964C289.404 144.044 290.028 144.98 290.82 145.772C291.636 146.564 292.584 147.176 293.664 147.608C294.768 148.04 295.98 148.256 297.3 148.256C298.62 148.256 299.844 148.016 300.972 147.536C302.1 147.032 303.12 146.276 304.032 145.268L307.056 148.148C305.88 149.516 304.44 150.56 302.736 151.28C301.032 152 299.136 152.36 297.048 152.36ZM307.449 152L318.789 126.8H323.397L334.773 152H329.877L320.121 129.284H321.993L312.273 152H307.449ZM312.669 146.168L313.929 142.496H327.537L328.797 146.168H312.669ZM337.978 152V126.8H341.83L357.634 146.204H355.726V126.8H360.37V152H356.518L340.714 132.596H342.622V152H337.978ZM378.786 152.36C376.866 152.36 375.078 152.048 373.422 151.424C371.79 150.776 370.362 149.876 369.138 148.724C367.938 147.548 367.002 146.168 366.33 144.584C365.658 143 365.322 141.272 365.322 139.4C365.322 137.528 365.658 135.8 366.33 134.216C367.002 132.632 367.95 131.264 369.174 130.112C370.398 128.936 371.826 128.036 373.458 127.412C375.09 126.764 376.878 126.44 378.822 126.44C380.886 126.44 382.77 126.8 384.474 127.52C386.178 128.216 387.618 129.26 388.794 130.652L385.77 133.496C384.858 132.512 383.838 131.78 382.71 131.3C381.582 130.796 380.358 130.544 379.038 130.544C377.718 130.544 376.506 130.76 375.402 131.192C374.322 131.624 373.374 132.236 372.558 133.028C371.766 133.82 371.142 134.756 370.686 135.836C370.254 136.916 370.038 138.104 370.038 139.4C370.038 140.696 370.254 141.884 370.686 142.964C371.142 144.044 371.766 144.98 372.558 145.772C373.374 146.564 374.322 147.176 375.402 147.608C376.506 148.04 377.718 148.256 379.038 148.256C380.358 148.256 381.582 148.016 382.71 147.536C383.838 147.032 384.858 146.276 385.77 145.268L388.794 148.148C387.618 149.516 386.178 150.56 384.474 151.28C382.77 152 380.874 152.36 378.786 152.36ZM397.599 137.276H410.127V141.128H397.599V137.276ZM397.959 148.076H412.179V152H393.279V126.8H411.675V130.724H397.959V148.076ZM417.396 152V126.8H422.076V148.04H435.252V152H417.396ZM443.267 137.276H455.795V141.128H443.267V137.276ZM443.627 148.076H457.847V152H438.947V126.8H457.343V130.724H443.627V148.076ZM463.064 152V126.8H474.08C476.816 126.8 479.216 127.328 481.28 128.384C483.344 129.44 484.952 130.904 486.104 132.776C487.256 134.648 487.832 136.856 487.832 139.4C487.832 141.92 487.256 144.128 486.104 146.024C484.952 147.896 483.344 149.36 481.28 150.416C479.216 151.472 476.816 152 474.08 152H463.064ZM467.744 148.04H473.864C475.76 148.04 477.392 147.68 478.76 146.96C480.152 146.24 481.22 145.232 481.964 143.936C482.732 142.64 483.116 141.128 483.116 139.4C483.116 137.648 482.732 136.136 481.964 134.864C481.22 133.568 480.152 132.56 478.76 131.84C477.392 131.12 475.76 130.76 473.864 130.76H467.744V148.04Z" fill="white"/>
<path d="M146.252 237.55C210.456 237.55 262.504 186.164 262.504 122.775C262.504 59.3865 210.456 8 146.252 8C82.0478 8 30 59.3865 30 122.775C30 186.164 82.0478 237.55 146.252 237.55Z" fill="#FFF0EB"/>
<path d="M187.304 53.8026H105.21C103.441 53.8026 102.008 55.2362 102.008 57.0047V191.499C102.008 193.268 103.441 194.701 105.21 194.701H187.304C189.072 194.701 190.506 193.268 190.506 191.499V57.0047C190.506 55.2362 189.072 53.8026 187.304 53.8026Z" fill="#455A64"/>
<path d="M185.758 61.2783H106.58V181.607H185.758V61.2783Z" fill="white"/>
<path d="M150.996 187.259H141.516V189.446H150.996V187.259Z" fill="white"/>
<path opacity="0.11" d="M106.578 61.2783C107.478 62.1299 185.756 181.607 185.756 181.607H106.578V61.2783Z" fill="#334C60"/>
<path d="M165.231 132.505C174.974 122.762 174.974 106.965 165.231 97.2223C155.488 87.4792 139.691 87.4792 129.948 97.2223C120.205 106.965 120.205 122.762 129.948 132.505C139.691 142.248 155.488 142.248 165.231 132.505Z" fill="#BF4C26"/>
<path d="M132.367 103.953L137.459 100.239L162.367 126.971L160.032 129.27L132.367 103.953Z" fill="white"/>
<path d="M133.918 127.106L136.186 129.27L162.368 103.117L156.951 99.4159L133.918 127.106Z" fill="white"/>
</svg>
