<svg width="348" height="141" viewBox="0 0 408 201" fill="none" xmlns="http://www.w3.org/2000/svg">
<path d="M408 61H151V137H408V61Z" fill="#272833"/>
<path d="M127.019 165C162.301 165 190.902 136.398 190.902 101.117C190.902 65.8358 162.301 37.2346 127.019 37.2346C91.7379 37.2346 63.1367 65.8358 63.1367 101.117C63.1367 136.398 91.7379 165 127.019 165Z" fill="white"/>
<path d="M127.018 170.631C113.268 170.631 99.826 166.554 88.3928 158.914C76.9596 151.275 68.0485 140.417 62.7864 127.713C57.5243 115.009 56.1475 101.03 58.8301 87.5437C61.5127 74.0573 68.1342 61.6693 77.8573 51.9461C87.5805 42.223 99.9685 35.6015 113.455 32.9189C126.941 30.2363 140.92 31.6131 153.624 36.8752C166.328 42.1373 177.186 51.0484 184.826 62.4816C192.465 73.9148 196.542 87.3566 196.542 101.107C196.521 119.54 189.19 137.211 176.156 150.245C163.122 163.279 145.451 170.61 127.018 170.631ZM127.018 42.8663C115.497 42.8663 104.234 46.2829 94.6549 52.6841C85.0754 59.0852 77.6092 68.1833 73.2007 78.8278C68.7921 89.4723 67.6391 101.185 69.8876 112.485C72.136 123.785 77.6848 134.164 85.8323 142.31C93.9799 150.456 104.36 156.003 115.66 158.25C126.96 160.496 138.673 159.341 149.317 154.931C159.961 150.521 169.057 143.053 175.457 133.472C181.856 123.892 185.271 112.628 185.269 101.107C185.253 85.6639 179.111 70.8578 168.19 59.9386C157.269 49.0195 142.462 42.8795 127.018 42.8663Z" fill="#BF4C26"/>
<path d="M133.875 19.9308H120.17V36.9655H133.875V19.9308Z" fill="#BF4C26"/>
<path d="M135.639 11.2789H118.405C116.897 11.2789 115.674 12.5017 115.674 14.0101V21.3263C115.674 22.8347 116.897 24.0574 118.405 24.0574H135.639C137.147 24.0574 138.37 22.8347 138.37 21.3263V14.0101C138.37 12.5017 137.147 11.2789 135.639 11.2789Z" fill="#BF4C26"/>
<path d="M72.8194 44.6224L65.0664 52.3754L74.7013 62.0103L82.4543 54.2573L72.8194 44.6224Z" fill="#BF4C26"/>
<path d="M68.9201 38.7266L59.1725 48.4743C58.32 49.3267 58.32 50.7089 59.1725 51.5614L63.3097 55.6986C64.1622 56.5511 65.5444 56.5511 66.3968 55.6986L76.1445 45.951C76.9969 45.0985 76.9969 43.7164 76.1445 42.8639L72.0072 38.7266C71.1547 37.8742 69.7726 37.8742 68.9201 38.7266Z" fill="#BF4C26"/>
<path d="M188.722 52.3641L180.969 44.6111L171.334 54.246L179.087 61.999L188.722 52.3641Z" fill="#BF4C26"/>
<path d="M194.623 48.47L184.876 38.7224C184.023 37.8699 182.641 37.8699 181.788 38.7224L177.651 42.8597C176.799 43.7122 176.799 45.0943 177.651 45.9468L187.399 55.6944C188.251 56.5469 189.633 56.5469 190.486 55.6944L194.623 51.5571C195.476 50.7046 195.476 49.3225 194.623 48.47Z" fill="#BF4C26"/>
<path d="M127.08 154.264H127.02H125.446L125.774 143.001H127.02L127.08 154.264ZM152.219 147.925L146.856 138.007C147.235 137.808 147.614 137.589 147.992 137.379L153.634 147.128C153.165 147.447 152.697 147.666 152.219 147.925ZM100.507 147.187C100.038 146.908 99.5098 146.629 99.1011 146.34L105.032 136.761L106.138 137.419L100.507 147.187ZM172.224 129.086L162.645 123.106C162.874 122.737 163.093 122.368 163.313 121.989L173.061 127.641C172.795 128.139 172.516 128.621 172.224 129.086ZM81.0398 127.771C80.7607 127.302 80.5015 126.824 80.2424 126.345L90.1502 120.993L90.7781 122.109L81.0398 127.771ZM180.148 102.742L168.884 102.403C168.884 101.974 168.884 101.546 168.884 101.107V100.908H180.148V101.057C180.168 101.655 180.168 102.204 180.148 102.742ZM75.6473 101.197H73.873C73.873 100.609 73.873 100.11 73.873 99.602L85.1365 99.921C85.1365 100.32 85.1365 100.718 85.1365 101.117L75.6473 101.197ZM163.851 81.1619C163.651 80.7832 163.442 80.4044 163.223 80.0356L172.951 74.354C173.23 74.8225 173.489 75.291 173.759 75.7694L163.851 81.1619ZM90.7283 80.2648L80.9202 74.683C81.1993 74.2145 81.4783 73.736 81.7674 73.2676L91.3463 79.1983C91.127 79.5272 90.9077 79.896 90.7283 80.2648ZM148.979 65.4231L147.833 64.7154L153.445 54.9471C153.916 55.2129 154.385 55.492 154.85 55.7844L148.979 65.4231ZM106.019 64.8948L100.347 55.1564C100.816 54.8773 101.294 54.6082 101.772 54.349L107.135 64.2668C106.726 64.4662 106.358 64.7154 105.989 64.8948H106.019ZM128.217 59.2531C127.828 59.2531 127.439 59.2531 127.05 59.2531H126.901V47.9598H127.05H128.516L128.217 59.2531Z" fill="#00323E"/>
<path d="M162.424 30.7058C163.602 30.7058 164.557 29.7508 164.557 28.5728C164.557 27.3947 163.602 26.4397 162.424 26.4397C161.246 26.4397 160.291 27.3947 160.291 28.5728C160.291 29.7508 161.246 30.7058 162.424 30.7058Z" fill="#BF4C26"/>
<path d="M50.858 123.524C50.848 124.13 50.6582 124.72 50.3129 125.218C49.9675 125.716 49.4821 126.1 48.9181 126.322C48.3541 126.543 47.737 126.593 47.1449 126.463C46.5529 126.334 46.0126 126.032 45.5926 125.595C45.1725 125.158 44.8916 124.606 44.7855 124.009C44.6794 123.413 44.7529 122.798 44.9966 122.243C45.2403 121.688 45.6433 121.218 46.1544 120.893C46.6655 120.567 47.2618 120.401 47.8677 120.414C48.675 120.435 49.4415 120.773 50.0012 121.356C50.5609 121.938 50.8687 122.717 50.858 123.524Z" fill="#BF4C26"/>
<path d="M75.9891 165.235C76.935 161.228 74.453 157.212 70.4454 156.266C66.4378 155.32 62.4222 157.803 61.4763 161.81C60.5305 165.818 63.0125 169.833 67.0201 170.779C71.0277 171.725 75.0433 169.243 75.9891 165.235Z" fill="#BF4C26"/>
<path d="M184.922 156.079C187.052 156.079 188.779 154.352 188.779 152.221C188.779 150.091 187.052 148.364 184.922 148.364C182.791 148.364 181.064 150.091 181.064 152.221C181.064 154.352 182.791 156.079 184.922 156.079Z" fill="#BF4C26"/>
<path d="M86.5613 21.127C86.5613 21.8643 86.3426 22.585 85.933 23.1981C85.5234 23.8111 84.9411 24.2889 84.26 24.5711C83.5788 24.8532 82.8292 24.9271 82.1061 24.7832C81.3829 24.6394 80.7187 24.2843 80.1973 23.763C79.676 23.2416 79.3209 22.5774 79.1771 21.8542C79.0333 21.1311 79.1071 20.3815 79.3892 19.7004C79.6714 19.0192 80.1492 18.437 80.7623 18.0273C81.3753 17.6177 82.0961 17.3991 82.8334 17.3991C83.8221 17.3991 84.7703 17.7918 85.4694 18.4909C86.1685 19.1901 86.5613 20.1383 86.5613 21.127Z" fill="#BF4C26"/>
<path d="M52.4923 73.5666C52.4923 74.5685 52.1951 75.5479 51.6383 76.3808C51.0814 77.2137 50.29 77.8627 49.3642 78.2457C48.4384 78.6286 47.4198 78.7283 46.4373 78.5321C45.4548 78.3359 44.5525 77.8527 43.8448 77.1435C43.137 76.4344 42.6556 75.5312 42.4613 74.5483C42.2671 73.5654 42.3688 72.547 42.7535 71.622C43.1383 70.6969 43.7889 69.9068 44.6229 69.3516C45.4569 68.7964 46.4369 68.5011 47.4388 68.5031C48.1032 68.5031 48.7612 68.6341 49.375 68.8887C49.9888 69.1433 50.5463 69.5164 51.0157 69.9867C51.4851 70.4571 51.8571 71.0153 52.1105 71.6296C52.3639 72.2439 52.4937 72.9021 52.4923 73.5666Z" fill="#272833"/>
<path d="M155.778 185.363C159.455 185.363 162.436 182.382 162.436 178.705C162.436 175.028 159.455 172.047 155.778 172.047C152.1 172.047 149.119 175.028 149.119 178.705C149.119 182.382 152.1 185.363 155.778 185.363Z" fill="#272833"/>
<path d="M202.225 144.367C202.886 144.367 203.422 143.831 203.422 143.171C203.422 142.51 202.886 141.974 202.225 141.974C201.565 141.974 201.029 142.51 201.029 143.171C201.029 143.831 201.565 144.367 202.225 144.367Z" fill="#00323E"/>
<path d="M202.087 30.975C202.087 31.9232 201.806 32.8502 201.279 33.6386C200.752 34.427 200.003 35.0416 199.127 35.4044C198.251 35.7673 197.287 35.8623 196.357 35.6773C195.427 35.4923 194.573 35.0356 193.902 34.3651C193.232 33.6946 192.775 32.8403 192.59 31.9103C192.405 30.9803 192.5 30.0163 192.863 29.1402C193.226 28.2641 193.84 27.5154 194.629 26.9885C195.417 26.4617 196.344 26.1805 197.292 26.1805C197.922 26.1792 198.546 26.3023 199.129 26.5428C199.711 26.7833 200.24 27.1364 200.686 27.5819C201.131 28.0273 201.484 28.5564 201.725 29.1387C201.965 29.7209 202.088 30.345 202.087 30.975Z" fill="#272833"/>
<path d="M98.9413 179.233C100.483 179.233 101.732 177.984 101.732 176.442C101.732 174.901 100.483 173.651 98.9413 173.651C97.3999 173.651 96.1504 174.901 96.1504 176.442C96.1504 177.984 97.3999 179.233 98.9413 179.233Z" fill="#00323E"/>
<path d="M214.384 111V85.8H224.752C226.984 85.8 228.892 86.16 230.476 86.88C232.084 87.6 233.32 88.632 234.184 89.976C235.048 91.32 235.48 92.916 235.48 94.764C235.48 96.612 235.048 98.208 234.184 99.552C233.32 100.896 232.084 101.928 230.476 102.648C228.892 103.368 226.984 103.728 224.752 103.728H216.976L219.064 101.532V111H214.384ZM219.064 102.036L216.976 99.768H224.536C226.6 99.768 228.148 99.336 229.18 98.472C230.236 97.584 230.764 96.348 230.764 94.764C230.764 93.156 230.236 91.92 229.18 91.056C228.148 90.192 226.6 89.76 224.536 89.76H216.976L219.064 87.456V102.036ZM244.474 96.276H257.002V100.128H244.474V96.276ZM244.834 107.076H259.054V111H240.154V85.8H258.55V89.724H244.834V107.076ZM264.271 111V85.8H268.123L283.927 105.204H282.019V85.8H286.663V111H282.811L267.007 91.596H268.915V111H264.271ZM293.415 111V85.8H304.431C307.167 85.8 309.567 86.328 311.631 87.384C313.695 88.44 315.303 89.904 316.455 91.776C317.607 93.648 318.183 95.856 318.183 98.4C318.183 100.92 317.607 103.128 316.455 105.024C315.303 106.896 313.695 108.36 311.631 109.416C309.567 110.472 307.167 111 304.431 111H293.415ZM298.095 107.04H304.215C306.111 107.04 307.743 106.68 309.111 105.96C310.503 105.24 311.571 104.232 312.315 102.936C313.083 101.64 313.467 100.128 313.467 98.4C313.467 96.648 313.083 95.136 312.315 93.864C311.571 92.568 310.503 91.56 309.111 90.84C307.743 90.12 306.111 89.76 304.215 89.76H298.095V107.04ZM323.157 111V85.8H327.837V111H323.157ZM334.654 111V85.8H338.506L354.31 105.204H352.402V85.8H357.046V111H353.194L337.39 91.596H339.298V111H334.654ZM375.57 111.36C373.602 111.36 371.79 111.048 370.134 110.424C368.502 109.776 367.074 108.876 365.85 107.724C364.626 106.548 363.678 105.168 363.006 103.584C362.334 102 361.998 100.272 361.998 98.4C361.998 96.528 362.334 94.8 363.006 93.216C363.678 91.632 364.626 90.264 365.85 89.112C367.098 87.936 368.55 87.036 370.206 86.412C371.862 85.764 373.674 85.44 375.642 85.44C377.778 85.44 379.698 85.788 381.402 86.484C383.13 87.18 384.582 88.2 385.758 89.544L382.806 92.424C381.822 91.44 380.754 90.72 379.602 90.264C378.474 89.784 377.226 89.544 375.858 89.544C374.538 89.544 373.314 89.76 372.186 90.192C371.058 90.624 370.086 91.236 369.27 92.028C368.454 92.82 367.818 93.756 367.362 94.836C366.93 95.916 366.714 97.104 366.714 98.4C366.714 99.672 366.93 100.848 367.362 101.928C367.818 103.008 368.454 103.956 369.27 104.772C370.086 105.564 371.046 106.176 372.15 106.608C373.254 107.04 374.478 107.256 375.822 107.256C377.07 107.256 378.27 107.064 379.422 106.68C380.598 106.272 381.714 105.6 382.77 104.664L385.434 108.156C384.114 109.212 382.578 110.016 380.826 110.568C379.098 111.096 377.346 111.36 375.57 111.36ZM381.006 107.544V98.112H385.434V108.156L381.006 107.544Z" fill="white"/>
<path d="M127.359 74.1846V104.087L141.189 128.01" stroke="black" stroke-width="4"/>
</svg>
