<svg width="114" height="12" viewBox="0 0 139 17" fill="none" xmlns="http://www.w3.org/2000/svg">
<path d="M7.578 14.144C6.606 14.144 5.712 13.988 4.896 13.676C4.08 13.352 3.372 12.902 2.772 12.326C2.172 11.738 1.704 11.054 1.368 10.274C1.032 9.494 0.864 8.636 0.864 7.7C0.864 6.764 1.032 5.906 1.368 5.126C1.704 4.346 2.172 3.668 2.772 3.092C3.384 2.504 4.098 2.054 4.914 1.742C5.73 1.418 6.63 1.256 7.614 1.256C8.61 1.256 9.522 1.418 10.35 1.742C11.178 2.066 11.88 2.552 12.456 3.2L11.34 4.316C10.824 3.812 10.26 3.446 9.648 3.218C9.048 2.978 8.394 2.858 7.686 2.858C6.966 2.858 6.294 2.978 5.67 3.218C5.058 3.458 4.524 3.794 4.068 4.226C3.624 4.658 3.276 5.174 3.024 5.774C2.784 6.362 2.664 7.004 2.664 7.7C2.664 8.384 2.784 9.026 3.024 9.626C3.276 10.214 3.624 10.73 4.068 11.174C4.524 11.606 5.058 11.942 5.67 12.182C6.282 12.422 6.948 12.542 7.668 12.542C8.34 12.542 8.982 12.44 9.594 12.236C10.218 12.02 10.794 11.666 11.322 11.174L12.348 12.542C11.724 13.07 10.992 13.472 10.152 13.748C9.324 14.012 8.466 14.144 7.578 14.144ZM10.62 12.308V7.628H12.348V12.542L10.62 12.308ZM19.6283 14.108C18.6683 14.108 17.8163 13.898 17.0723 13.478C16.3283 13.058 15.7403 12.482 15.3083 11.75C14.8763 11.006 14.6603 10.166 14.6603 9.23C14.6603 8.282 14.8763 7.442 15.3083 6.71C15.7403 5.978 16.3283 5.408 17.0723 5C17.8163 4.58 18.6683 4.37 19.6283 4.37C20.5763 4.37 21.4223 4.58 22.1663 5C22.9223 5.408 23.5103 5.978 23.9303 6.71C24.3623 7.43 24.5783 8.27 24.5783 9.23C24.5783 10.178 24.3623 11.018 23.9303 11.75C23.5103 12.482 22.9223 13.058 22.1663 13.478C21.4223 13.898 20.5763 14.108 19.6283 14.108ZM19.6283 12.596C20.2403 12.596 20.7863 12.458 21.2663 12.182C21.7583 11.906 22.1423 11.516 22.4183 11.012C22.6943 10.496 22.8323 9.902 22.8323 9.23C22.8323 8.546 22.6943 7.958 22.4183 7.466C22.1423 6.962 21.7583 6.572 21.2663 6.296C20.7863 6.02 20.2403 5.882 19.6283 5.882C19.0163 5.882 18.4703 6.02 17.9903 6.296C17.5103 6.572 17.1263 6.962 16.8383 7.466C16.5503 7.958 16.4063 8.546 16.4063 9.23C16.4063 9.902 16.5503 10.496 16.8383 11.012C17.1263 11.516 17.5103 11.906 17.9903 12.182C18.4703 12.458 19.0163 12.596 19.6283 12.596ZM30.2441 14.108C29.2841 14.108 28.5401 13.85 28.0121 13.334C27.4841 12.818 27.2201 12.08 27.2201 11.12V2.372H28.9481V11.048C28.9481 11.564 29.0741 11.96 29.3261 12.236C29.5901 12.512 29.9621 12.65 30.4421 12.65C30.9821 12.65 31.4321 12.5 31.7921 12.2L32.3321 13.442C32.0681 13.67 31.7501 13.838 31.3781 13.946C31.0181 14.054 30.6401 14.108 30.2441 14.108ZM25.6001 5.882V4.46H31.6841V5.882H25.6001ZM45.1952 14.144C44.2352 14.144 43.3412 13.982 42.5132 13.658C41.6972 13.334 40.9892 12.884 40.3892 12.308C39.7892 11.72 39.3212 11.036 38.9852 10.256C38.6492 9.476 38.4812 8.624 38.4812 7.7C38.4812 6.776 38.6492 5.924 38.9852 5.144C39.3212 4.364 39.7892 3.686 40.3892 3.11C40.9892 2.522 41.6972 2.066 42.5132 1.742C43.3292 1.418 44.2232 1.256 45.1952 1.256C46.1552 1.256 47.0372 1.418 47.8412 1.742C48.6572 2.054 49.3652 2.504 49.9652 3.092C50.5772 3.668 51.0452 4.346 51.3692 5.126C51.7052 5.906 51.8732 6.764 51.8732 7.7C51.8732 8.636 51.7052 9.494 51.3692 10.274C51.0452 11.054 50.5772 11.738 49.9652 12.326C49.3652 12.902 48.6572 13.352 47.8412 13.676C47.0372 13.988 46.1552 14.144 45.1952 14.144ZM49.3172 16.628C48.8972 16.628 48.4952 16.574 48.1112 16.466C47.7272 16.37 47.3432 16.208 46.9592 15.98C46.5752 15.764 46.1792 15.476 45.7712 15.116C45.3632 14.768 44.9192 14.336 44.4392 13.82L46.3652 13.316C46.7252 13.76 47.0672 14.12 47.3912 14.396C47.7272 14.684 48.0572 14.888 48.3812 15.008C48.7052 15.14 49.0232 15.206 49.3352 15.206C50.2352 15.206 51.0032 14.846 51.6392 14.126L52.4852 15.152C51.6692 16.136 50.6132 16.628 49.3172 16.628ZM45.1952 12.542C45.8912 12.542 46.5332 12.422 47.1212 12.182C47.7212 11.942 48.2372 11.6 48.6692 11.156C49.1132 10.712 49.4552 10.196 49.6952 9.608C49.9472 9.02 50.0732 8.384 50.0732 7.7C50.0732 7.004 49.9472 6.362 49.6952 5.774C49.4552 5.186 49.1132 4.676 48.6692 4.244C48.2372 3.8 47.7212 3.458 47.1212 3.218C46.5332 2.978 45.8912 2.858 45.1952 2.858C44.4872 2.858 43.8332 2.978 43.2332 3.218C42.6452 3.458 42.1292 3.8 41.6852 4.244C41.2412 4.676 40.8932 5.186 40.6412 5.774C40.4012 6.362 40.2812 7.004 40.2812 7.7C40.2812 8.384 40.4012 9.02 40.6412 9.608C40.8932 10.196 41.2412 10.712 41.6852 11.156C42.1292 11.6 42.6452 11.942 43.2332 12.182C43.8332 12.422 44.4872 12.542 45.1952 12.542ZM58.3864 14.108C57.5704 14.108 56.8504 13.958 56.2264 13.658C55.6144 13.358 55.1344 12.902 54.7864 12.29C54.4504 11.666 54.2824 10.886 54.2824 9.95V4.46H56.0104V9.752C56.0104 10.688 56.2324 11.39 56.6764 11.858C57.1324 12.326 57.7684 12.56 58.5844 12.56C59.1844 12.56 59.7064 12.44 60.1504 12.2C60.5944 11.948 60.9364 11.588 61.1764 11.12C61.4164 10.64 61.5364 10.064 61.5364 9.392V4.46H63.2644V14H61.6264V11.426L61.8964 12.11C61.5844 12.746 61.1164 13.238 60.4924 13.586C59.8684 13.934 59.1664 14.108 58.3864 14.108ZM70.802 14.108C69.782 14.108 68.882 13.898 68.102 13.478C67.334 13.058 66.734 12.482 66.302 11.75C65.882 11.018 65.672 10.178 65.672 9.23C65.672 8.282 65.876 7.442 66.284 6.71C66.704 5.978 67.274 5.408 67.994 5C68.726 4.58 69.548 4.37 70.46 4.37C71.384 4.37 72.2 4.574 72.908 4.982C73.616 5.39 74.168 5.966 74.564 6.71C74.972 7.442 75.176 8.3 75.176 9.284C75.176 9.356 75.17 9.44 75.158 9.536C75.158 9.632 75.152 9.722 75.14 9.806H67.022V8.564H74.24L73.538 8.996C73.55 8.384 73.424 7.838 73.16 7.358C72.896 6.878 72.53 6.506 72.062 6.242C71.606 5.966 71.072 5.828 70.46 5.828C69.86 5.828 69.326 5.966 68.858 6.242C68.39 6.506 68.024 6.884 67.76 7.376C67.496 7.856 67.364 8.408 67.364 9.032V9.32C67.364 9.956 67.508 10.526 67.796 11.03C68.096 11.522 68.51 11.906 69.038 12.182C69.566 12.458 70.172 12.596 70.856 12.596C71.42 12.596 71.93 12.5 72.386 12.308C72.854 12.116 73.262 11.828 73.61 11.444L74.564 12.56C74.132 13.064 73.592 13.448 72.944 13.712C72.308 13.976 71.594 14.108 70.802 14.108ZM80.3115 14.108C79.5195 14.108 78.7635 14 78.0435 13.784C77.3355 13.568 76.7775 13.304 76.3695 12.992L77.0895 11.624C77.4975 11.9 78.0015 12.134 78.6015 12.326C79.2015 12.518 79.8135 12.614 80.4375 12.614C81.2415 12.614 81.8175 12.5 82.1655 12.272C82.5255 12.044 82.7055 11.726 82.7055 11.318C82.7055 11.018 82.5975 10.784 82.3815 10.616C82.1655 10.448 81.8775 10.322 81.5175 10.238C81.1695 10.154 80.7795 10.082 80.3475 10.022C79.9155 9.95 79.4835 9.866 79.0515 9.77C78.6195 9.662 78.2235 9.518 77.8635 9.338C77.5035 9.146 77.2155 8.888 76.9995 8.564C76.7835 8.228 76.6755 7.784 76.6755 7.232C76.6755 6.656 76.8375 6.152 77.1615 5.72C77.4855 5.288 77.9415 4.958 78.5295 4.73C79.1295 4.49 79.8375 4.37 80.6535 4.37C81.2775 4.37 81.9075 4.448 82.5435 4.604C83.1915 4.748 83.7195 4.958 84.1275 5.234L83.3895 6.602C82.9575 6.314 82.5075 6.116 82.0395 6.008C81.5715 5.9 81.1035 5.846 80.6355 5.846C79.8795 5.846 79.3155 5.972 78.9435 6.224C78.5715 6.464 78.3855 6.776 78.3855 7.16C78.3855 7.484 78.4935 7.736 78.7095 7.916C78.9375 8.084 79.2255 8.216 79.5735 8.312C79.9335 8.408 80.3295 8.492 80.7615 8.564C81.1935 8.624 81.6255 8.708 82.0575 8.816C82.4895 8.912 82.8795 9.05 83.2275 9.23C83.5875 9.41 83.8755 9.662 84.0915 9.986C84.3195 10.31 84.4335 10.742 84.4335 11.282C84.4335 11.858 84.2655 12.356 83.9295 12.776C83.5935 13.196 83.1195 13.526 82.5075 13.766C81.8955 13.994 81.1635 14.108 80.3115 14.108ZM89.8691 14.108C88.9091 14.108 88.1651 13.85 87.6371 13.334C87.1091 12.818 86.8451 12.08 86.8451 11.12V2.372H88.5731V11.048C88.5731 11.564 88.6991 11.96 88.9511 12.236C89.2151 12.512 89.5871 12.65 90.0671 12.65C90.6071 12.65 91.0571 12.5 91.4171 12.2L91.9571 13.442C91.6931 13.67 91.3751 13.838 91.0031 13.946C90.6431 14.054 90.2651 14.108 89.8691 14.108ZM85.2251 5.882V4.46H91.3091V5.882H85.2251ZM94.0462 14V4.46H95.7742V14H94.0462ZM94.9102 2.624C94.5742 2.624 94.2922 2.516 94.0642 2.3C93.8482 2.084 93.7402 1.82 93.7402 1.508C93.7402 1.184 93.8482 0.914 94.0642 0.698C94.2922 0.482 94.5742 0.373999 94.9102 0.373999C95.2462 0.373999 95.5222 0.482 95.7382 0.698C95.9662 0.901999 96.0802 1.16 96.0802 1.472C96.0802 1.796 95.9722 2.072 95.7562 2.3C95.5402 2.516 95.2582 2.624 94.9102 2.624ZM103.16 14.108C102.2 14.108 101.348 13.898 100.604 13.478C99.8595 13.058 99.2715 12.482 98.8395 11.75C98.4075 11.006 98.1915 10.166 98.1915 9.23C98.1915 8.282 98.4075 7.442 98.8395 6.71C99.2715 5.978 99.8595 5.408 100.604 5C101.348 4.58 102.2 4.37 103.16 4.37C104.108 4.37 104.954 4.58 105.698 5C106.454 5.408 107.042 5.978 107.462 6.71C107.894 7.43 108.11 8.27 108.11 9.23C108.11 10.178 107.894 11.018 107.462 11.75C107.042 12.482 106.454 13.058 105.698 13.478C104.954 13.898 104.108 14.108 103.16 14.108ZM103.16 12.596C103.772 12.596 104.318 12.458 104.798 12.182C105.29 11.906 105.674 11.516 105.95 11.012C106.226 10.496 106.364 9.902 106.364 9.23C106.364 8.546 106.226 7.958 105.95 7.466C105.674 6.962 105.29 6.572 104.798 6.296C104.318 6.02 103.772 5.882 103.16 5.882C102.548 5.882 102.002 6.02 101.522 6.296C101.042 6.572 100.658 6.962 100.37 7.466C100.082 7.958 99.9375 8.546 99.9375 9.23C99.9375 9.902 100.082 10.496 100.37 11.012C100.658 11.516 101.042 11.906 101.522 12.182C102.002 12.458 102.548 12.596 103.16 12.596ZM115.593 4.37C116.373 4.37 117.057 4.52 117.645 4.82C118.245 5.12 118.713 5.576 119.049 6.188C119.385 6.8 119.553 7.574 119.553 8.51V14H117.825V8.708C117.825 7.784 117.597 7.088 117.141 6.62C116.697 6.152 116.067 5.918 115.251 5.918C114.639 5.918 114.105 6.038 113.649 6.278C113.193 6.518 112.839 6.872 112.587 7.34C112.347 7.808 112.227 8.39 112.227 9.086V14H110.499V4.46H112.155V7.034L111.885 6.35C112.197 5.726 112.677 5.24 113.325 4.892C113.973 4.544 114.729 4.37 115.593 4.37ZM125.487 14.108C124.695 14.108 123.939 14 123.219 13.784C122.511 13.568 121.953 13.304 121.545 12.992L122.265 11.624C122.673 11.9 123.177 12.134 123.777 12.326C124.377 12.518 124.989 12.614 125.613 12.614C126.417 12.614 126.993 12.5 127.341 12.272C127.701 12.044 127.881 11.726 127.881 11.318C127.881 11.018 127.773 10.784 127.557 10.616C127.341 10.448 127.053 10.322 126.693 10.238C126.345 10.154 125.955 10.082 125.523 10.022C125.091 9.95 124.659 9.866 124.227 9.77C123.795 9.662 123.399 9.518 123.039 9.338C122.679 9.146 122.391 8.888 122.175 8.564C121.959 8.228 121.851 7.784 121.851 7.232C121.851 6.656 122.013 6.152 122.337 5.72C122.661 5.288 123.117 4.958 123.705 4.73C124.305 4.49 125.013 4.37 125.829 4.37C126.453 4.37 127.083 4.448 127.719 4.604C128.367 4.748 128.895 4.958 129.303 5.234L128.565 6.602C128.133 6.314 127.683 6.116 127.215 6.008C126.747 5.9 126.279 5.846 125.811 5.846C125.055 5.846 124.491 5.972 124.119 6.224C123.747 6.464 123.561 6.776 123.561 7.16C123.561 7.484 123.669 7.736 123.885 7.916C124.113 8.084 124.401 8.216 124.749 8.312C125.109 8.408 125.505 8.492 125.937 8.564C126.369 8.624 126.801 8.708 127.233 8.816C127.665 8.912 128.055 9.05 128.403 9.23C128.763 9.41 129.051 9.662 129.267 9.986C129.495 10.31 129.609 10.742 129.609 11.282C129.609 11.858 129.441 12.356 129.105 12.776C128.769 13.196 128.295 13.526 127.683 13.766C127.071 13.994 126.339 14.108 125.487 14.108ZM133.936 10.022C133.936 9.554 134.014 9.146 134.17 8.798C134.326 8.45 134.518 8.138 134.746 7.862C134.986 7.586 135.244 7.334 135.52 7.106C135.796 6.866 136.054 6.632 136.294 6.404C136.534 6.164 136.726 5.912 136.87 5.648C137.026 5.384 137.104 5.078 137.104 4.73C137.104 4.154 136.876 3.686 136.42 3.326C135.964 2.966 135.334 2.786 134.53 2.786C133.81 2.786 133.186 2.906 132.658 3.146C132.13 3.386 131.68 3.74 131.308 4.208L129.994 3.272C130.498 2.636 131.14 2.144 131.92 1.796C132.7 1.436 133.612 1.256 134.656 1.256C135.52 1.256 136.27 1.388 136.906 1.652C137.542 1.904 138.034 2.27 138.382 2.75C138.742 3.218 138.922 3.788 138.922 4.46C138.922 4.964 138.844 5.396 138.688 5.756C138.532 6.116 138.334 6.434 138.094 6.71C137.854 6.986 137.596 7.244 137.32 7.484C137.056 7.724 136.804 7.964 136.564 8.204C136.324 8.444 136.126 8.708 135.97 8.996C135.814 9.284 135.736 9.626 135.736 10.022H133.936ZM134.854 14.108C134.518 14.108 134.236 13.994 134.008 13.766C133.792 13.538 133.684 13.268 133.684 12.956C133.684 12.62 133.792 12.344 134.008 12.128C134.236 11.912 134.518 11.804 134.854 11.804C135.19 11.804 135.466 11.912 135.682 12.128C135.898 12.344 136.006 12.62 136.006 12.956C136.006 13.268 135.898 13.538 135.682 13.766C135.466 13.994 135.19 14.108 134.854 14.108Z" fill="#757575"/>
</svg>
