<svg width="626" height="126" viewBox="0 0 926 126" fill="none" xmlns="http://www.w3.org/2000/svg">
<path d="M83 70C102.33 70 118 54.33 118 35C118 15.67 102.33 0 83 0C63.67 0 48 15.67 48 35C48 54.33 63.67 70 83 70Z" fill="#BF4C26"/>
<path d="M91.7362 26.895C92.1499 26.4813 92.7111 26.2488 93.2962 26.2488C93.8813 26.2488 94.4424 26.4813 94.8562 26.895C95.2699 27.3088 95.5023 27.8699 95.5023 28.455C95.5023 29.0401 95.2699 29.6013 94.8562 30.015L81.6187 43.25C81.2052 43.6633 80.6445 43.8954 80.0599 43.8954C79.4753 43.8954 78.9147 43.6633 78.5012 43.25L71.1462 35.8975C70.7324 35.4838 70.5 34.9226 70.5 34.3375C70.5 33.7524 70.7324 33.1913 71.1462 32.7775C71.5599 32.3638 72.1211 32.1313 72.7062 32.1313C73.2913 32.1313 73.8524 32.3638 74.2662 32.7775L80.0612 38.5725L91.7362 26.895Z" fill="white"/>
<path d="M345 70C364.33 70 380 54.33 380 35C380 15.67 364.33 0 345 0C325.67 0 310 15.67 310 35C310 54.33 325.67 70 345 70Z" fill="#BF4C26"/>
<path d="M354.433 22.274L344.886 31.8185L335.342 22.274L332.16 25.4555L341.705 35L332.16 44.5445L335.342 47.726L344.886 38.1815L354.433 47.726L357.614 44.5445L348.07 35L357.614 25.4555L354.433 22.274Z" fill="white"/>
<g opacity="0.15">
<path d="M619.5 35C619.5 41.9036 613.904 47.5 607 47.5C600.096 47.5 594.5 41.9036 594.5 35C594.5 28.0964 600.096 22.5 607 22.5C613.904 22.5 619.5 28.0964 619.5 35Z" stroke="#757575" stroke-width="45"/>
</g>
<g opacity="0.15">
<path d="M881.5 35C881.5 41.9036 875.904 47.5 869 47.5C862.096 47.5 856.5 41.9036 856.5 35C856.5 28.0964 862.096 22.5 869 22.5C875.904 22.5 881.5 28.0964 881.5 35Z" stroke="#757575" stroke-width="45"/>
</g>
<line x1="134" y1="33" x2="294" y2="33" stroke="#BF4C26" stroke-width="4"/>
<line opacity="0.15" x1="396" y1="33" x2="556" y2="33" stroke="#757575" stroke-width="4"/>
<line opacity="0.15" x1="658" y1="33" x2="818" y2="33" stroke="#757575" stroke-width="4"/>
<path d="M10.152 120.288C8.824 120.288 7.592 120.072 6.456 119.64C5.336 119.208 4.36 118.6 3.528 117.816C2.712 117.032 2.072 116.112 1.608 115.056C1.16 114 0.936 112.848 0.936 111.6C0.936 110.352 1.16 109.2 1.608 108.144C2.072 107.088 2.72 106.168 3.552 105.384C4.384 104.6 5.36 103.992 6.48 103.56C7.6 103.128 8.816 102.912 10.128 102.912C11.456 102.912 12.672 103.128 13.776 103.56C14.896 103.992 15.864 104.6 16.68 105.384C17.512 106.168 18.16 107.088 18.624 108.144C19.088 109.184 19.32 110.336 19.32 111.6C19.32 112.848 19.088 114.008 18.624 115.08C18.16 116.136 17.512 117.056 16.68 117.84C15.864 118.608 14.896 119.208 13.776 119.64C12.672 120.072 11.464 120.288 10.152 120.288ZM10.128 116.976C10.88 116.976 11.568 116.848 12.192 116.592C12.832 116.336 13.392 115.968 13.872 115.488C14.352 115.008 14.72 114.44 14.976 113.784C15.248 113.128 15.384 112.4 15.384 111.6C15.384 110.8 15.248 110.072 14.976 109.416C14.72 108.76 14.352 108.192 13.872 107.712C13.408 107.232 12.856 106.864 12.216 106.608C11.576 106.352 10.88 106.224 10.128 106.224C9.376 106.224 8.68 106.352 8.04 106.608C7.416 106.864 6.864 107.232 6.384 107.712C5.904 108.192 5.528 108.76 5.256 109.416C5 110.072 4.872 110.8 4.872 111.6C4.872 112.384 5 113.112 5.256 113.784C5.528 114.44 5.896 115.008 6.36 115.488C6.84 115.968 7.4 116.336 8.04 116.592C8.68 116.848 9.376 116.976 10.128 116.976ZM21.978 120V107.088H25.554V110.736L25.05 109.68C25.434 108.768 26.05 108.08 26.898 107.616C27.746 107.136 28.778 106.896 29.994 106.896V110.352C29.834 110.336 29.69 110.328 29.562 110.328C29.434 110.312 29.298 110.304 29.154 110.304C28.13 110.304 27.298 110.6 26.658 111.192C26.034 111.768 25.722 112.672 25.722 113.904V120H21.978ZM37.6704 120.192C36.4544 120.192 35.3584 119.92 34.3824 119.376C33.4064 118.816 32.6304 118.04 32.0544 117.048C31.4944 116.056 31.2144 114.888 31.2144 113.544C31.2144 112.184 31.4944 111.008 32.0544 110.016C32.6304 109.024 33.4064 108.256 34.3824 107.712C35.3584 107.168 36.4544 106.896 37.6704 106.896C38.7584 106.896 39.7104 107.136 40.5264 107.616C41.3424 108.096 41.9744 108.824 42.4224 109.8C42.8704 110.776 43.0944 112.024 43.0944 113.544C43.0944 115.048 42.8784 116.296 42.4464 117.288C42.0144 118.264 41.3904 118.992 40.5744 119.472C39.7744 119.952 38.8064 120.192 37.6704 120.192ZM38.3184 117.12C38.9264 117.12 39.4784 116.976 39.9744 116.688C40.4704 116.4 40.8624 115.992 41.1504 115.464C41.4544 114.92 41.6064 114.28 41.6064 113.544C41.6064 112.792 41.4544 112.152 41.1504 111.624C40.8624 111.096 40.4704 110.688 39.9744 110.4C39.4784 110.112 38.9264 109.968 38.3184 109.968C37.6944 109.968 37.1344 110.112 36.6384 110.4C36.1424 110.688 35.7424 111.096 35.4384 111.624C35.1504 112.152 35.0064 112.792 35.0064 113.544C35.0064 114.28 35.1504 114.92 35.4384 115.464C35.7424 115.992 36.1424 116.4 36.6384 116.688C37.1344 116.976 37.6944 117.12 38.3184 117.12ZM41.7024 120V117.36L41.7744 113.52L41.5344 109.704V102.192H45.2784V120H41.7024ZM55.1516 120.192C53.6796 120.192 52.3836 119.904 51.2636 119.328C50.1596 118.752 49.3036 117.968 48.6956 116.976C48.0876 115.968 47.7836 114.824 47.7836 113.544C47.7836 112.248 48.0796 111.104 48.6716 110.112C49.2796 109.104 50.1036 108.32 51.1436 107.76C52.1836 107.184 53.3596 106.896 54.6716 106.896C55.9356 106.896 57.0716 107.168 58.0796 107.712C59.1036 108.24 59.9116 109.008 60.5036 110.016C61.0956 111.008 61.3916 112.2 61.3916 113.592C61.3916 113.736 61.3836 113.904 61.3676 114.096C61.3516 114.272 61.3356 114.44 61.3196 114.6H50.8316V112.416H59.3516L57.9116 113.064C57.9116 112.392 57.7756 111.808 57.5036 111.312C57.2316 110.816 56.8556 110.432 56.3756 110.16C55.8956 109.872 55.3356 109.728 54.6956 109.728C54.0556 109.728 53.4876 109.872 52.9916 110.16C52.5116 110.432 52.1356 110.824 51.8636 111.336C51.5916 111.832 51.4556 112.424 51.4556 113.112V113.688C51.4556 114.392 51.6076 115.016 51.9116 115.56C52.2316 116.088 52.6716 116.496 53.2316 116.784C53.8076 117.056 54.4796 117.192 55.2476 117.192C55.9356 117.192 56.5356 117.088 57.0476 116.88C57.5756 116.672 58.0556 116.36 58.4876 115.944L60.4796 118.104C59.8876 118.776 59.1436 119.296 58.2476 119.664C57.3516 120.016 56.3196 120.192 55.1516 120.192ZM63.8843 120V107.088H67.4603V110.736L66.9563 109.68C67.3403 108.768 67.9563 108.08 68.8043 107.616C69.6523 107.136 70.6843 106.896 71.9003 106.896V110.352C71.7403 110.336 71.5963 110.328 71.4683 110.328C71.3403 110.312 71.2043 110.304 71.0603 110.304C70.0363 110.304 69.2043 110.6 68.5643 111.192C67.9403 111.768 67.6283 112.672 67.6283 113.904V120H63.8843ZM81.2811 120V103.2H88.5531C90.0571 103.2 91.3531 103.448 92.4411 103.944C93.5291 104.424 94.3691 105.12 94.9611 106.032C95.5531 106.944 95.8491 108.032 95.8491 109.296C95.8491 110.544 95.5531 111.624 94.9611 112.536C94.3691 113.448 93.5291 114.152 92.4411 114.648C91.3531 115.128 90.0571 115.368 88.5531 115.368H83.4411L85.1691 113.616V120H81.2811ZM85.1691 114.048L83.4411 112.2H88.3371C89.5371 112.2 90.4331 111.944 91.0251 111.432C91.6171 110.92 91.9131 110.208 91.9131 109.296C91.9131 108.368 91.6171 107.648 91.0251 107.136C90.4331 106.624 89.5371 106.368 88.3371 106.368H83.4411L85.1691 104.52V114.048ZM98.5952 120V102.192H102.339V120H98.5952ZM113.734 120V117.48L113.494 116.928V112.416C113.494 111.616 113.246 110.992 112.75 110.544C112.27 110.096 111.526 109.872 110.518 109.872C109.83 109.872 109.15 109.984 108.478 110.208C107.822 110.416 107.262 110.704 106.798 111.072L105.454 108.456C106.158 107.96 107.006 107.576 107.998 107.304C108.99 107.032 109.998 106.896 111.022 106.896C112.99 106.896 114.518 107.36 115.606 108.288C116.694 109.216 117.238 110.664 117.238 112.632V120H113.734ZM109.798 120.192C108.79 120.192 107.926 120.024 107.206 119.688C106.486 119.336 105.934 118.864 105.55 118.272C105.166 117.68 104.974 117.016 104.974 116.28C104.974 115.512 105.158 114.84 105.526 114.264C105.91 113.688 106.51 113.24 107.326 112.92C108.142 112.584 109.206 112.416 110.518 112.416H113.95V114.6H110.926C110.046 114.6 109.438 114.744 109.102 115.032C108.782 115.32 108.622 115.68 108.622 116.112C108.622 116.592 108.806 116.976 109.174 117.264C109.558 117.536 110.078 117.672 110.734 117.672C111.358 117.672 111.918 117.528 112.414 117.24C112.91 116.936 113.27 116.496 113.494 115.92L114.07 117.648C113.798 118.48 113.302 119.112 112.582 119.544C111.862 119.976 110.934 120.192 109.798 120.192ZM126.96 120.192C125.568 120.192 124.328 119.912 123.24 119.352C122.152 118.776 121.296 117.984 120.672 116.976C120.064 115.968 119.76 114.824 119.76 113.544C119.76 112.248 120.064 111.104 120.672 110.112C121.296 109.104 122.152 108.32 123.24 107.76C124.328 107.184 125.568 106.896 126.96 106.896C128.32 106.896 129.504 107.184 130.512 107.76C131.52 108.32 132.264 109.128 132.744 110.184L129.84 111.744C129.504 111.136 129.08 110.688 128.568 110.4C128.072 110.112 127.528 109.968 126.936 109.968C126.296 109.968 125.72 110.112 125.208 110.4C124.696 110.688 124.288 111.096 123.984 111.624C123.696 112.152 123.552 112.792 123.552 113.544C123.552 114.296 123.696 114.936 123.984 115.464C124.288 115.992 124.696 116.4 125.208 116.688C125.72 116.976 126.296 117.12 126.936 117.12C127.528 117.12 128.072 116.984 128.568 116.712C129.08 116.424 129.504 115.968 129.84 115.344L132.744 116.928C132.264 117.968 131.52 118.776 130.512 119.352C129.504 119.912 128.32 120.192 126.96 120.192ZM141.144 120.192C139.672 120.192 138.376 119.904 137.256 119.328C136.152 118.752 135.296 117.968 134.688 116.976C134.08 115.968 133.776 114.824 133.776 113.544C133.776 112.248 134.072 111.104 134.664 110.112C135.272 109.104 136.096 108.32 137.136 107.76C138.176 107.184 139.352 106.896 140.664 106.896C141.928 106.896 143.064 107.168 144.072 107.712C145.096 108.24 145.904 109.008 146.496 110.016C147.088 111.008 147.384 112.2 147.384 113.592C147.384 113.736 147.376 113.904 147.36 114.096C147.344 114.272 147.328 114.44 147.312 114.6H136.824V112.416H145.344L143.904 113.064C143.904 112.392 143.768 111.808 143.496 111.312C143.224 110.816 142.848 110.432 142.368 110.16C141.888 109.872 141.328 109.728 140.688 109.728C140.048 109.728 139.48 109.872 138.984 110.16C138.504 110.432 138.128 110.824 137.856 111.336C137.584 111.832 137.448 112.424 137.448 113.112V113.688C137.448 114.392 137.6 115.016 137.904 115.56C138.224 116.088 138.664 116.496 139.224 116.784C139.8 117.056 140.472 117.192 141.24 117.192C141.928 117.192 142.528 117.088 143.04 116.88C143.568 116.672 144.048 116.36 144.48 115.944L146.472 118.104C145.88 118.776 145.136 119.296 144.24 119.664C143.344 120.016 142.312 120.192 141.144 120.192ZM155.42 120.192C154.204 120.192 153.108 119.92 152.132 119.376C151.156 118.816 150.38 118.04 149.804 117.048C149.244 116.056 148.964 114.888 148.964 113.544C148.964 112.184 149.244 111.008 149.804 110.016C150.38 109.024 151.156 108.256 152.132 107.712C153.108 107.168 154.204 106.896 155.42 106.896C156.508 106.896 157.46 107.136 158.276 107.616C159.092 108.096 159.724 108.824 160.172 109.8C160.62 110.776 160.844 112.024 160.844 113.544C160.844 115.048 160.628 116.296 160.196 117.288C159.764 118.264 159.14 118.992 158.324 119.472C157.524 119.952 156.556 120.192 155.42 120.192ZM156.068 117.12C156.676 117.12 157.228 116.976 157.724 116.688C158.22 116.4 158.612 115.992 158.9 115.464C159.204 114.92 159.356 114.28 159.356 113.544C159.356 112.792 159.204 112.152 158.9 111.624C158.612 111.096 158.22 110.688 157.724 110.4C157.228 110.112 156.676 109.968 156.068 109.968C155.444 109.968 154.884 110.112 154.388 110.4C153.892 110.688 153.492 111.096 153.188 111.624C152.9 112.152 152.756 112.792 152.756 113.544C152.756 114.28 152.9 114.92 153.188 115.464C153.492 115.992 153.892 116.4 154.388 116.688C154.884 116.976 155.444 117.12 156.068 117.12ZM159.452 120V117.36L159.524 113.52L159.284 109.704V102.192H163.028V120H159.452Z" fill="black"/>
<path d="M303.032 120.288C301.736 120.288 300.528 120.08 299.408 119.664C298.304 119.232 297.344 118.624 296.528 117.84C295.712 117.056 295.072 116.136 294.608 115.08C294.16 114.024 293.936 112.864 293.936 111.6C293.936 110.336 294.16 109.176 294.608 108.12C295.072 107.064 295.712 106.144 296.528 105.36C297.36 104.576 298.328 103.976 299.432 103.56C300.536 103.128 301.744 102.912 303.056 102.912C304.512 102.912 305.824 103.168 306.992 103.68C308.176 104.176 309.168 104.912 309.968 105.888L307.472 108.192C306.896 107.536 306.256 107.048 305.552 106.728C304.848 106.392 304.08 106.224 303.248 106.224C302.464 106.224 301.744 106.352 301.088 106.608C300.432 106.864 299.864 107.232 299.384 107.712C298.904 108.192 298.528 108.76 298.256 109.416C298 110.072 297.872 110.8 297.872 111.6C297.872 112.4 298 113.128 298.256 113.784C298.528 114.44 298.904 115.008 299.384 115.488C299.864 115.968 300.432 116.336 301.088 116.592C301.744 116.848 302.464 116.976 303.248 116.976C304.08 116.976 304.848 116.816 305.552 116.496C306.256 116.16 306.896 115.656 307.472 114.984L309.968 117.288C309.168 118.264 308.176 119.008 306.992 119.52C305.824 120.032 304.504 120.288 303.032 120.288ZM320.179 120V117.48L319.939 116.928V112.416C319.939 111.616 319.691 110.992 319.195 110.544C318.715 110.096 317.971 109.872 316.963 109.872C316.275 109.872 315.595 109.984 314.923 110.208C314.267 110.416 313.707 110.704 313.243 111.072L311.899 108.456C312.603 107.96 313.451 107.576 314.443 107.304C315.435 107.032 316.443 106.896 317.467 106.896C319.435 106.896 320.963 107.36 322.051 108.288C323.139 109.216 323.683 110.664 323.683 112.632V120H320.179ZM316.243 120.192C315.235 120.192 314.371 120.024 313.651 119.688C312.931 119.336 312.379 118.864 311.995 118.272C311.611 117.68 311.419 117.016 311.419 116.28C311.419 115.512 311.603 114.84 311.971 114.264C312.355 113.688 312.955 113.24 313.771 112.92C314.587 112.584 315.651 112.416 316.963 112.416H320.395V114.6H317.371C316.491 114.6 315.883 114.744 315.547 115.032C315.227 115.32 315.067 115.68 315.067 116.112C315.067 116.592 315.251 116.976 315.619 117.264C316.003 117.536 316.523 117.672 317.179 117.672C317.803 117.672 318.363 117.528 318.859 117.24C319.355 116.936 319.715 116.496 319.939 115.92L320.515 117.648C320.243 118.48 319.747 119.112 319.027 119.544C318.307 119.976 317.379 120.192 316.243 120.192ZM334.92 106.896C335.944 106.896 336.856 107.104 337.656 107.52C338.472 107.92 339.112 108.544 339.576 109.392C340.04 110.224 340.272 111.296 340.272 112.608V120H336.528V113.184C336.528 112.144 336.296 111.376 335.832 110.88C335.384 110.384 334.744 110.136 333.912 110.136C333.32 110.136 332.784 110.264 332.304 110.52C331.84 110.76 331.472 111.136 331.2 111.648C330.944 112.16 330.816 112.816 330.816 113.616V120H327.072V107.088H330.648V110.664L329.976 109.584C330.44 108.72 331.104 108.056 331.968 107.592C332.832 107.128 333.816 106.896 334.92 106.896ZM349.999 120.192C348.607 120.192 347.367 119.912 346.279 119.352C345.191 118.776 344.335 117.984 343.711 116.976C343.103 115.968 342.799 114.824 342.799 113.544C342.799 112.248 343.103 111.104 343.711 110.112C344.335 109.104 345.191 108.32 346.279 107.76C347.367 107.184 348.607 106.896 349.999 106.896C351.359 106.896 352.543 107.184 353.551 107.76C354.559 108.32 355.303 109.128 355.783 110.184L352.879 111.744C352.543 111.136 352.119 110.688 351.607 110.4C351.111 110.112 350.567 109.968 349.975 109.968C349.335 109.968 348.759 110.112 348.247 110.4C347.735 110.688 347.327 111.096 347.023 111.624C346.735 112.152 346.591 112.792 346.591 113.544C346.591 114.296 346.735 114.936 347.023 115.464C347.327 115.992 347.735 116.4 348.247 116.688C348.759 116.976 349.335 117.12 349.975 117.12C350.567 117.12 351.111 116.984 351.607 116.712C352.119 116.424 352.543 115.968 352.879 115.344L355.783 116.928C355.303 117.968 354.559 118.776 353.551 119.352C352.543 119.912 351.359 120.192 349.999 120.192ZM364.183 120.192C362.711 120.192 361.415 119.904 360.295 119.328C359.191 118.752 358.335 117.968 357.727 116.976C357.119 115.968 356.815 114.824 356.815 113.544C356.815 112.248 357.111 111.104 357.703 110.112C358.311 109.104 359.135 108.32 360.175 107.76C361.215 107.184 362.391 106.896 363.703 106.896C364.967 106.896 366.103 107.168 367.111 107.712C368.135 108.24 368.943 109.008 369.535 110.016C370.127 111.008 370.423 112.2 370.423 113.592C370.423 113.736 370.415 113.904 370.399 114.096C370.383 114.272 370.367 114.44 370.351 114.6H359.863V112.416H368.383L366.943 113.064C366.943 112.392 366.807 111.808 366.535 111.312C366.263 110.816 365.887 110.432 365.407 110.16C364.927 109.872 364.367 109.728 363.727 109.728C363.087 109.728 362.519 109.872 362.023 110.16C361.543 110.432 361.167 110.824 360.895 111.336C360.623 111.832 360.487 112.424 360.487 113.112V113.688C360.487 114.392 360.639 115.016 360.943 115.56C361.263 116.088 361.703 116.496 362.263 116.784C362.839 117.056 363.511 117.192 364.279 117.192C364.967 117.192 365.567 117.088 366.079 116.88C366.607 116.672 367.087 116.36 367.519 115.944L369.511 118.104C368.919 118.776 368.175 119.296 367.279 119.664C366.383 120.016 365.351 120.192 364.183 120.192ZM372.916 120V102.192H376.66V120H372.916ZM386.542 120.192C385.07 120.192 383.774 119.904 382.654 119.328C381.55 118.752 380.694 117.968 380.086 116.976C379.478 115.968 379.174 114.824 379.174 113.544C379.174 112.248 379.47 111.104 380.062 110.112C380.67 109.104 381.494 108.32 382.534 107.76C383.574 107.184 384.75 106.896 386.062 106.896C387.326 106.896 388.462 107.168 389.47 107.712C390.494 108.24 391.302 109.008 391.894 110.016C392.486 111.008 392.782 112.2 392.782 113.592C392.782 113.736 392.774 113.904 392.758 114.096C392.742 114.272 392.726 114.44 392.71 114.6H382.222V112.416H390.742L389.302 113.064C389.302 112.392 389.166 111.808 388.894 111.312C388.622 110.816 388.246 110.432 387.766 110.16C387.286 109.872 386.726 109.728 386.086 109.728C385.446 109.728 384.878 109.872 384.382 110.16C383.902 110.432 383.526 110.824 383.254 111.336C382.982 111.832 382.846 112.424 382.846 113.112V113.688C382.846 114.392 382.998 115.016 383.302 115.56C383.622 116.088 384.062 116.496 384.622 116.784C385.198 117.056 385.87 117.192 386.638 117.192C387.326 117.192 387.926 117.088 388.438 116.88C388.966 116.672 389.446 116.36 389.878 115.944L391.87 118.104C391.278 118.776 390.534 119.296 389.638 119.664C388.742 120.016 387.71 120.192 386.542 120.192ZM400.819 120.192C399.603 120.192 398.507 119.92 397.531 119.376C396.555 118.816 395.779 118.04 395.203 117.048C394.643 116.056 394.363 114.888 394.363 113.544C394.363 112.184 394.643 111.008 395.203 110.016C395.779 109.024 396.555 108.256 397.531 107.712C398.507 107.168 399.603 106.896 400.819 106.896C401.907 106.896 402.859 107.136 403.675 107.616C404.491 108.096 405.123 108.824 405.571 109.8C406.019 110.776 406.243 112.024 406.243 113.544C406.243 115.048 406.027 116.296 405.595 117.288C405.163 118.264 404.539 118.992 403.723 119.472C402.923 119.952 401.955 120.192 400.819 120.192ZM401.467 117.12C402.075 117.12 402.627 116.976 403.123 116.688C403.619 116.4 404.011 115.992 404.299 115.464C404.603 114.92 404.755 114.28 404.755 113.544C404.755 112.792 404.603 112.152 404.299 111.624C404.011 111.096 403.619 110.688 403.123 110.4C402.627 110.112 402.075 109.968 401.467 109.968C400.843 109.968 400.283 110.112 399.787 110.4C399.291 110.688 398.891 111.096 398.587 111.624C398.299 112.152 398.155 112.792 398.155 113.544C398.155 114.28 398.299 114.92 398.587 115.464C398.891 115.992 399.291 116.4 399.787 116.688C400.283 116.976 400.843 117.12 401.467 117.12ZM404.851 120V117.36L404.923 113.52L404.683 109.704V102.192H408.427V120H404.851Z" fill="#BF4C26"/>
<path d="M563.368 120.144C562.12 120.144 560.92 119.944 559.768 119.544C558.632 119.128 557.752 118.6 557.128 117.96L557.824 116.592C558.416 117.168 559.208 117.656 560.2 118.056C561.208 118.44 562.264 118.632 563.368 118.632C564.424 118.632 565.28 118.504 565.936 118.248C566.608 117.976 567.096 117.616 567.4 117.168C567.72 116.72 567.88 116.224 567.88 115.68C567.88 115.024 567.688 114.496 567.304 114.096C566.936 113.696 566.448 113.384 565.84 113.16C565.232 112.92 564.56 112.712 563.824 112.536C563.088 112.36 562.352 112.176 561.616 111.984C560.88 111.776 560.2 111.504 559.576 111.168C558.968 110.832 558.472 110.392 558.088 109.848C557.72 109.288 557.536 108.56 557.536 107.664C557.536 106.832 557.752 106.072 558.184 105.384C558.632 104.68 559.312 104.12 560.224 103.704C561.136 103.272 562.304 103.056 563.728 103.056C564.672 103.056 565.608 103.192 566.536 103.464C567.464 103.72 568.264 104.08 568.936 104.544L568.336 105.96C567.616 105.48 566.848 105.128 566.032 104.904C565.232 104.68 564.456 104.568 563.704 104.568C562.696 104.568 561.864 104.704 561.208 104.976C560.552 105.248 560.064 105.616 559.744 106.08C559.44 106.528 559.288 107.04 559.288 107.616C559.288 108.272 559.472 108.8 559.84 109.2C560.224 109.6 560.72 109.912 561.328 110.136C561.952 110.36 562.632 110.56 563.368 110.736C564.104 110.912 564.832 111.104 565.552 111.312C566.288 111.52 566.96 111.792 567.568 112.128C568.192 112.448 568.688 112.88 569.056 113.424C569.44 113.968 569.632 114.68 569.632 115.56C569.632 116.376 569.408 117.136 568.96 117.84C568.512 118.528 567.824 119.088 566.896 119.52C565.984 119.936 564.808 120.144 563.368 120.144ZM579.574 107.28C580.598 107.28 581.494 107.48 582.262 107.88C583.046 108.264 583.654 108.856 584.086 109.656C584.534 110.456 584.758 111.464 584.758 112.68V120H583.054V112.848C583.054 111.52 582.718 110.52 582.046 109.848C581.39 109.16 580.462 108.816 579.262 108.816C578.366 108.816 577.582 109 576.91 109.368C576.254 109.72 575.742 110.24 575.374 110.928C575.022 111.6 574.846 112.416 574.846 113.376V120H573.142V102.192H574.846V110.856L574.51 110.208C574.91 109.296 575.55 108.584 576.43 108.072C577.31 107.544 578.358 107.28 579.574 107.28ZM589.36 120V107.4H591.064V120H589.36ZM590.224 104.616C589.872 104.616 589.576 104.496 589.336 104.256C589.096 104.016 588.976 103.728 588.976 103.392C588.976 103.056 589.096 102.776 589.336 102.552C589.576 102.312 589.872 102.192 590.224 102.192C590.576 102.192 590.872 102.304 591.112 102.528C591.352 102.752 591.472 103.032 591.472 103.368C591.472 103.72 591.352 104.016 591.112 104.256C590.888 104.496 590.592 104.616 590.224 104.616ZM602.31 120.12C601.222 120.12 600.238 119.872 599.358 119.376C598.478 118.864 597.774 118.136 597.246 117.192C596.734 116.232 596.478 115.064 596.478 113.688C596.478 112.312 596.734 111.152 597.246 110.208C597.758 109.248 598.454 108.52 599.334 108.024C600.214 107.528 601.206 107.28 602.31 107.28C603.51 107.28 604.582 107.552 605.526 108.096C606.486 108.624 607.238 109.376 607.782 110.352C608.326 111.312 608.598 112.424 608.598 113.688C608.598 114.968 608.326 116.088 607.782 117.048C607.238 118.008 606.486 118.76 605.526 119.304C604.582 119.848 603.51 120.12 602.31 120.12ZM595.806 124.656V107.4H597.438V111.192L597.27 113.712L597.51 116.256V124.656H595.806ZM602.19 118.608C603.086 118.608 603.886 118.408 604.59 118.008C605.294 117.592 605.854 117.016 606.27 116.28C606.686 115.528 606.894 114.664 606.894 113.688C606.894 112.712 606.686 111.856 606.27 111.12C605.854 110.384 605.294 109.808 604.59 109.392C603.886 108.976 603.086 108.768 602.19 108.768C601.294 108.768 600.486 108.976 599.766 109.392C599.062 109.808 598.502 110.384 598.086 111.12C597.686 111.856 597.486 112.712 597.486 113.688C597.486 114.664 597.686 115.528 598.086 116.28C598.502 117.016 599.062 117.592 599.766 118.008C600.486 118.408 601.294 118.608 602.19 118.608ZM618.575 120.12C617.487 120.12 616.503 119.872 615.623 119.376C614.743 118.864 614.039 118.136 613.511 117.192C612.999 116.232 612.743 115.064 612.743 113.688C612.743 112.312 612.999 111.152 613.511 110.208C614.023 109.248 614.719 108.52 615.599 108.024C616.479 107.528 617.471 107.28 618.575 107.28C619.775 107.28 620.847 107.552 621.791 108.096C622.751 108.624 623.503 109.376 624.047 110.352C624.591 111.312 624.863 112.424 624.863 113.688C624.863 114.968 624.591 116.088 624.047 117.048C623.503 118.008 622.751 118.76 621.791 119.304C620.847 119.848 619.775 120.12 618.575 120.12ZM612.071 124.656V107.4H613.703V111.192L613.535 113.712L613.775 116.256V124.656H612.071ZM618.455 118.608C619.351 118.608 620.151 118.408 620.855 118.008C621.559 117.592 622.119 117.016 622.535 116.28C622.951 115.528 623.159 114.664 623.159 113.688C623.159 112.712 622.951 111.856 622.535 111.12C622.119 110.384 621.559 109.808 620.855 109.392C620.151 108.976 619.351 108.768 618.455 108.768C617.559 108.768 616.751 108.976 616.031 109.392C615.327 109.808 614.767 110.384 614.351 111.12C613.951 111.856 613.751 112.712 613.751 113.688C613.751 114.664 613.951 115.528 614.351 116.28C614.767 117.016 615.327 117.592 616.031 118.008C616.751 118.408 617.559 118.608 618.455 118.608ZM633.689 120.12C632.377 120.12 631.225 119.848 630.233 119.304C629.241 118.744 628.465 117.984 627.905 117.024C627.345 116.048 627.065 114.936 627.065 113.688C627.065 112.44 627.329 111.336 627.857 110.376C628.401 109.416 629.137 108.664 630.065 108.12C631.009 107.56 632.065 107.28 633.233 107.28C634.417 107.28 635.465 107.552 636.377 108.096C637.305 108.624 638.033 109.376 638.561 110.352C639.089 111.312 639.353 112.424 639.353 113.688C639.353 113.768 639.345 113.856 639.329 113.952C639.329 114.032 639.329 114.12 639.329 114.216H628.361V112.944H638.417L637.745 113.448C637.745 112.536 637.545 111.728 637.145 111.024C636.761 110.304 636.233 109.744 635.561 109.344C634.889 108.944 634.113 108.744 633.233 108.744C632.369 108.744 631.593 108.944 630.905 109.344C630.217 109.744 629.681 110.304 629.297 111.024C628.913 111.744 628.721 112.568 628.721 113.496V113.76C628.721 114.72 628.929 115.568 629.345 116.304C629.777 117.024 630.369 117.592 631.121 118.008C631.889 118.408 632.761 118.608 633.737 118.608C634.505 118.608 635.217 118.472 635.873 118.2C636.545 117.928 637.121 117.512 637.601 116.952L638.561 118.056C638.001 118.728 637.297 119.24 636.449 119.592C635.617 119.944 634.697 120.12 633.689 120.12ZM647.837 120.12C646.637 120.12 645.557 119.848 644.597 119.304C643.653 118.76 642.909 118.008 642.365 117.048C641.821 116.072 641.549 114.952 641.549 113.688C641.549 112.408 641.821 111.288 642.365 110.328C642.909 109.368 643.653 108.624 644.597 108.096C645.557 107.552 646.637 107.28 647.837 107.28C648.941 107.28 649.925 107.528 650.789 108.024C651.669 108.52 652.365 109.248 652.877 110.208C653.405 111.152 653.669 112.312 653.669 113.688C653.669 115.048 653.413 116.208 652.901 117.168C652.389 118.128 651.693 118.864 650.813 119.376C649.949 119.872 648.957 120.12 647.837 120.12ZM647.957 118.608C648.853 118.608 649.653 118.408 650.357 118.008C651.077 117.592 651.637 117.016 652.037 116.28C652.453 115.528 652.661 114.664 652.661 113.688C652.661 112.696 652.453 111.832 652.037 111.096C651.637 110.36 651.077 109.792 650.357 109.392C649.653 108.976 648.853 108.768 647.957 108.768C647.077 108.768 646.285 108.976 645.581 109.392C644.877 109.792 644.317 110.36 643.901 111.096C643.485 111.832 643.277 112.696 643.277 113.688C643.277 114.664 643.485 115.528 643.901 116.28C644.317 117.016 644.877 117.592 645.581 118.008C646.285 118.408 647.077 118.608 647.957 118.608ZM652.709 120V116.208L652.877 113.664L652.637 111.12V102.192H654.341V120H652.709Z" fill="black"/>
<path d="M813.736 120V103.2H820.576C822.368 103.2 823.936 103.56 825.28 104.28C826.64 104.984 827.696 105.968 828.448 107.232C829.2 108.496 829.576 109.952 829.576 111.6C829.576 113.248 829.2 114.704 828.448 115.968C827.696 117.232 826.64 118.224 825.28 118.944C823.936 119.648 822.368 120 820.576 120H813.736ZM815.512 118.464H820.48C821.968 118.464 823.256 118.176 824.344 117.6C825.448 117.008 826.304 116.2 826.912 115.176C827.52 114.136 827.824 112.944 827.824 111.6C827.824 110.24 827.52 109.048 826.912 108.024C826.304 107 825.448 106.2 824.344 105.624C823.256 105.032 821.968 104.736 820.48 104.736H815.512V118.464ZM838.556 120.12C837.244 120.12 836.092 119.848 835.1 119.304C834.108 118.744 833.332 117.984 832.772 117.024C832.212 116.048 831.932 114.936 831.932 113.688C831.932 112.44 832.196 111.336 832.724 110.376C833.268 109.416 834.004 108.664 834.932 108.12C835.876 107.56 836.932 107.28 838.1 107.28C839.284 107.28 840.332 107.552 841.244 108.096C842.172 108.624 842.9 109.376 843.428 110.352C843.956 111.312 844.22 112.424 844.22 113.688C844.22 113.768 844.212 113.856 844.196 113.952C844.196 114.032 844.196 114.12 844.196 114.216H833.228V112.944H843.284L842.612 113.448C842.612 112.536 842.412 111.728 842.012 111.024C841.628 110.304 841.1 109.744 840.428 109.344C839.756 108.944 838.98 108.744 838.1 108.744C837.236 108.744 836.46 108.944 835.772 109.344C835.084 109.744 834.548 110.304 834.164 111.024C833.78 111.744 833.588 112.568 833.588 113.496V113.76C833.588 114.72 833.796 115.568 834.212 116.304C834.644 117.024 835.236 117.592 835.988 118.008C836.756 118.408 837.628 118.608 838.604 118.608C839.372 118.608 840.084 118.472 840.74 118.2C841.412 117.928 841.988 117.512 842.468 116.952L843.428 118.056C842.868 118.728 842.164 119.24 841.316 119.592C840.484 119.944 839.564 120.12 838.556 120.12ZM847.689 120V102.192H849.393V120H847.689ZM854.134 120V107.4H855.838V120H854.134ZM854.998 104.616C854.646 104.616 854.35 104.496 854.11 104.256C853.87 104.016 853.75 103.728 853.75 103.392C853.75 103.056 853.87 102.776 854.11 102.552C854.35 102.312 854.646 102.192 854.998 102.192C855.35 102.192 855.646 102.304 855.886 102.528C856.126 102.752 856.246 103.032 856.246 103.368C856.246 103.72 856.126 104.016 855.886 104.256C855.662 104.496 855.366 104.616 854.998 104.616ZM863.819 120L858.227 107.4H860.003L865.139 119.088H864.299L869.507 107.4H871.187L865.571 120H863.819ZM878.587 120.12C877.275 120.12 876.123 119.848 875.131 119.304C874.139 118.744 873.363 117.984 872.803 117.024C872.243 116.048 871.963 114.936 871.963 113.688C871.963 112.44 872.227 111.336 872.755 110.376C873.299 109.416 874.035 108.664 874.963 108.12C875.907 107.56 876.963 107.28 878.131 107.28C879.315 107.28 880.363 107.552 881.275 108.096C882.203 108.624 882.931 109.376 883.459 110.352C883.987 111.312 884.251 112.424 884.251 113.688C884.251 113.768 884.243 113.856 884.227 113.952C884.227 114.032 884.227 114.12 884.227 114.216H873.259V112.944H883.315L882.643 113.448C882.643 112.536 882.443 111.728 882.043 111.024C881.659 110.304 881.131 109.744 880.459 109.344C879.787 108.944 879.011 108.744 878.131 108.744C877.267 108.744 876.491 108.944 875.803 109.344C875.115 109.744 874.579 110.304 874.195 111.024C873.811 111.744 873.619 112.568 873.619 113.496V113.76C873.619 114.72 873.827 115.568 874.243 116.304C874.675 117.024 875.267 117.592 876.019 118.008C876.787 118.408 877.659 118.608 878.635 118.608C879.403 118.608 880.115 118.472 880.771 118.2C881.443 117.928 882.019 117.512 882.499 116.952L883.459 118.056C882.899 118.728 882.195 119.24 881.347 119.592C880.515 119.944 879.595 120.12 878.587 120.12ZM887.72 120V107.4H889.352V110.832L889.184 110.232C889.536 109.272 890.128 108.544 890.96 108.048C891.792 107.536 892.824 107.28 894.056 107.28V108.936C893.992 108.936 893.928 108.936 893.864 108.936C893.8 108.92 893.736 108.912 893.672 108.912C892.344 108.912 891.304 109.32 890.552 110.136C889.8 110.936 889.424 112.08 889.424 113.568V120H887.72ZM902.4 120.12C901.088 120.12 899.936 119.848 898.944 119.304C897.952 118.744 897.176 117.984 896.616 117.024C896.056 116.048 895.776 114.936 895.776 113.688C895.776 112.44 896.04 111.336 896.568 110.376C897.112 109.416 897.848 108.664 898.776 108.12C899.72 107.56 900.776 107.28 901.944 107.28C903.128 107.28 904.176 107.552 905.088 108.096C906.016 108.624 906.744 109.376 907.272 110.352C907.8 111.312 908.064 112.424 908.064 113.688C908.064 113.768 908.056 113.856 908.04 113.952C908.04 114.032 908.04 114.12 908.04 114.216H897.072V112.944H907.128L906.456 113.448C906.456 112.536 906.256 111.728 905.856 111.024C905.472 110.304 904.944 109.744 904.272 109.344C903.6 108.944 902.824 108.744 901.944 108.744C901.08 108.744 900.304 108.944 899.616 109.344C898.928 109.744 898.392 110.304 898.008 111.024C897.624 111.744 897.432 112.568 897.432 113.496V113.76C897.432 114.72 897.64 115.568 898.056 116.304C898.488 117.024 899.08 117.592 899.832 118.008C900.6 118.408 901.472 118.608 902.448 118.608C903.216 118.608 903.928 118.472 904.584 118.2C905.256 117.928 905.832 117.512 906.312 116.952L907.272 118.056C906.712 118.728 906.008 119.24 905.16 119.592C904.328 119.944 903.408 120.12 902.4 120.12ZM916.548 120.12C915.348 120.12 914.268 119.848 913.308 119.304C912.364 118.76 911.62 118.008 911.076 117.048C910.532 116.072 910.26 114.952 910.26 113.688C910.26 112.408 910.532 111.288 911.076 110.328C911.62 109.368 912.364 108.624 913.308 108.096C914.268 107.552 915.348 107.28 916.548 107.28C917.652 107.28 918.636 107.528 919.5 108.024C920.38 108.52 921.076 109.248 921.588 110.208C922.116 111.152 922.38 112.312 922.38 113.688C922.38 115.048 922.124 116.208 921.612 117.168C921.1 118.128 920.404 118.864 919.524 119.376C918.66 119.872 917.668 120.12 916.548 120.12ZM916.668 118.608C917.564 118.608 918.364 118.408 919.068 118.008C919.788 117.592 920.348 117.016 920.748 116.28C921.164 115.528 921.372 114.664 921.372 113.688C921.372 112.696 921.164 111.832 920.748 111.096C920.348 110.36 919.788 109.792 919.068 109.392C918.364 108.976 917.564 108.768 916.668 108.768C915.788 108.768 914.996 108.976 914.292 109.392C913.588 109.792 913.028 110.36 912.612 111.096C912.196 111.832 911.988 112.696 911.988 113.688C911.988 114.664 912.196 115.528 912.612 116.28C913.028 117.016 913.588 117.592 914.292 118.008C914.996 118.408 915.788 118.608 916.668 118.608ZM921.42 120V116.208L921.588 113.664L921.348 111.12V102.192H923.052V120H921.42Z" fill="black"/>
</svg>
