<svg width="239" height="251" viewBox="0 0 299 311" fill="none" xmlns="http://www.w3.org/2000/svg">
<path d="M0.589844 44.401L5.36037 47.7345L10.1309 44.401L14.9014 47.7345L19.672 44.401L24.4425 47.7345L29.2187 44.401L33.9892 47.7345" stroke="black" stroke-miterlimit="10"/>
<path d="M265.115 271.941L269.886 275.274L274.651 271.941L279.421 275.274L284.197 271.941L288.968 275.274L293.738 271.941L298.515 275.274" stroke="black" stroke-miterlimit="10"/>
<path d="M224.578 0.559784L221.242 5.32675L224.578 10.0937L221.242 14.855L224.578 19.6276L221.242 24.3946L224.578 29.1616L221.242 33.9342" stroke="black" stroke-miterlimit="10"/>
<path d="M58.162 277.021L54.8203 281.788L58.162 286.555L54.8203 291.322L58.162 296.089L54.8203 300.856L58.162 305.623L54.8203 310.395" stroke="black" stroke-miterlimit="10"/>
<path d="M47.9715 71.666C47.9715 71.934 47.8919 72.196 47.7427 72.4188C47.5936 72.6415 47.3817 72.815 47.1338 72.9173C46.8859 73.0197 46.6131 73.0461 46.3502 72.9934C46.0872 72.9407 45.8458 72.8112 45.6565 72.6213C45.4673 72.4314 45.3387 72.1896 45.2871 71.9266C45.2354 71.6636 45.2631 71.3912 45.3665 71.144C45.4699 70.8967 45.6445 70.6856 45.868 70.5375C46.0916 70.3895 46.3541 70.311 46.6223 70.3121C46.7999 70.3121 46.9759 70.3472 47.1399 70.4153C47.304 70.4834 47.453 70.5832 47.5783 70.709C47.7037 70.8348 47.8029 70.9841 47.8704 71.1483C47.9379 71.3126 47.9722 71.4885 47.9715 71.666Z" fill="black"/>
<path d="M248.938 57.6325C248.938 57.9 248.859 58.1616 248.71 58.3841C248.562 58.6066 248.35 58.7801 248.103 58.8828C247.856 58.9854 247.584 59.0125 247.321 58.9607C247.058 58.909 246.817 58.7806 246.627 58.5918C246.438 58.403 246.308 58.1623 246.255 57.9001C246.202 57.6378 246.228 57.3658 246.33 57.1183C246.432 56.8708 246.604 56.659 246.827 56.5096C247.049 56.3601 247.31 56.2798 247.578 56.2786C247.756 56.2779 247.933 56.3124 248.098 56.3801C248.263 56.4478 248.413 56.5474 248.539 56.6732C248.666 56.7989 248.766 56.9485 248.835 57.1131C248.903 57.2777 248.938 57.4542 248.938 57.6325Z" fill="black"/>
<path d="M154.505 262.202C154.506 262.47 154.427 262.733 154.279 262.956C154.131 263.179 153.92 263.354 153.672 263.457C153.425 263.561 153.152 263.588 152.889 263.537C152.626 263.485 152.384 263.356 152.194 263.167C152.004 262.978 151.874 262.737 151.821 262.474C151.769 262.211 151.795 261.939 151.898 261.691C152 261.443 152.174 261.232 152.396 261.083C152.619 260.934 152.882 260.854 153.15 260.854C153.508 260.854 153.852 260.996 154.106 261.249C154.36 261.501 154.503 261.844 154.505 262.202Z" fill="black"/>
<path d="M86.2605 277.021C86.2605 277.289 86.1809 277.551 86.0318 277.774C85.8827 277.996 85.6707 278.17 85.4228 278.272C85.1749 278.374 84.9022 278.401 84.6392 278.348C84.3763 278.296 84.1349 278.166 83.9456 277.976C83.7563 277.786 83.6278 277.544 83.5761 277.281C83.5245 277.018 83.5521 276.746 83.6556 276.499C83.759 276.251 83.9335 276.04 84.1571 275.892C84.3806 275.744 84.6431 275.666 84.9113 275.667C85.089 275.667 85.2649 275.702 85.429 275.77C85.593 275.838 85.742 275.938 85.8674 276.064C85.9927 276.19 86.092 276.339 86.1595 276.503C86.2269 276.667 86.2613 276.843 86.2605 277.021Z" fill="#FF6F00"/>
<path d="M19.9969 194.987C19.9969 195.255 19.9174 195.517 19.7685 195.739C19.6196 195.962 19.408 196.135 19.1605 196.238C18.9129 196.34 18.6405 196.367 18.3777 196.315C18.1148 196.263 17.8734 196.134 17.6839 195.944C17.4945 195.755 17.3654 195.514 17.3131 195.251C17.2609 194.988 17.2877 194.716 17.3902 194.469C17.4928 194.222 17.6664 194.01 17.8893 193.861C18.1121 193.713 18.374 193.633 18.642 193.633C19.0013 193.633 19.3459 193.776 19.6 194.03C19.8541 194.284 19.9969 194.628 19.9969 194.987Z" fill="#FF6F00"/>
<path d="M224.235 269.08C224.235 269.348 224.156 269.61 224.006 269.832C223.857 270.055 223.645 270.229 223.397 270.331C223.15 270.433 222.877 270.46 222.614 270.407C222.351 270.354 222.109 270.225 221.92 270.035C221.731 269.845 221.602 269.603 221.551 269.34C221.499 269.077 221.527 268.805 221.63 268.558C221.734 268.31 221.908 268.099 222.132 267.951C222.355 267.803 222.618 267.725 222.886 267.726C223.244 267.727 223.587 267.871 223.84 268.124C224.093 268.378 224.235 268.722 224.235 269.08Z" fill="#FF6F00"/>
<path d="M182.526 27.3071C182.527 27.5751 182.449 27.8374 182.301 28.0608C182.152 28.2842 181.941 28.4586 181.694 28.562C181.446 28.6653 181.174 28.6929 180.91 28.6413C180.647 28.5897 180.405 28.4612 180.215 28.2721C180.025 28.083 179.896 27.8418 179.843 27.579C179.79 27.3162 179.817 27.0437 179.919 26.796C180.021 26.5483 180.195 26.3365 180.418 26.1875C180.641 26.0385 180.903 25.9589 181.171 25.9589C181.349 25.9582 181.525 25.9925 181.689 26.0599C181.854 26.1273 182.003 26.2265 182.129 26.3518C182.255 26.4771 182.355 26.6259 182.423 26.7899C182.491 26.9538 182.526 27.1296 182.526 27.3071Z" fill="#FF6F00"/>
<path d="M255.081 28.661C255.081 28.9287 255.001 29.1905 254.853 29.4131C254.704 29.6358 254.492 29.8093 254.244 29.9118C253.997 30.0143 253.724 30.0411 253.462 29.9888C253.199 29.9366 252.957 29.8076 252.768 29.6183C252.578 29.429 252.449 29.1877 252.397 28.9251C252.345 28.6625 252.372 28.3903 252.474 28.1429C252.577 27.8955 252.75 27.684 252.973 27.5353C253.196 27.3865 253.458 27.3071 253.726 27.3071C254.085 27.3086 254.429 27.4517 254.682 27.7053C254.936 27.9589 255.079 28.3024 255.081 28.661Z" fill="#FF6F00"/>
<path d="M24.2605 78.953C24.2605 79.2208 24.1811 79.4825 24.0322 79.7051C23.8833 79.9278 23.6717 80.1013 23.4241 80.2038C23.1766 80.3063 22.9042 80.3331 22.6413 80.2808C22.3785 80.2286 22.1371 80.0996 21.9476 79.9103C21.7581 79.721 21.6291 79.4797 21.5768 79.2171C21.5245 78.9545 21.5514 78.6823 21.6539 78.4349C21.7565 78.1875 21.9301 77.9761 22.1529 77.8273C22.3757 77.6785 22.6377 77.5991 22.9057 77.5991C23.265 77.5991 23.6096 77.7418 23.8637 77.9957C24.1178 78.2496 24.2605 78.5939 24.2605 78.953Z" fill="#FF6F00"/>
<path d="M102.94 25.703C102.941 25.9712 102.863 26.2337 102.714 26.4573C102.566 26.6808 102.354 26.8552 102.106 26.9583C101.859 27.0615 101.586 27.0888 101.322 27.0368C101.059 26.9847 100.817 26.8556 100.627 26.666C100.437 26.4763 100.308 26.2345 100.256 25.9714C100.204 25.7082 100.231 25.4355 100.335 25.1879C100.438 24.9403 100.612 24.7289 100.836 24.5806C101.06 24.4322 101.323 24.3537 101.591 24.3548C101.948 24.3563 102.291 24.4988 102.543 24.7513C102.796 25.0038 102.939 25.3459 102.94 25.703Z" fill="#FF6F00"/>
<path d="M119.575 250.251C119.575 250.519 119.496 250.78 119.347 251.003C119.198 251.226 118.986 251.399 118.739 251.502C118.491 251.604 118.219 251.631 117.956 251.579C117.693 251.526 117.452 251.397 117.262 251.208C117.073 251.019 116.944 250.778 116.891 250.515C116.839 250.252 116.866 249.98 116.968 249.733C117.071 249.485 117.245 249.274 117.467 249.125C117.69 248.976 117.952 248.897 118.22 248.897C118.579 248.898 118.923 249.042 119.177 249.295C119.43 249.549 119.573 249.892 119.575 250.251Z" fill="#FFA417"/>
<path d="M33.9323 245.017C33.9289 245.285 33.8465 245.545 33.6953 245.765C33.5441 245.986 33.331 246.157 33.0829 246.256C32.8347 246.356 32.5625 246.38 32.3007 246.326C32.0389 246.271 31.7991 246.14 31.6115 245.95C31.424 245.759 31.2971 245.517 31.2468 245.255C31.1965 244.992 31.2252 244.721 31.3291 244.474C31.433 244.228 31.6075 244.018 31.8307 243.871C32.0538 243.723 32.3156 243.645 32.5831 243.646C32.7622 243.646 32.9395 243.682 33.1047 243.751C33.2699 243.82 33.4197 243.922 33.5453 244.049C33.6709 244.177 33.7698 244.328 33.8362 244.494C33.9027 244.661 33.9353 244.838 33.9323 245.017Z" fill="#FFA417"/>
<path d="M211.764 243.646C211.764 243.914 211.685 244.176 211.536 244.399C211.387 244.621 211.176 244.795 210.928 244.897C210.68 245 210.408 245.026 210.145 244.974C209.882 244.922 209.641 244.793 209.452 244.604C209.262 244.414 209.133 244.173 209.081 243.911C209.028 243.648 209.055 243.376 209.158 243.128C209.26 242.881 209.434 242.669 209.657 242.521C209.88 242.372 210.142 242.293 210.41 242.293C210.769 242.293 211.114 242.435 211.368 242.689C211.622 242.943 211.764 243.287 211.764 243.646Z" fill="#FFA417"/>
<path d="M270.239 220.164C270.24 220.433 270.162 220.695 270.013 220.919C269.865 221.142 269.653 221.316 269.405 221.42C269.157 221.523 268.885 221.55 268.621 221.498C268.358 221.446 268.116 221.317 267.926 221.127C267.736 220.938 267.607 220.696 267.555 220.433C267.503 220.17 267.53 219.897 267.634 219.649C267.737 219.402 267.911 219.19 268.135 219.042C268.359 218.894 268.621 218.815 268.89 218.816C269.248 218.816 269.591 218.958 269.844 219.211C270.097 219.464 270.239 219.807 270.239 220.164Z" fill="#FFA417"/>
<path d="M64.1004 37.8991C64.1015 38.1671 64.023 38.4294 63.8748 38.6528C63.7266 38.8762 63.5154 39.0506 63.2679 39.154C63.0205 39.2573 62.7479 39.2849 62.4847 39.2333C62.2215 39.1817 61.9795 39.0532 61.7895 38.8641C61.5994 38.675 61.4698 38.4338 61.4171 38.171C61.3643 37.9082 61.3908 37.6357 61.4932 37.388C61.5956 37.1403 61.7692 36.9285 61.9922 36.7795C62.2151 36.6305 62.4773 36.5509 62.7455 36.5509C63.1038 36.5509 63.4476 36.6928 63.7015 36.9455C63.9555 37.1981 64.0989 37.541 64.1004 37.8991Z" fill="#FFA417"/>
<path d="M270.239 80.3012C270.24 80.5694 270.162 80.8319 270.013 81.0555C269.865 81.279 269.653 81.4534 269.405 81.5566C269.157 81.6597 268.885 81.687 268.621 81.635C268.358 81.5829 268.116 81.4538 267.926 81.2642C267.736 81.0745 267.607 80.8327 267.555 80.5696C267.503 80.3064 267.53 80.0337 267.634 79.7861C267.737 79.5385 267.911 79.3271 268.135 79.1788C268.359 79.0304 268.621 78.9519 268.89 78.953C269.247 78.9545 269.59 79.097 269.842 79.3495C270.095 79.602 270.238 79.9441 270.239 80.3012Z" fill="#FFA417"/>
<path d="M176.419 51.1192C176.42 51.3874 176.341 51.6499 176.193 51.8735C176.044 52.097 175.833 52.2714 175.585 52.3745C175.337 52.4777 175.064 52.505 174.801 52.453C174.538 52.4009 174.296 52.2718 174.106 52.0822C173.916 51.8925 173.787 51.6507 173.735 51.3876C173.683 51.1244 173.71 50.8517 173.813 50.6041C173.916 50.3565 174.091 50.1451 174.315 49.9968C174.538 49.8484 174.801 49.7699 175.07 49.771C175.427 49.7725 175.769 49.915 176.022 50.1675C176.275 50.42 176.417 50.7621 176.419 51.1192Z" fill="#FFA417"/>
<path d="M139.442 47.6207C139.44 47.8882 139.358 48.1491 139.208 48.3704C139.057 48.5916 138.845 48.7634 138.597 48.8639C138.348 48.9645 138.076 48.9893 137.814 48.9354C137.552 48.8814 137.311 48.751 137.123 48.5606C136.935 48.3703 136.808 48.1285 136.757 47.8658C136.706 47.6031 136.735 47.3313 136.838 47.0847C136.942 46.8381 137.117 46.6277 137.34 46.4801C137.563 46.3325 137.825 46.2544 138.093 46.2555C138.272 46.2555 138.448 46.2909 138.613 46.3597C138.778 46.4285 138.928 46.5294 139.053 46.6564C139.179 46.7834 139.278 46.934 139.344 47.0996C139.411 47.2651 139.444 47.4423 139.442 47.6207Z" fill="black"/>
<path d="M253.725 243.646C253.725 243.914 253.646 244.176 253.497 244.399C253.348 244.621 253.137 244.795 252.889 244.897C252.641 245 252.369 245.026 252.106 244.974C251.843 244.922 251.602 244.793 251.412 244.604C251.223 244.414 251.094 244.173 251.042 243.911C250.989 243.648 251.016 243.376 251.119 243.128C251.221 242.881 251.395 242.669 251.618 242.521C251.841 242.372 252.103 242.293 252.371 242.293C252.73 242.293 253.074 242.435 253.329 242.689C253.583 242.943 253.725 243.287 253.725 243.646Z" fill="black"/>
<path d="M62.7449 246.314C62.7448 246.584 62.6644 246.847 62.514 247.07C62.3635 247.293 62.1499 247.467 61.9003 247.568C61.6508 247.669 61.3766 247.694 61.1129 247.639C60.8492 247.584 60.6079 247.452 60.4198 247.259C60.2318 247.066 60.1055 246.822 60.0572 246.557C60.0088 246.292 60.0406 246.019 60.1484 245.772C60.2562 245.525 60.4351 245.316 60.6624 245.172C60.8896 245.027 61.1549 244.954 61.4242 244.96C61.778 244.968 62.1148 245.114 62.3619 245.367C62.6089 245.621 62.7465 245.961 62.7449 246.314Z" fill="black"/>
<path d="M229.046 223.947L75.592 149.104C69.8993 146.316 66.3925 140.81 66.8366 135.298L70.4059 91.4961C71.1175 82.8155 80.9888 77.8949 90.3306 81.5754L236.663 139.399C242.413 141.674 246.369 146.692 246.682 152.113L250.217 212.929C250.798 222.946 239.282 228.936 229.046 223.947Z" stroke="black" stroke-width="2.05" stroke-miterlimit="10"/>
<path d="M54.3182 165.577L44.1111 166.357C37.7808 166.846 33.0444 173.257 33.9211 180.157L37.832 210.983C38.7656 218.378 45.6197 222.724 52.007 220.011L262.741 130.4C270.017 127.305 272.26 117.083 266.994 111.059L243.181 83.72C241.769 82.0446 239.837 80.8901 237.691 80.4405C235.546 79.991 233.312 80.2724 231.346 81.2398L57.9218 164.605C56.7924 165.152 55.5699 165.482 54.3182 165.577V165.577Z" stroke="black" stroke-width="2.17" stroke-miterlimit="10"/>
<g style="mix-blend-mode:multiply">
<path d="M239.905 207.388L69.1903 161.823C62.8372 160.117 58.1919 155.344 57.5486 149.837L52.4252 106.087C51.4005 97.4122 60.4406 90.7623 70.642 92.6793L230.734 122.8C236.996 123.983 242.045 128.204 243.451 133.477L259.214 192.683C261.776 202.422 251.284 210.426 239.905 207.388Z" fill="#D9D9D9"/>
</g>
<path d="M254.307 204.396C251.039 209.259 243.974 211.996 236.534 210.005L65.8137 164.428C59.4663 162.722 54.821 157.955 54.1721 152.443L49.0486 108.698C48.2971 102.27 53.0677 96.9514 59.7396 95.4155C62.2121 94.8507 64.7754 94.8081 67.2654 95.2904L227.357 125.439C233.619 126.623 238.669 130.843 240.069 136.117L255.809 195.294C256.24 196.829 256.329 198.439 256.069 200.012C255.809 201.584 255.208 203.081 254.307 204.396Z" fill="#BF4C26"/>
<g style="mix-blend-mode:multiply">
<path d="M254.307 204.396C251.039 209.259 243.974 211.996 236.534 210.005L65.8137 164.428C59.4663 162.722 54.821 157.955 54.1721 152.443L49.0486 108.698C48.2971 102.27 53.0677 96.9514 59.7396 95.4155L254.307 204.396Z" fill="#D9D9D9"/>
</g>
<path d="M67.8097 107.373C69.7055 107.373 71.2424 105.837 71.2424 103.943C71.2424 102.048 69.7055 100.512 67.8097 100.512C65.9138 100.512 64.377 102.048 64.377 103.943C64.377 105.837 65.9138 107.373 67.8097 107.373Z" fill="url(#paint0_radial_157_3223)"/>
<path d="M227.64 194.407C229.536 194.407 231.072 192.871 231.072 190.977C231.072 189.082 229.536 187.546 227.64 187.546C225.744 187.546 224.207 189.082 224.207 190.977C224.207 192.871 225.744 194.407 227.64 194.407Z" fill="url(#paint1_radial_157_3223)"/>
<path d="M179.775 91.0411L189.647 61.4324" stroke="black" stroke-width="2.05" stroke-miterlimit="10" stroke-linecap="round"/>
<path d="M154.375 90.1593L130.096 70.5283" stroke="black" stroke-width="2.05" stroke-miterlimit="10" stroke-linecap="round"/>
<path d="M168.25 83.8053L164.441 68.6739" stroke="black" stroke-width="2.05" stroke-miterlimit="10" stroke-linecap="round"/>
<path d="M134.708 213.31L113.707 236.405" stroke="black" stroke-width="2.05" stroke-miterlimit="10" stroke-linecap="round"/>
<path d="M157.586 224.374L171.858 252.134" stroke="black" stroke-width="2.05" stroke-miterlimit="10" stroke-linecap="round"/>
<path d="M142.323 224.584L139.688 239.96" stroke="black" stroke-width="2.05" stroke-miterlimit="10" stroke-linecap="round"/>
<g style="mix-blend-mode:multiply">
<path d="M248.984 171.158L74.1763 196.887C70.8812 197.407 67.5058 196.954 64.4645 195.584C62.073 194.52 60.0703 192.741 58.7319 190.493L36.6611 152.38C32.289 144.82 37.9476 135.138 48.0466 132.863L206.988 97.1505C210.502 96.324 214.185 96.6062 217.531 97.9583C219.631 98.8044 221.477 100.176 222.894 101.94L260.83 150.059C267.104 157.938 260.671 169.446 248.984 171.158Z" fill="#D9D9D9"/>
</g>
<path d="M252.331 172.091L77.5236 197.82C74.229 198.338 70.8545 197.888 67.8118 196.523C65.4179 195.449 63.4154 193.66 62.0792 191.403L40.0084 153.29C35.6363 145.73 41.2949 136.048 51.4223 133.779L210.364 98.0606C213.877 97.2337 217.561 97.516 220.907 98.8684C223.007 99.7132 224.854 101.085 226.27 102.85L264.212 150.975C270.457 158.888 263.99 170.379 252.331 172.091Z" fill="#FFA417"/>
<path d="M252.332 172.091L77.5243 197.82C74.2297 198.338 70.8553 197.888 67.8125 196.523L220.908 98.8684C223.008 99.7132 224.855 101.085 226.27 102.85L264.213 150.975C270.458 158.888 263.991 170.379 252.332 172.091Z" fill="#FA9800"/>
<path d="M60.5637 104.045L230.327 122.481C236.641 123.164 241.793 127.163 243.244 132.499L254.749 174.918C257.026 183.326 249.415 191.301 239.379 190.994L82.088 186.193C75.917 186.005 70.4861 182.62 68.3514 177.631L44.3792 121.583C40.4398 112.362 49.2408 102.822 60.5637 104.045Z" stroke="black" stroke-width="2.05" stroke-miterlimit="10"/>
<path d="M95.9044 164.76L89.904 147.688L92.0463 147.536L96.6945 161.457L96.8646 161.445L99.5614 147.002L101.942 146.832L106.658 160.749L106.828 160.737L109.457 146.298L111.599 146.146L108.078 163.895L105.902 164.049L101.071 150.449L100.935 150.458L98.0808 164.605L95.9044 164.76ZM115.466 163.369L114.226 145.959L116.334 145.809L117.441 161.349L125.534 160.774L125.667 162.644L115.466 163.369ZM141.412 149.494L139.303 149.644C139.135 149.047 138.879 148.529 138.535 148.093C138.196 147.655 137.795 147.296 137.33 147.016C136.871 146.73 136.37 146.526 135.826 146.405C135.282 146.285 134.721 146.245 134.143 146.286C133.088 146.361 132.152 146.695 131.335 147.289C130.522 147.882 129.901 148.715 129.47 149.788C129.046 150.861 128.887 152.151 128.994 153.658C129.102 155.166 129.442 156.42 130.014 157.422C130.592 158.423 131.326 159.16 132.214 159.632C133.107 160.104 134.081 160.303 135.135 160.228C135.714 160.187 136.263 160.068 136.785 159.871C137.306 159.675 137.774 159.405 138.188 159.062C138.608 158.714 138.954 158.299 139.227 157.818C139.506 157.331 139.686 156.783 139.768 156.173L141.877 156.023C141.781 156.924 141.549 157.741 141.18 158.474C140.81 159.206 140.331 159.841 139.743 160.379C139.154 160.91 138.481 161.331 137.722 161.642C136.97 161.951 136.154 162.138 135.276 162.2C133.791 162.306 132.445 162.037 131.237 161.394C130.029 160.75 129.046 159.784 128.288 158.493C127.529 157.203 127.085 155.64 126.954 153.803C126.823 151.967 127.042 150.357 127.61 148.972C128.177 147.587 129.014 146.491 130.118 145.683C131.223 144.876 132.517 144.419 134.002 144.314C134.881 144.251 135.714 144.32 136.503 144.52C137.298 144.72 138.024 145.044 138.683 145.493C139.341 145.936 139.905 146.494 140.374 147.167C140.843 147.834 141.189 148.61 141.412 149.494ZM159.741 151.472C159.872 153.308 159.653 154.919 159.085 156.303C158.518 157.688 157.681 158.784 156.577 159.592C155.472 160.4 154.178 160.856 152.693 160.962C151.208 161.067 149.862 160.798 148.654 160.155C147.446 159.512 146.463 158.545 145.705 157.255C144.946 155.964 144.502 154.401 144.371 152.565C144.24 150.729 144.459 149.118 145.027 147.734C145.594 146.349 146.431 145.253 147.535 144.445C148.64 143.637 149.934 143.181 151.419 143.075C152.904 142.97 154.25 143.238 155.458 143.882C156.666 144.525 157.649 145.492 158.407 146.782C159.166 148.072 159.61 149.636 159.741 151.472ZM157.701 151.617C157.593 150.11 157.251 148.855 156.672 147.854C156.1 146.852 155.367 146.115 154.473 145.644C153.585 145.171 152.614 144.973 151.56 145.047C150.505 145.122 149.569 145.457 148.752 146.05C147.939 146.643 147.318 147.477 146.887 148.55C146.463 149.622 146.304 150.912 146.411 152.42C146.519 153.927 146.858 155.182 147.431 156.184C148.009 157.185 148.742 157.922 149.631 158.394C150.524 158.866 151.498 159.064 152.552 158.989C153.607 158.915 154.54 158.58 155.352 157.987C156.17 157.394 156.791 156.561 157.216 155.488C157.647 154.415 157.808 153.125 157.701 151.617ZM162.666 142.515L165.183 142.336L172.129 156.367L172.333 156.353L177.22 141.48L179.737 141.301L180.977 158.711L179.004 158.852L178.062 145.624L177.892 145.636L173.393 159.251L171.489 159.386L165.106 146.545L164.936 146.557L165.878 159.785L163.906 159.925L162.666 142.515ZM185.204 158.411L183.964 141L194.472 140.253L194.605 142.124L186.206 142.721L186.624 148.604L194.48 148.045L194.613 149.915L186.758 150.474L187.179 156.391L195.714 155.784L195.847 157.654L185.204 158.411ZM200.652 139.814L201.373 152.34L199.401 152.48L198.34 139.978L200.652 139.814ZM200.745 157.443C200.326 157.472 199.955 157.348 199.634 157.069C199.312 156.79 199.136 156.441 199.106 156.021C199.076 155.602 199.201 155.231 199.48 154.909C199.759 154.588 200.108 154.412 200.527 154.382C200.947 154.352 201.317 154.477 201.639 154.756C201.961 155.035 202.137 155.384 202.167 155.804C202.186 156.081 202.134 156.341 202.009 156.584C201.889 156.826 201.718 157.026 201.496 157.184C201.279 157.336 201.029 157.422 200.745 157.443Z" fill="white"/>
<path d="M77.0851 187.546C78.9809 187.546 80.5178 186.011 80.5178 184.116C80.5178 182.222 78.9809 180.686 77.0851 180.686C75.1892 180.686 73.6523 182.222 73.6523 184.116C73.6523 186.011 75.1892 187.546 77.0851 187.546Z" fill="url(#paint2_radial_157_3223)"/>
<path d="M189.927 122.089C191.823 122.089 193.36 120.553 193.36 118.659C193.36 116.764 191.823 115.229 189.927 115.229C188.031 115.229 186.494 116.764 186.494 118.659C186.494 120.553 188.031 122.089 189.927 122.089Z" fill="url(#paint3_radial_157_3223)"/>
<g style="mix-blend-mode:multiply">
<path d="M236.556 60.1241L198.096 83.6915L201.984 78.9018L228.643 46.045L233.835 55.2888L236.556 60.1241Z" fill="#D9D9D9"/>
</g>
<path d="M234.626 59.0148L196.166 82.5766L200.054 77.7869L226.713 44.9301L231.905 54.1739L234.626 59.0148Z" fill="#FFA417"/>
<g style="mix-blend-mode:multiply">
<path d="M234.626 59.0148L196.166 82.5766L200.054 77.7869L231.905 54.1739L234.626 59.0148Z" fill="#EDEDED"/>
</g>
<g style="mix-blend-mode:multiply">
<path d="M74.2207 234.021L119.899 206.034L115.277 211.723L83.6194 250.746L77.4542 239.773L74.2207 234.021Z" fill="#D9D9D9"/>
</g>
<path d="M71.2773 233.407L116.962 205.42L112.339 211.108L80.6818 250.131L74.5108 239.153L71.2773 233.407Z" fill="#FFA417"/>
<g style="mix-blend-mode:multiply">
<path d="M71.2773 233.407L116.962 205.42L112.339 211.108L74.5108 239.153L71.2773 233.407Z" fill="#EDEDED"/>
</g>
<g style="mix-blend-mode:multiply">
<path d="M15.3164 161.448L34.3131 160.68L31.8937 161.641L15.3335 168.251L15.3221 163.786L15.3164 161.448Z" fill="#D9D9D9"/>
</g>
<path d="M14.8281 160.634L33.8248 159.866L31.4054 160.828L14.8452 167.438L14.8338 162.972L14.8281 160.634Z" fill="#FFA417"/>
<g style="mix-blend-mode:multiply">
<path d="M14.8281 160.634L33.8248 159.866L31.4054 160.828L14.8338 162.972L14.8281 160.634Z" fill="#EDEDED"/>
</g>
<g style="mix-blend-mode:multiply">
<path d="M181.711 238.185L166.773 207.576L192.562 232.093L185.44 236.092L181.711 238.185Z" fill="#EBEBEB"/>
</g>
<path d="M184.939 235.99L166.773 206.387L170.468 209.385L195.789 229.897L188.668 233.891L184.939 235.99Z" fill="#FF6F00"/>
<g style="mix-blend-mode:multiply">
<path d="M184.939 235.99L166.773 206.387L170.468 209.385L188.668 233.891L184.939 235.99Z" fill="#D9D9D9"/>
</g>
<path d="M277.132 183.513L264.637 177.074L266.544 177.336L279.614 179.127L277.986 182.006L277.132 183.513Z" fill="black"/>
<g style="mix-blend-mode:multiply">
<path d="M277.132 183.513L264.637 177.074L266.544 177.336L277.986 182.006L277.132 183.513Z" fill="black"/>
</g>
<g style="mix-blend-mode:multiply">
<path d="M26.5039 123.835L36.9843 128.83L35.4074 128.665L24.5684 127.516L25.8378 125.104L26.5039 123.835Z" fill="#D9D9D9"/>
</g>
<path d="M26.5039 122.925L36.9843 127.92L35.4074 127.749L24.5684 126.606L25.8378 124.188L26.5039 122.925Z" fill="black"/>
<g style="mix-blend-mode:multiply">
<path d="M101.357 59.0489L124.043 83.6915L119.995 81.5413L92.2148 66.8251L98.215 61.7225L101.357 59.0489Z" fill="#D9D9D9"/>
</g>
<path d="M101.357 56.8361L124.043 81.4787L119.995 79.3284L92.2148 64.6123L98.215 59.5097L101.357 56.8361Z" fill="#FF6F00"/>
<g style="mix-blend-mode:multiply">
<path d="M101.357 56.8361L124.043 81.4787L119.995 79.3284L98.2148 59.5097L101.357 56.8361Z" fill="#D9D9D9"/>
</g>
<path d="M284.42 139.558L259.076 138.506L262.395 137.488L285.143 130.508L284.671 136.447L284.42 139.558Z" fill="#FF6F00"/>
<g style="mix-blend-mode:multiply">
<path d="M284.42 139.558L259.076 138.506L262.395 137.488L284.671 136.447L284.42 139.558Z" fill="#D9D9D9"/>
</g>
<path d="M75.1937 177.097L69.444 176.34L66.3073 181.221L60.5519 180.464L57.4209 185.345L51.6655 184.588L48.5288 189.469L42.7734 188.718" stroke="#FF5400" stroke-width="1.03" stroke-miterlimit="10"/>
<path d="M252.285 112.845L246.536 112.089L243.405 116.969L237.649 116.213L234.513 121.099L228.757 120.337L225.621 125.223L219.865 124.467" stroke="#FF5400" stroke-width="1.03" stroke-miterlimit="10"/>
<path d="M87.7475 92.9467L85.8746 87.7758L80.5803 86.2741L78.7131 81.0975L73.4188 79.5958L71.5459 74.4192L66.246 72.9118L64.373 67.7353" stroke="#FFA618" stroke-width="1.03" stroke-miterlimit="10"/>
<path d="M234.164 240.341L233.828 234.681L228.739 232.184L228.403 226.53L223.314 224.032L222.978 218.372L217.883 215.875L217.547 210.209" stroke="#FFA618" stroke-width="1.03" stroke-miterlimit="10"/>
<path d="M84.7122 118.471L87.7692 121.082L91.2019 118.977L89.6649 122.698L92.7276 125.309L88.7142 124.996L87.1714 128.71L86.2321 124.797L82.2188 124.484L85.6515 122.379L84.7122 118.471Z" fill="#A84900"/>
<path d="M209.964 175.043L209.651 179.054L213.374 180.589L209.457 181.534L209.144 185.544L207.038 182.114L203.121 183.058L205.734 179.998L203.628 176.568L207.351 178.104L209.964 175.043Z" fill="#A84900"/>
<path d="M240.12 87.1046L239.807 91.115L243.524 92.6509L239.613 93.5952L239.3 97.6056L237.194 94.1754L233.277 95.1197L235.89 92.0536L233.784 88.6291L237.507 90.165L240.12 87.1046Z" fill="#A84900"/>
<path d="M50.6532 202.661L50.3401 206.671L54.0575 208.207L50.1466 209.151L49.8335 213.162L47.7272 209.732L43.8105 210.676L46.4235 207.615L44.3172 204.185L48.0403 205.721L50.6532 202.661Z" fill="#A84900"/>
<defs>
<radialGradient id="paint0_radial_157_3223" cx="0" cy="0" r="1" gradientUnits="userSpaceOnUse" gradientTransform="translate(67.8097 103.943) scale(3.43273 3.43016)">
<stop stop-color="white"/>
<stop offset="0.36" stop-color="#FFFAFA"/>
<stop offset="0.83" stop-color="#FFEDEA"/>
<stop offset="1" stop-color="#FFE7E2"/>
</radialGradient>
<radialGradient id="paint1_radial_157_3223" cx="0" cy="0" r="1" gradientUnits="userSpaceOnUse" gradientTransform="translate(227.64 190.977) scale(3.43273 3.43016)">
<stop stop-color="white"/>
<stop offset="0.36" stop-color="#FFFAFA"/>
<stop offset="0.83" stop-color="#FFEDEA"/>
<stop offset="1" stop-color="#FFE7E2"/>
</radialGradient>
<radialGradient id="paint2_radial_157_3223" cx="0" cy="0" r="1" gradientUnits="userSpaceOnUse" gradientTransform="translate(77.0851 184.116) scale(3.43274 3.43016)">
<stop stop-color="white"/>
<stop offset="0.36" stop-color="#FFFAFA"/>
<stop offset="0.83" stop-color="#FFEDEA"/>
<stop offset="1" stop-color="#FFE7E2"/>
</radialGradient>
<radialGradient id="paint3_radial_157_3223" cx="0" cy="0" r="1" gradientUnits="userSpaceOnUse" gradientTransform="translate(189.927 118.659) scale(3.43273 3.43016)">
<stop stop-color="white"/>
<stop offset="0.36" stop-color="#FFFAFA"/>
<stop offset="0.83" stop-color="#FFEDEA"/>
<stop offset="1" stop-color="#FFE7E2"/>
</radialGradient>
</defs>
</svg>
