<svg width="43" height="43" viewBox="0 0 64 64" fill="none" xmlns="http://www.w3.org/2000/svg">
<circle opacity="0.3" cx="32" cy="32" r="31.5" fill="white" stroke="black"/>
<path d="M51.4191 38.094C50.9556 38.2472 50.4717 38.3881 49.9861 38.5291C50.3247 38.1841 50.5627 37.7559 50.6752 37.2893C50.7877 36.8227 50.7706 36.335 50.6256 35.8771C49.7782 36.5427 49.0334 36.8551 49.059 38.2428C49.3695 38.6248 50.2736 36.7768 50.324 36.8307C50.1387 37.6103 49.6919 38.3057 49.0555 38.8049C48.208 39.0555 47.357 39.2948 46.5034 39.4749C47.3668 38.5543 47.879 37.1657 47.4048 36.1825C46.3 37.023 45.5357 37.4049 45.5587 38.9667C45.9408 39.3948 46.9519 37.2936 47.0492 37.3031C46.8403 38.2357 46.3033 39.0659 45.533 39.6471C44.8848 39.7464 44.2296 39.7949 43.5736 39.7924C41.0622 39.8046 38.6199 39.0799 36.2137 38.7336C34.8289 38.5481 33.4198 38.6575 32.0818 39.0546C30.1667 38.5303 28.1435 38.5219 26.224 39.0302C23.3163 39.6584 20.099 40.184 17.1338 39.3487C16.6864 38.8284 16.3613 38.2172 16.182 37.559C16.2616 37.5442 17.2205 39.5001 17.546 39.0825C17.5646 37.5164 16.7101 37.224 15.8556 36.5297C15.704 36.9745 15.6718 37.4502 15.762 37.9108C15.8522 38.3715 16.0617 38.8014 16.3704 39.159C15.6503 38.9685 14.9338 38.7518 14.2199 38.5395C13.7756 38.0496 13.455 37.4636 13.284 36.829C13.3637 36.8246 14.2456 38.6257 14.549 38.2411C14.5694 36.8037 13.775 36.5157 12.9824 35.8754C12.8444 36.2878 12.8158 36.728 12.8993 37.1543C12.9827 37.5807 13.1754 37.979 13.4592 38.3116C12.5809 38.1013 11.748 37.738 11 37.2388C11.9284 38.059 13.0154 38.6866 14.196 39.0842C15.9166 39.8907 17.7529 40.4324 19.6407 40.6903C21.8162 40.8083 23.9955 40.5404 26.0745 39.8994C27.3859 39.4813 28.7493 39.2416 30.1268 39.1869C31.4195 39.4242 32.7458 39.4242 34.0385 39.1869C35.416 39.2416 36.7794 39.4813 38.0909 39.8994C40.1699 40.5405 42.3491 40.8084 44.5246 40.6903C46.4124 40.4325 48.2488 39.8908 49.9693 39.0842C51.1504 38.6876 52.2376 38.0599 53.1653 37.2388C52.6336 37.6141 52.0441 37.9029 51.4191 38.094Z" fill="#BF4C26"/>
<path d="M42.4644 16.9983C40.7112 17.7483 38.5395 18.4269 36.8862 19.2787C36.1174 19.6723 35.4761 20.2699 35.0351 21.0038C34.5942 21.7377 34.3713 22.5785 34.3916 23.4307C34.7596 27.4626 35.6973 34.4519 36.4094 38.1567C34.9625 37.9311 33.4824 38.0304 32.0801 38.4473C30.165 37.9229 28.1418 37.9145 26.2223 38.4229C24.0273 38.9749 21.7636 39.216 19.4993 39.139C18.9936 38.5139 18.6128 37.8004 18.3768 37.036C18.2077 36.4786 18.1079 35.9031 18.0796 35.322C17.8894 33.7045 19.8346 32.0418 20.5653 31.5502C19.6378 33.014 19.0909 34.6799 18.973 36.4009C18.9806 36.4753 18.996 36.5488 19.019 36.6201C19.7869 36.5853 20.8811 32.9963 21.4676 31.8026C21.487 31.7625 21.5065 31.7234 21.5268 31.6842L21.5578 31.6242L21.5896 31.565L21.6224 31.505L21.6525 31.4519L21.6861 31.3936L21.7206 31.3353L21.756 31.277C21.7922 31.2187 21.8294 31.1613 21.8674 31.103L21.9055 31.0456L21.9453 30.9873C21.9745 30.9438 22.0054 30.9003 22.0337 30.855C22.2496 30.5523 22.4911 30.246 22.7476 29.9397C22.867 29.7944 22.9953 29.643 23.1386 29.4751C19.8771 30.1999 18.5387 31.6329 17.8867 32.6631C17.9902 32.1045 18.0946 31.5624 18.2061 31.0143C18.3175 30.4661 18.4361 29.9119 18.5661 29.3289C18.6093 29.0172 18.7123 28.7164 18.8695 28.4423C19.0349 28.17 19.2012 27.9151 19.3613 27.6828C19.4719 27.5305 19.5781 27.3887 19.6674 27.2616C19.7895 27.1033 19.9169 26.9441 20.0451 26.8014C23.4659 23.9441 25.0122 24.7732 25.0122 24.7732C24.7601 24.8415 24.5137 24.9288 24.2753 25.0343C23.4534 25.412 22.6785 25.8815 21.9656 26.4333C22.1169 26.4525 22.2629 26.4673 22.4079 26.4795C24.3939 26.6883 26.7681 26.1558 27.5669 24.1711C27.6165 24.0529 27.6555 23.9306 27.6837 23.8057C26.31 23.7337 24.9334 23.7337 23.5597 23.8057C23.5597 23.4368 26.4647 21.5009 27.4519 21.0859C29.1999 20.6682 30.6285 21.9881 29.7165 21.7715C28.9119 21.7009 28.1012 21.7493 27.3112 21.9151C27.3112 21.9151 27.4837 22.0369 27.7535 22.2135C28.2643 22.5654 28.8096 22.8662 29.3812 23.1114C30.3678 23.2488 31.3731 23.1644 32.3216 22.8643C32.4915 22.8199 32.5968 22.7895 32.5968 22.7895C32.0005 22.1804 30.5834 20.4151 28.9044 20.3785C31.2714 19.2358 33.5639 17.9496 35.7689 16.5276C37.6283 15.3614 39.3474 13.9919 40.8934 12.4452C40.9412 12.5174 40.9819 12.5905 41.0314 12.6636C41.6052 13.5967 42.0637 14.5939 42.3972 15.634C42.5211 16.0534 42.9855 16.699 42.4644 16.9983Z" fill="#BF4C26"/>
<path d="M19.3177 27.7602L19.3708 27.6862C19.2107 27.9177 19.0443 28.1726 18.8789 28.4458C18.9028 28.4015 18.9276 28.3588 18.9523 28.3145L18.9585 28.304C19.0665 28.1195 19.1877 27.9429 19.3053 27.7776L19.3177 27.7602Z" fill="#BF4C26"/>
<path d="M21.5908 31.5694L21.559 31.6286L21.528 31.6886C21.5077 31.7277 21.4882 31.7678 21.4688 31.8069C21.5086 31.7251 21.5475 31.6477 21.5908 31.5694Z" fill="#BF4C26"/>
<path d="M21.6551 31.4528L21.625 31.5067L21.6454 31.4705L21.6551 31.4528Z" fill="#BF4C26"/>
<path d="M21.5904 31.5694L21.5586 31.6295L21.5904 31.5694Z" fill="#BF4C26"/>
<path d="M21.6473 31.4705L21.657 31.4528L21.627 31.5067L21.6473 31.4705Z" fill="#BF4C26"/>
<path d="M21.7344 31.3232L21.7724 31.2597L21.7609 31.2791L21.7344 31.3232Z" fill="#BF4C26"/>
<path d="M21.9437 30.9969L21.8711 31.1048L21.9092 31.0474L21.9437 30.9969Z" fill="#BF4C26"/>
<path d="M33.6875 14.616C33.6875 14.6404 33.6875 14.6648 33.6875 14.6891C33.6875 14.7283 33.6875 14.7674 33.6875 14.8066C33.6893 14.7474 33.6884 14.6839 33.6875 14.616Z" fill="#BF4C26"/>
<path d="M26.2212 11.8588C25.5143 12.3269 24.9302 12.9531 24.5166 13.686C24.1115 14.3046 23.7204 14.9362 23.371 15.5879C21.5196 19.1589 20.1099 22.9353 19.1719 26.8362C19.2179 26.7971 24.0867 22.6059 25.2552 21.6402C26.3397 20.7448 28.4646 20.0818 28.5159 15.6045C28.5159 15.6105 28.5159 15.6166 28.5159 15.6236C28.5159 15.2338 28.5159 14.8501 28.4885 14.4499C28.254 14.9571 27.7852 19.2892 26.8962 18.5984C26.6293 17.9006 26.4706 17.1674 26.4256 16.4232C26.1425 14.9954 28.2284 12.5079 28.3496 12.1024C29.2615 13.0909 29.741 14.3927 29.6844 15.7262C29.6406 16.5177 29.5138 17.3027 29.3058 18.0685C29.1483 18.7174 28.8657 19.3305 28.4734 19.8748L28.8096 19.7129C29.496 19.3788 30.3187 18.9594 31.2148 18.4722C32.1109 17.985 33.0822 17.4281 34.0659 16.8287C34.7309 16.0418 35.062 15.033 34.9903 14.0122C34.9903 13.9507 34.9903 13.889 34.9903 13.8269C34.9903 13.6277 34.9841 13.4267 34.9726 13.2178C34.8266 13.5337 34.5347 16.2309 33.9809 15.8002C33.8245 15.3874 33.7274 14.9552 33.6926 14.516C33.6926 14.5508 33.6926 14.5847 33.6881 14.6195C33.6541 14.2513 33.7043 13.8803 33.835 13.5337C34.2437 12.6436 34.8266 11.9554 34.885 11.7544C35.1755 12.0695 35.3984 12.4389 35.5405 12.8405C35.6826 13.2422 35.741 13.6679 35.7121 14.0923C35.7121 14.1227 35.7121 14.154 35.7051 14.1854C35.7051 14.1488 35.7094 14.1131 35.7112 14.0766C35.674 14.7582 35.5246 15.4293 35.2689 16.0638L35.4458 15.9473C35.851 15.6819 36.2535 15.4096 36.648 15.1329C37.0425 14.8562 37.4291 14.5743 37.8042 14.2889C38.2392 13.7861 38.4592 13.1372 38.4181 12.4783C38.4181 12.4853 38.4181 12.4931 38.4181 12.5009C38.4181 12.306 38.4181 12.1311 38.4092 11.9249C38.3146 12.1303 38.1244 13.8861 37.7635 13.6059C37.6703 13.3583 37.6088 13.1002 37.5804 12.8376C37.5804 12.8376 37.5804 12.8376 37.5804 12.8428C37.4035 12.2225 38.2712 11.1784 38.3517 10.9757C38.5494 11.1906 38.6989 11.4441 38.7903 11.7197C38.8817 11.9952 38.9132 12.2866 38.8825 12.5749V12.5696C38.8542 12.9197 38.7838 13.2652 38.6729 13.5989C39.0011 13.3257 39.323 13.0447 39.63 12.7611C39.9369 12.4774 40.2271 12.192 40.4898 11.9092C36.1482 8.95274 30.5576 9.3878 26.2212 11.8588ZM33.6881 14.6195C33.6881 14.6839 33.6881 14.7474 33.6881 14.8101C33.6881 14.7709 33.6881 14.7318 33.6881 14.6926C33.6873 14.6683 33.6873 14.6439 33.6881 14.6195Z" fill="#BF4C26"/>
<path d="M19.3178 27.7593C19.3608 27.6973 19.4033 27.6373 19.4452 27.5793L19.37 27.6863C19.2098 27.9177 19.0436 28.1726 18.8781 28.4458C18.8224 28.5372 18.7667 28.6303 18.7109 28.726C18.7888 28.5845 18.869 28.4473 18.9515 28.3144L18.9577 28.304C19.0727 28.1187 19.1895 27.9429 19.3045 27.7776L19.3178 27.7593Z" fill="#BF4C26"/>
<path d="M19.6767 27.2642C19.6051 27.3599 19.529 27.4627 19.4512 27.5705C19.5246 27.4627 19.6033 27.3599 19.6767 27.2642Z" fill="#BF4C26"/>
<path d="M36.5967 38.108L36.6091 38.1889C38.4968 38.4874 40.3677 38.9902 42.3466 39.1312C42.5111 37.9705 40.2891 36.4113 39.7265 34.2179C39.6488 33.8701 39.5528 33.5266 39.4389 33.1886C39.2184 32.2597 39.1083 31.3087 39.1107 30.3548C39.1142 30.3305 39.1127 30.3059 39.1062 30.2822C39.0997 30.2586 39.0884 30.2365 39.073 30.2172C39.0577 30.198 39.0386 30.182 39.0168 30.1702C38.995 30.1584 38.9709 30.151 38.9462 30.1486C38.7598 30.1045 38.5752 30.0543 38.3924 29.9981C37.3058 29.6914 36.2862 29.1899 35.3848 28.5189C35.4653 29.3072 35.5484 30.1111 35.6342 30.9107C35.858 32.965 36.2667 35.9232 36.5967 38.108Z" fill="#BF4C26"/>
<path d="M42.4325 21.4052C41.8832 20.7161 43.1526 19.3022 42.1672 17.4977C34.9816 20.2393 34.2518 19.8469 35.339 28.0447C39.041 29.3498 44.575 31.1222 43.7921 27.3417C43.77 27.2034 44.1629 26.7666 44.2584 26.5038C44.2584 26.2906 43.9789 26.2898 43.8161 26.3446C43.6391 26.3892 43.4551 26.4004 43.2738 26.3776C43.2304 26.3524 43.4949 26.3281 43.5285 26.2976C43.6897 26.2494 43.8414 26.1747 43.9771 26.0766C44.5079 25.4189 44.1133 25.4571 43.6612 24.8672C43.4843 24.5871 43.4366 24.3373 44.0151 24.1911C46.0364 23.837 42.467 21.567 42.4325 21.4052ZM38.4191 20.7092C38.8931 20.0587 39.4984 19.5113 40.1971 19.1012C40.6883 18.9387 41.191 18.812 41.701 18.7219C41.7572 18.718 41.8131 18.7316 41.8608 18.761C41.9085 18.7905 41.9455 18.834 41.9663 18.8855C42.0344 19.0221 42.1008 19.2744 41.8779 19.2979C41.3921 19.3496 40.9117 19.4424 40.4421 19.5754C39.8264 19.9116 39.2549 20.3207 38.7402 20.7935C38.6235 20.8901 38.2289 21.1459 38.4191 20.7048V20.7092ZM42.1345 20.6848C42.0733 20.8154 41.9738 20.9251 41.8487 20.9997C41.854 21.0241 41.8601 21.0476 41.8663 21.072C41.8302 21.1009 41.8027 21.1389 41.7865 21.1819C41.7704 21.2249 41.7664 21.2714 41.7748 21.3165C41.7832 21.3615 41.8038 21.4036 41.8344 21.4382C41.865 21.4728 41.9044 21.4986 41.9486 21.5131C41.9473 21.5518 41.9421 21.5903 41.9327 21.6279C42.0769 21.621 42.1866 21.7489 42.0212 21.8263C41.5524 22.1047 41.0561 21.8776 40.5846 21.7506C40.1891 21.7636 39.7949 21.7993 39.4037 21.8577C39.3802 21.8619 39.3559 21.8568 39.3363 21.8435C39.3166 21.8302 39.3032 21.8098 39.2988 21.7867C39.2945 21.7636 39.2997 21.7398 39.3132 21.7205C39.3267 21.7011 39.3475 21.6879 39.371 21.6836C39.6991 21.6329 40.0299 21.5998 40.3617 21.5844C40.7933 21.3436 41.2071 21.0732 41.6002 20.7753C41.5568 20.6569 41.5187 20.5429 41.4727 20.4272C41.2958 20.0148 40.7553 20.5664 40.5474 20.71C40.2821 20.9162 39.5744 21.3886 39.4974 21.4382L39.3417 21.373C39.7433 21.0546 40.1874 20.7639 40.5598 20.4159C41.2764 19.9234 41.4913 19.6328 41.8098 20.6586C41.8664 20.7109 42.1955 20.4838 42.1309 20.6804L42.1345 20.6848ZM43.5914 26.3872C44.0107 26.3359 43.939 26.3098 44.0337 26.3176C44.1018 26.3228 44.2106 26.3602 44.2354 26.4159C44.215 26.3602 44.1018 26.3237 44.0337 26.3176C43.9452 26.3098 44.0142 26.3359 43.5914 26.3872C43.5029 26.3986 43.226 26.4073 43.2481 26.4368C43.2224 26.4029 43.4949 26.395 43.5878 26.3837L43.5914 26.3872Z" fill="#BF4C26"/>
<path d="M25.2193 42.6628C25.0004 42.6471 24.7812 42.6896 24.5846 42.7858C24.3881 42.882 24.2214 43.0283 24.1021 43.2096C23.9827 43.3908 23.915 43.6003 23.9062 43.816C23.8973 44.0318 23.9476 44.2458 24.0517 44.436C24.0352 44.3114 24.0455 44.1848 24.082 44.0644C24.1185 43.944 24.1804 43.8326 24.2636 43.7372C24.3467 43.6418 24.4493 43.5647 24.5647 43.5109C24.6801 43.457 24.8057 43.4276 24.9334 43.4246C25.0611 43.4216 25.188 43.445 25.3059 43.4933C25.4238 43.5417 25.53 43.614 25.6177 43.7053C25.7054 43.7967 25.7726 43.9051 25.8149 44.0237C25.8572 44.1422 25.8737 44.2682 25.8633 44.3934C25.8633 46.6399 22.2745 45.0094 20.4372 45.0094C18.0691 44.8754 17.6065 47.7936 19.9224 48.0242C21.489 48.0572 21.8977 45.8264 20.1798 46.0735C20.7035 46.0735 20.7893 47.1794 19.879 47.1794C18.7538 47.1794 18.6255 45.2878 20.3514 45.2878C20.5645 45.2598 20.7812 45.2797 20.9854 45.3459C21.1896 45.412 21.376 45.5227 21.5304 45.6698C21.6849 45.8169 21.8035 45.9965 21.8774 46.1951C21.9513 46.3937 21.9784 46.6062 21.9569 46.8166V49.9409C21.9481 50.9711 21.5146 50.9963 21.5146 50.9963C21.5116 51.0185 21.5137 51.0411 21.5208 51.0624C21.5278 51.0837 21.5396 51.1031 21.5553 51.1193C21.571 51.1355 21.5903 51.148 21.6115 51.156C21.6328 51.1639 21.6556 51.167 21.6783 51.1651H23.6014C23.6239 51.1679 23.6468 51.1654 23.6681 51.1577C23.6894 51.1499 23.7085 51.1372 23.7237 51.1206C23.7389 51.104 23.7498 51.084 23.7555 51.0624C23.7612 51.0408 23.7614 51.0181 23.7562 50.9963C23.7562 50.9963 23.3272 50.9711 23.3272 49.9235V46.2249C27.4512 47.3177 28.2694 42.9108 25.2193 42.6628Z" fill="#BF4C26"/>
<path d="M29.143 45.5166C28.3363 45.5166 26.6016 45.6098 26.6016 48.3714C26.6016 50.584 27.6631 51.2174 29.143 51.2174C30.6229 51.2174 31.7013 50.6083 31.7013 48.3714C31.6986 45.5671 29.9418 45.5166 29.143 45.5166ZM29.143 50.7867C28.43 50.7867 27.993 50.3134 27.993 48.3888C27.993 46.3702 28.4309 45.9525 29.143 45.9525C29.8551 45.9525 30.3107 46.3493 30.3107 48.3888C30.3107 50.4282 29.8471 50.7867 29.143 50.7867Z" fill="#BF4C26"/>
<path d="M41.044 52.7712C39.2729 52.6939 37.5594 52.1293 36.0983 51.1417C35.9266 51.0547 35.6435 50.8041 35.6347 49.9679V48.2626C36.054 47.5292 37.0023 45.7107 37.6012 45.7629C37.6268 45.7289 37.6781 45.5889 37.5127 45.5889H36.3963C36.2336 45.5889 36.2247 45.6985 36.2336 45.7629C36.6467 45.7211 35.4702 47.677 35.2605 48.0346L34.6077 46.827C33.946 45.7881 34.3591 45.7629 34.3591 45.7629C34.3503 45.7115 34.3414 45.5889 34.1822 45.5889H32.2591C32.2367 45.5864 32.2141 45.5895 32.1934 45.5981C32.1726 45.6067 32.1545 45.6204 32.1407 45.6379C32.1269 45.6553 32.118 45.6761 32.1147 45.698C32.1114 45.7199 32.1139 45.7422 32.1219 45.7629C32.6385 45.6941 33.8461 47.8058 34.2512 48.4401C34.2238 49.0248 34.4157 50.9632 33.8221 50.9989C33.8185 51.0205 33.8199 51.0426 33.8261 51.0636C33.8324 51.0846 33.8433 51.1038 33.8582 51.12C33.8731 51.1362 33.8915 51.149 33.912 51.1573C33.9326 51.1655 33.9548 51.1691 33.977 51.1678C35.2818 51.1678 36.2009 53.1689 40.6115 53.1689C41.8393 53.1689 43.5474 52.7339 44.003 51.4375L43.8402 51.3191C43.8402 51.3191 43.3714 52.7286 41.044 52.7712Z" fill="#BF4C26"/>
<path d="M39.0607 49.9418C38.7599 50.9633 38.3221 50.986 38.3221 50.986C38.3132 51.0199 38.2708 51.1599 38.4335 51.1599H39.4897C39.5395 51.1597 39.5876 51.1421 39.6253 51.1102C39.6631 51.0783 39.6881 51.0343 39.6959 50.986C39.6959 50.986 39.2748 50.9607 39.5667 49.9218L39.8241 49.0439H41.2838L41.5332 49.9218C41.834 50.9607 41.4129 50.986 41.4129 50.986C41.4207 51.0343 41.4457 51.0783 41.4834 51.1102C41.5212 51.1421 41.5692 51.1597 41.6189 51.1599H43.5421C43.7049 51.1599 43.6624 51.0164 43.6536 50.986C43.6536 50.986 43.2157 50.9607 42.9158 49.9418L42.0144 46.8096C41.7313 45.7872 42.1515 45.7542 42.1515 45.7542C42.1399 45.7065 42.1125 45.664 42.0735 45.6334C42.0346 45.6028 41.9863 45.586 41.9365 45.5854H40.0134C39.9665 45.5863 39.9215 45.6039 39.8867 45.6349C39.8519 45.6659 39.8297 45.7083 39.8241 45.7542C39.8241 45.7542 40.2452 45.7881 39.9533 46.8096L39.0607 49.9418ZM40.4602 46.8252C40.4947 46.7234 40.5203 46.6312 40.5548 46.5468C40.6202 46.6791 41.1068 48.4462 41.1643 48.635H39.9453L40.4602 46.8252Z" fill="#BF4C26"/>
<path d="M35.6551 31.0856C35.6551 31.0543 35.6481 31.0204 35.6445 30.989C35.6481 31.0212 35.6516 31.0534 35.6551 31.0856Z" fill="#BF4C26"/>
</svg>
