<svg width="100" height="32" viewBox="0 0 150 52" fill="none" xmlns="http://www.w3.org/2000/svg">
<rect x="0.5" y="0.5" width="149" height="51" rx="7.5" stroke="#D9D9D9"/>
<path d="M12.2041 14.2281C12.142 14.4463 12.0996 14.6815 12.0996 14.9502V37.0534C12.0996 37.3181 12.142 37.5508 12.2017 37.7665L24.6071 26.0137C24.6071 26.0136 12.2041 14.2281 12.2041 14.2281Z" fill="#349886"/>
<path d="M29.4482 21.4266L14.9641 13.3697C14.3866 13.0186 13.8182 12.9296 13.3379 13.052L25.7956 24.8889L29.4482 21.4266Z" fill="#3DB39E"/>
<path d="M34.7886 24.3972L30.9227 22.2466L26.9629 25.9973L30.9962 29.8313L34.7575 27.7657C36.5937 26.7194 35.9239 25.0352 34.7886 24.3972Z" fill="#F4B459"/>
<path d="M13.3008 38.9377C13.7884 39.0741 14.3708 38.9925 14.9629 38.6322L29.4912 30.6555L25.7724 27.122C25.7724 27.1221 13.3008 38.9377 13.3008 38.9377Z" fill="#E2574C"/>
<path d="M56.0718 15.03C56.8318 15.03 57.4885 15.1733 58.0418 15.46C58.6018 15.74 59.0285 16.1433 59.3218 16.67C59.6218 17.1967 59.7718 17.8167 59.7718 18.53C59.7718 19.2433 59.6218 19.8633 59.3218 20.39C59.0285 20.91 58.6018 21.31 58.0418 21.59C57.4885 21.8633 56.8318 22 56.0718 22H53.9018V15.03H56.0718ZM56.0718 21.25C56.9718 21.25 57.6585 21.0133 58.1318 20.54C58.6052 20.06 58.8418 19.39 58.8418 18.53C58.8418 17.6633 58.6018 16.9867 58.1218 16.5C57.6485 16.0133 56.9652 15.77 56.0718 15.77H54.8118V21.25H56.0718ZM63.3621 22.09C62.8488 22.09 62.3821 21.9733 61.9621 21.74C61.5488 21.5067 61.2221 21.1767 60.9821 20.75C60.7488 20.3167 60.6321 19.8167 60.6321 19.25C60.6321 18.69 60.7521 18.1967 60.9921 17.77C61.2388 17.3367 61.5721 17.0067 61.9921 16.78C62.4121 16.5467 62.8821 16.43 63.4021 16.43C63.9221 16.43 64.3921 16.5467 64.8121 16.78C65.2321 17.0067 65.5621 17.3333 65.8021 17.76C66.0488 18.1867 66.1721 18.6833 66.1721 19.25C66.1721 19.8167 66.0455 20.3167 65.7921 20.75C65.5455 21.1767 65.2088 21.5067 64.7821 21.74C64.3555 21.9733 63.8821 22.09 63.3621 22.09ZM63.3621 21.29C63.6888 21.29 63.9955 21.2133 64.2821 21.06C64.5688 20.9067 64.7988 20.6767 64.9721 20.37C65.1521 20.0633 65.2421 19.69 65.2421 19.25C65.2421 18.81 65.1555 18.4367 64.9821 18.13C64.8088 17.8233 64.5821 17.5967 64.3021 17.45C64.0221 17.2967 63.7188 17.22 63.3921 17.22C63.0588 17.22 62.7521 17.2967 62.4721 17.45C62.1988 17.5967 61.9788 17.8233 61.8121 18.13C61.6455 18.4367 61.5621 18.81 61.5621 19.25C61.5621 19.6967 61.6421 20.0733 61.8021 20.38C61.9688 20.6867 62.1888 20.9167 62.4621 21.07C62.7355 21.2167 63.0355 21.29 63.3621 21.29ZM74.6686 16.52L72.9586 22H72.0186L70.6986 17.65L69.3786 22H68.4386L66.7186 16.52H67.6486L68.9086 21.12L70.2686 16.52H71.1986L72.5286 21.13L73.7686 16.52H74.6686ZM78.2418 16.42C78.9084 16.42 79.4484 16.6233 79.8618 17.03C80.2751 17.43 80.4818 18.01 80.4818 18.77V22H79.5818V18.9C79.5818 18.3533 79.4451 17.9367 79.1718 17.65C78.8984 17.3567 78.5251 17.21 78.0518 17.21C77.5718 17.21 77.1884 17.36 76.9018 17.66C76.6218 17.96 76.4818 18.3967 76.4818 18.97V22H75.5718V16.52H76.4818V17.3C76.6618 17.02 76.9051 16.8033 77.2118 16.65C77.5251 16.4967 77.8684 16.42 78.2418 16.42ZM82.8782 14.6V22H81.9682V14.6H82.8782ZM86.8192 22.09C86.3058 22.09 85.8392 21.9733 85.4192 21.74C85.0058 21.5067 84.6792 21.1767 84.4392 20.75C84.2058 20.3167 84.0892 19.8167 84.0892 19.25C84.0892 18.69 84.2092 18.1967 84.4492 17.77C84.6958 17.3367 85.0292 17.0067 85.4492 16.78C85.8692 16.5467 86.3392 16.43 86.8592 16.43C87.3792 16.43 87.8492 16.5467 88.2692 16.78C88.6892 17.0067 89.0192 17.3333 89.2592 17.76C89.5058 18.1867 89.6292 18.6833 89.6292 19.25C89.6292 19.8167 89.5025 20.3167 89.2492 20.75C89.0025 21.1767 88.6658 21.5067 88.2392 21.74C87.8125 21.9733 87.3392 22.09 86.8192 22.09ZM86.8192 21.29C87.1458 21.29 87.4525 21.2133 87.7392 21.06C88.0258 20.9067 88.2558 20.6767 88.4292 20.37C88.6092 20.0633 88.6992 19.69 88.6992 19.25C88.6992 18.81 88.6125 18.4367 88.4392 18.13C88.2658 17.8233 88.0392 17.5967 87.7592 17.45C87.4792 17.2967 87.1758 17.22 86.8492 17.22C86.5158 17.22 86.2092 17.2967 85.9292 17.45C85.6558 17.5967 85.4358 17.8233 85.2692 18.13C85.1025 18.4367 85.0192 18.81 85.0192 19.25C85.0192 19.6967 85.0992 20.0733 85.2592 20.38C85.4258 20.6867 85.6458 20.9167 85.9192 21.07C86.1925 21.2167 86.4925 21.29 86.8192 21.29ZM90.4857 19.24C90.4857 18.68 90.599 18.19 90.8257 17.77C91.0523 17.3433 91.3623 17.0133 91.7557 16.78C92.1557 16.5467 92.599 16.43 93.0857 16.43C93.5657 16.43 93.9823 16.5333 94.3357 16.74C94.689 16.9467 94.9523 17.2067 95.1257 17.52V16.52H96.0457V22H95.1257V20.98C94.9457 21.3 94.6757 21.5667 94.3157 21.78C93.9623 21.9867 93.549 22.09 93.0757 22.09C92.589 22.09 92.149 21.97 91.7557 21.73C91.3623 21.49 91.0523 21.1533 90.8257 20.72C90.599 20.2867 90.4857 19.7933 90.4857 19.24ZM95.1257 19.25C95.1257 18.8367 95.0423 18.4767 94.8757 18.17C94.709 17.8633 94.4823 17.63 94.1957 17.47C93.9157 17.3033 93.6057 17.22 93.2657 17.22C92.9257 17.22 92.6157 17.3 92.3357 17.46C92.0557 17.62 91.8323 17.8533 91.6657 18.16C91.499 18.4667 91.4157 18.8267 91.4157 19.24C91.4157 19.66 91.499 20.0267 91.6657 20.34C91.8323 20.6467 92.0557 20.8833 92.3357 21.05C92.6157 21.21 92.9257 21.29 93.2657 21.29C93.6057 21.29 93.9157 21.21 94.1957 21.05C94.4823 20.8833 94.709 20.6467 94.8757 20.34C95.0423 20.0267 95.1257 19.6633 95.1257 19.25ZM97.2435 19.24C97.2435 18.68 97.3568 18.19 97.5835 17.77C97.8101 17.3433 98.1201 17.0133 98.5135 16.78C98.9135 16.5467 99.3601 16.43 99.8535 16.43C100.28 16.43 100.677 16.53 101.043 16.73C101.41 16.9233 101.69 17.18 101.883 17.5V14.6H102.803V22H101.883V20.97C101.703 21.2967 101.437 21.5667 101.083 21.78C100.73 21.9867 100.317 22.09 99.8435 22.09C99.3568 22.09 98.9135 21.97 98.5135 21.73C98.1201 21.49 97.8101 21.1533 97.5835 20.72C97.3568 20.2867 97.2435 19.7933 97.2435 19.24ZM101.883 19.25C101.883 18.8367 101.8 18.4767 101.633 18.17C101.467 17.8633 101.24 17.63 100.953 17.47C100.673 17.3033 100.363 17.22 100.023 17.22C99.6835 17.22 99.3735 17.3 99.0935 17.46C98.8135 17.62 98.5901 17.8533 98.4235 18.16C98.2568 18.4667 98.1735 18.8267 98.1735 19.24C98.1735 19.66 98.2568 20.0267 98.4235 20.34C98.5901 20.6467 98.8135 20.8833 99.0935 21.05C99.3735 21.21 99.6835 21.29 100.023 21.29C100.363 21.29 100.673 21.21 100.953 21.05C101.24 20.8833 101.467 20.6467 101.633 20.34C101.8 20.0267 101.883 19.6633 101.883 19.25ZM112.487 22H111.577L107.917 16.45V22H107.007V15.02H107.917L111.577 20.56V15.02H112.487V22ZM116.429 22.09C115.915 22.09 115.449 21.9733 115.029 21.74C114.615 21.5067 114.289 21.1767 114.049 20.75C113.815 20.3167 113.699 19.8167 113.699 19.25C113.699 18.69 113.819 18.1967 114.059 17.77C114.305 17.3367 114.639 17.0067 115.059 16.78C115.479 16.5467 115.949 16.43 116.469 16.43C116.989 16.43 117.459 16.5467 117.879 16.78C118.299 17.0067 118.629 17.3333 118.869 17.76C119.115 18.1867 119.239 18.6833 119.239 19.25C119.239 19.8167 119.112 20.3167 118.859 20.75C118.612 21.1767 118.275 21.5067 117.849 21.74C117.422 21.9733 116.949 22.09 116.429 22.09ZM116.429 21.29C116.755 21.29 117.062 21.2133 117.349 21.06C117.635 20.9067 117.865 20.6767 118.039 20.37C118.219 20.0633 118.309 19.69 118.309 19.25C118.309 18.81 118.222 18.4367 118.049 18.13C117.875 17.8233 117.649 17.5967 117.369 17.45C117.089 17.2967 116.785 17.22 116.459 17.22C116.125 17.22 115.819 17.2967 115.539 17.45C115.265 17.5967 115.045 17.8233 114.879 18.13C114.712 18.4367 114.629 18.81 114.629 19.25C114.629 19.6967 114.709 20.0733 114.869 20.38C115.035 20.6867 115.255 20.9167 115.529 21.07C115.802 21.2167 116.102 21.29 116.429 21.29ZM127.735 16.52L126.025 22H125.085L123.765 17.65L122.445 22H121.505L119.785 16.52H120.715L121.975 21.12L123.335 16.52H124.265L125.595 21.13L126.835 16.52H127.735Z" fill="black"/>
<path d="M60.9087 31.168C60.9087 31.6627 60.792 32.1293 60.5587 32.568C60.3254 33.0067 59.952 33.366 59.4387 33.646C58.9254 33.9167 58.2674 34.052 57.4647 34.052H55.7007V38H54.1047V28.27H57.4647C58.2114 28.27 58.8414 28.4007 59.3547 28.662C59.8774 28.914 60.2647 29.2593 60.5167 29.698C60.778 30.1367 60.9087 30.6267 60.9087 31.168ZM57.4647 32.75C58.0714 32.75 58.524 32.6147 58.8227 32.344C59.1214 32.064 59.2707 31.672 59.2707 31.168C59.2707 30.104 58.6687 29.572 57.4647 29.572H55.7007V32.75H57.4647ZM64.0269 27.64V38H62.4309V27.64H64.0269ZM65.5903 34.108C65.5903 33.3333 65.7489 32.6473 66.0663 32.05C66.3929 31.4527 66.8316 30.9907 67.3823 30.664C67.9423 30.328 68.5583 30.16 69.2303 30.16C69.8369 30.16 70.3643 30.2813 70.8123 30.524C71.2696 30.7573 71.6336 31.0513 71.9043 31.406V30.286H73.5143V38H71.9043V36.852C71.6336 37.216 71.2649 37.5193 70.7983 37.762C70.3316 38.0047 69.7996 38.126 69.2023 38.126C68.5396 38.126 67.9329 37.958 67.3823 37.622C66.8316 37.2767 66.3929 36.8007 66.0663 36.194C65.7489 35.578 65.5903 34.8827 65.5903 34.108ZM71.9043 34.136C71.9043 33.604 71.7923 33.142 71.5683 32.75C71.3536 32.358 71.0689 32.0593 70.7143 31.854C70.3596 31.6487 69.9769 31.546 69.5663 31.546C69.1556 31.546 68.7729 31.6487 68.4183 31.854C68.0636 32.05 67.7743 32.344 67.5503 32.736C67.3356 33.1187 67.2283 33.576 67.2283 34.108C67.2283 34.64 67.3356 35.1067 67.5503 35.508C67.7743 35.9093 68.0636 36.2173 68.4183 36.432C68.7823 36.6373 69.1649 36.74 69.5663 36.74C69.9769 36.74 70.3596 36.6373 70.7143 36.432C71.0689 36.2267 71.3536 35.928 71.5683 35.536C71.7923 35.1347 71.9043 34.668 71.9043 34.136ZM82.5545 30.286L77.8225 41.626H76.1705L77.7385 37.874L74.7005 30.286H76.4785L78.6485 36.166L80.9025 30.286H82.5545ZM90.6017 38.098C89.9484 38.098 89.3604 37.986 88.8377 37.762C88.315 37.5287 87.9044 37.202 87.6057 36.782C87.307 36.362 87.1577 35.872 87.1577 35.312H88.8657C88.903 35.732 89.0664 36.0773 89.3557 36.348C89.6544 36.6187 90.0697 36.754 90.6017 36.754C91.1524 36.754 91.5817 36.6233 91.8897 36.362C92.1977 36.0913 92.3517 35.746 92.3517 35.326C92.3517 34.9993 92.2537 34.7333 92.0577 34.528C91.871 34.3227 91.633 34.164 91.3437 34.052C91.0637 33.94 90.6717 33.8187 90.1677 33.688C89.533 33.52 89.015 33.352 88.6137 33.184C88.2217 33.0067 87.8857 32.736 87.6057 32.372C87.3257 32.008 87.1857 31.5227 87.1857 30.916C87.1857 30.356 87.3257 29.866 87.6057 29.446C87.8857 29.026 88.2777 28.704 88.7817 28.48C89.2857 28.256 89.869 28.144 90.5317 28.144C91.4744 28.144 92.2444 28.382 92.8417 28.858C93.4484 29.3247 93.7844 29.9687 93.8497 30.79H92.0857C92.0577 30.4353 91.8897 30.132 91.5817 29.88C91.2737 29.628 90.8677 29.502 90.3637 29.502C89.9064 29.502 89.533 29.6187 89.2437 29.852C88.9544 30.0853 88.8097 30.4213 88.8097 30.86C88.8097 31.1587 88.8984 31.406 89.0757 31.602C89.2624 31.7887 89.4957 31.938 89.7757 32.05C90.0557 32.162 90.4384 32.2833 90.9237 32.414C91.5677 32.5913 92.0904 32.7687 92.4917 32.946C92.9024 33.1233 93.2477 33.3987 93.5277 33.772C93.817 34.136 93.9617 34.626 93.9617 35.242C93.9617 35.7367 93.8264 36.2033 93.5557 36.642C93.2944 37.0807 92.907 37.4353 92.3937 37.706C91.8897 37.9673 91.2924 38.098 90.6017 38.098ZM97.7069 31.588V35.858C97.7069 36.1473 97.7723 36.3573 97.9029 36.488C98.0429 36.6093 98.2763 36.67 98.6029 36.67H99.5829V38H98.3229C97.6043 38 97.0536 37.832 96.6709 37.496C96.2883 37.16 96.0969 36.614 96.0969 35.858V31.588H95.1869V30.286H96.0969V28.368H97.7069V30.286H99.5829V31.588H97.7069ZM104.4 38.126C103.672 38.126 103.014 37.9627 102.426 37.636C101.838 37.3 101.376 36.8333 101.04 36.236C100.704 35.6293 100.536 34.9293 100.536 34.136C100.536 33.352 100.709 32.6567 101.054 32.05C101.399 31.4433 101.871 30.9767 102.468 30.65C103.065 30.3233 103.733 30.16 104.47 30.16C105.207 30.16 105.875 30.3233 106.472 30.65C107.069 30.9767 107.541 31.4433 107.886 32.05C108.231 32.6567 108.404 33.352 108.404 34.136C108.404 34.92 108.227 35.6153 107.872 36.222C107.517 36.8287 107.032 37.3 106.416 37.636C105.809 37.9627 105.137 38.126 104.4 38.126ZM104.4 36.74C104.811 36.74 105.193 36.642 105.548 36.446C105.912 36.25 106.206 35.956 106.43 35.564C106.654 35.172 106.766 34.696 106.766 34.136C106.766 33.576 106.659 33.1047 106.444 32.722C106.229 32.33 105.945 32.036 105.59 31.84C105.235 31.644 104.853 31.546 104.442 31.546C104.031 31.546 103.649 31.644 103.294 31.84C102.949 32.036 102.673 32.33 102.468 32.722C102.263 33.1047 102.16 33.576 102.16 34.136C102.16 34.9667 102.37 35.6107 102.79 36.068C103.219 36.516 103.756 36.74 104.4 36.74ZM111.578 31.406C111.811 31.014 112.119 30.7107 112.502 30.496C112.894 30.272 113.356 30.16 113.888 30.16V31.812H113.482C112.856 31.812 112.38 31.9707 112.054 32.288C111.736 32.6053 111.578 33.156 111.578 33.94V38H109.982V30.286H111.578V31.406ZM122.425 33.954C122.425 34.2433 122.406 34.5047 122.369 34.738H116.475C116.521 35.354 116.75 35.8487 117.161 36.222C117.571 36.5953 118.075 36.782 118.673 36.782C119.531 36.782 120.138 36.4227 120.493 35.704H122.215C121.981 36.4133 121.557 36.9967 120.941 37.454C120.334 37.902 119.578 38.126 118.673 38.126C117.935 38.126 117.273 37.9627 116.685 37.636C116.106 37.3 115.649 36.8333 115.313 36.236C114.986 35.6293 114.823 34.9293 114.823 34.136C114.823 33.3427 114.981 32.6473 115.299 32.05C115.625 31.4433 116.078 30.9767 116.657 30.65C117.245 30.3233 117.917 30.16 118.673 30.16C119.401 30.16 120.049 30.3187 120.619 30.636C121.188 30.9533 121.631 31.4013 121.949 31.98C122.266 32.5493 122.425 33.2073 122.425 33.954ZM120.759 33.45C120.749 32.862 120.539 32.3907 120.129 32.036C119.718 31.6813 119.209 31.504 118.603 31.504C118.052 31.504 117.581 31.6813 117.189 32.036C116.797 32.3813 116.563 32.8527 116.489 33.45H120.759Z" fill="black"/>
</svg>
