<svg width="100" height="32" viewBox="0 0 150 52" fill="none" xmlns="http://www.w3.org/2000/svg">
<rect x="0.5" y="0.5" width="149" height="51" rx="7.5" stroke="#D9D9D9"/>
<path d="M33.8328 31.0206C33.2959 32.2114 33.0372 32.7431 32.3456 33.7961C31.381 35.2651 30.0186 37.0955 28.3325 37.1111C26.8349 37.1241 26.4501 36.1361 24.4156 36.1478C22.3824 36.1582 21.9586 37.1293 20.4597 37.115C18.7736 37.0994 17.4827 35.4471 16.5168 33.9768C13.8167 29.8688 13.5346 25.0458 15.1999 22.4809C16.3829 20.6596 18.251 19.5936 20.006 19.5936C21.7935 19.5936 22.918 20.5738 24.3948 20.5738C25.8287 20.5738 26.7023 19.591 28.7693 19.591C30.3293 19.591 31.9855 20.4425 33.1646 21.9115C29.301 24.0292 29.9276 29.5464 33.8328 31.0206ZM27.2015 17.9504C27.9516 16.9858 28.5223 15.626 28.3156 14.235C27.0884 14.3195 25.6545 15.0995 24.816 16.1174C24.0568 17.0404 23.4289 18.4093 23.672 19.7405C25.011 19.7808 26.3968 18.9813 27.2015 17.9504Z" fill="black"/>
<path d="M56.0718 12.03C56.8318 12.03 57.4885 12.1733 58.0418 12.46C58.6018 12.74 59.0285 13.1433 59.3218 13.67C59.6218 14.1967 59.7718 14.8167 59.7718 15.53C59.7718 16.2433 59.6218 16.8633 59.3218 17.39C59.0285 17.91 58.6018 18.31 58.0418 18.59C57.4885 18.8633 56.8318 19 56.0718 19H53.9018V12.03H56.0718ZM56.0718 18.25C56.9718 18.25 57.6585 18.0133 58.1318 17.54C58.6052 17.06 58.8418 16.39 58.8418 15.53C58.8418 14.6633 58.6018 13.9867 58.1218 13.5C57.6485 13.0133 56.9652 12.77 56.0718 12.77H54.8118V18.25H56.0718ZM63.3621 19.09C62.8488 19.09 62.3821 18.9733 61.9621 18.74C61.5488 18.5067 61.2221 18.1767 60.9821 17.75C60.7488 17.3167 60.6321 16.8167 60.6321 16.25C60.6321 15.69 60.7521 15.1967 60.9921 14.77C61.2388 14.3367 61.5721 14.0067 61.9921 13.78C62.4121 13.5467 62.8821 13.43 63.4021 13.43C63.9221 13.43 64.3921 13.5467 64.8121 13.78C65.2321 14.0067 65.5621 14.3333 65.8021 14.76C66.0488 15.1867 66.1721 15.6833 66.1721 16.25C66.1721 16.8167 66.0455 17.3167 65.7921 17.75C65.5455 18.1767 65.2088 18.5067 64.7821 18.74C64.3555 18.9733 63.8821 19.09 63.3621 19.09ZM63.3621 18.29C63.6888 18.29 63.9955 18.2133 64.2821 18.06C64.5688 17.9067 64.7988 17.6767 64.9721 17.37C65.1521 17.0633 65.2421 16.69 65.2421 16.25C65.2421 15.81 65.1555 15.4367 64.9821 15.13C64.8088 14.8233 64.5821 14.5967 64.3021 14.45C64.0221 14.2967 63.7188 14.22 63.3921 14.22C63.0588 14.22 62.7521 14.2967 62.4721 14.45C62.1988 14.5967 61.9788 14.8233 61.8121 15.13C61.6455 15.4367 61.5621 15.81 61.5621 16.25C61.5621 16.6967 61.6421 17.0733 61.8021 17.38C61.9688 17.6867 62.1888 17.9167 62.4621 18.07C62.7355 18.2167 63.0355 18.29 63.3621 18.29ZM74.6686 13.52L72.9586 19H72.0186L70.6986 14.65L69.3786 19H68.4386L66.7186 13.52H67.6486L68.9086 18.12L70.2686 13.52H71.1986L72.5286 18.13L73.7686 13.52H74.6686ZM78.2418 13.42C78.9084 13.42 79.4484 13.6233 79.8618 14.03C80.2751 14.43 80.4818 15.01 80.4818 15.77V19H79.5818V15.9C79.5818 15.3533 79.4451 14.9367 79.1718 14.65C78.8984 14.3567 78.5251 14.21 78.0518 14.21C77.5718 14.21 77.1884 14.36 76.9018 14.66C76.6218 14.96 76.4818 15.3967 76.4818 15.97V19H75.5718V13.52H76.4818V14.3C76.6618 14.02 76.9051 13.8033 77.2118 13.65C77.5251 13.4967 77.8684 13.42 78.2418 13.42ZM82.8782 11.6V19H81.9682V11.6H82.8782ZM86.8192 19.09C86.3058 19.09 85.8392 18.9733 85.4192 18.74C85.0058 18.5067 84.6792 18.1767 84.4392 17.75C84.2058 17.3167 84.0892 16.8167 84.0892 16.25C84.0892 15.69 84.2092 15.1967 84.4492 14.77C84.6958 14.3367 85.0292 14.0067 85.4492 13.78C85.8692 13.5467 86.3392 13.43 86.8592 13.43C87.3792 13.43 87.8492 13.5467 88.2692 13.78C88.6892 14.0067 89.0192 14.3333 89.2592 14.76C89.5058 15.1867 89.6292 15.6833 89.6292 16.25C89.6292 16.8167 89.5025 17.3167 89.2492 17.75C89.0025 18.1767 88.6658 18.5067 88.2392 18.74C87.8125 18.9733 87.3392 19.09 86.8192 19.09ZM86.8192 18.29C87.1458 18.29 87.4525 18.2133 87.7392 18.06C88.0258 17.9067 88.2558 17.6767 88.4292 17.37C88.6092 17.0633 88.6992 16.69 88.6992 16.25C88.6992 15.81 88.6125 15.4367 88.4392 15.13C88.2658 14.8233 88.0392 14.5967 87.7592 14.45C87.4792 14.2967 87.1758 14.22 86.8492 14.22C86.5158 14.22 86.2092 14.2967 85.9292 14.45C85.6558 14.5967 85.4358 14.8233 85.2692 15.13C85.1025 15.4367 85.0192 15.81 85.0192 16.25C85.0192 16.6967 85.0992 17.0733 85.2592 17.38C85.4258 17.6867 85.6458 17.9167 85.9192 18.07C86.1925 18.2167 86.4925 18.29 86.8192 18.29ZM90.4857 16.24C90.4857 15.68 90.599 15.19 90.8257 14.77C91.0523 14.3433 91.3623 14.0133 91.7557 13.78C92.1557 13.5467 92.599 13.43 93.0857 13.43C93.5657 13.43 93.9823 13.5333 94.3357 13.74C94.689 13.9467 94.9523 14.2067 95.1257 14.52V13.52H96.0457V19H95.1257V17.98C94.9457 18.3 94.6757 18.5667 94.3157 18.78C93.9623 18.9867 93.549 19.09 93.0757 19.09C92.589 19.09 92.149 18.97 91.7557 18.73C91.3623 18.49 91.0523 18.1533 90.8257 17.72C90.599 17.2867 90.4857 16.7933 90.4857 16.24ZM95.1257 16.25C95.1257 15.8367 95.0423 15.4767 94.8757 15.17C94.709 14.8633 94.4823 14.63 94.1957 14.47C93.9157 14.3033 93.6057 14.22 93.2657 14.22C92.9257 14.22 92.6157 14.3 92.3357 14.46C92.0557 14.62 91.8323 14.8533 91.6657 15.16C91.499 15.4667 91.4157 15.8267 91.4157 16.24C91.4157 16.66 91.499 17.0267 91.6657 17.34C91.8323 17.6467 92.0557 17.8833 92.3357 18.05C92.6157 18.21 92.9257 18.29 93.2657 18.29C93.6057 18.29 93.9157 18.21 94.1957 18.05C94.4823 17.8833 94.709 17.6467 94.8757 17.34C95.0423 17.0267 95.1257 16.6633 95.1257 16.25ZM97.2435 16.24C97.2435 15.68 97.3568 15.19 97.5835 14.77C97.8101 14.3433 98.1201 14.0133 98.5135 13.78C98.9135 13.5467 99.3601 13.43 99.8535 13.43C100.28 13.43 100.677 13.53 101.043 13.73C101.41 13.9233 101.69 14.18 101.883 14.5V11.6H102.803V19H101.883V17.97C101.703 18.2967 101.437 18.5667 101.083 18.78C100.73 18.9867 100.317 19.09 99.8435 19.09C99.3568 19.09 98.9135 18.97 98.5135 18.73C98.1201 18.49 97.8101 18.1533 97.5835 17.72C97.3568 17.2867 97.2435 16.7933 97.2435 16.24ZM101.883 16.25C101.883 15.8367 101.8 15.4767 101.633 15.17C101.467 14.8633 101.24 14.63 100.953 14.47C100.673 14.3033 100.363 14.22 100.023 14.22C99.6835 14.22 99.3735 14.3 99.0935 14.46C98.8135 14.62 98.5901 14.8533 98.4235 15.16C98.2568 15.4667 98.1735 15.8267 98.1735 16.24C98.1735 16.66 98.2568 17.0267 98.4235 17.34C98.5901 17.6467 98.8135 17.8833 99.0935 18.05C99.3735 18.21 99.6835 18.29 100.023 18.29C100.363 18.29 100.673 18.21 100.953 18.05C101.24 17.8833 101.467 17.6467 101.633 17.34C101.8 17.0267 101.883 16.6633 101.883 16.25ZM112.487 19H111.577L107.917 13.45V19H107.007V12.02H107.917L111.577 17.56V12.02H112.487V19ZM116.429 19.09C115.915 19.09 115.449 18.9733 115.029 18.74C114.615 18.5067 114.289 18.1767 114.049 17.75C113.815 17.3167 113.699 16.8167 113.699 16.25C113.699 15.69 113.819 15.1967 114.059 14.77C114.305 14.3367 114.639 14.0067 115.059 13.78C115.479 13.5467 115.949 13.43 116.469 13.43C116.989 13.43 117.459 13.5467 117.879 13.78C118.299 14.0067 118.629 14.3333 118.869 14.76C119.115 15.1867 119.239 15.6833 119.239 16.25C119.239 16.8167 119.112 17.3167 118.859 17.75C118.612 18.1767 118.275 18.5067 117.849 18.74C117.422 18.9733 116.949 19.09 116.429 19.09ZM116.429 18.29C116.755 18.29 117.062 18.2133 117.349 18.06C117.635 17.9067 117.865 17.6767 118.039 17.37C118.219 17.0633 118.309 16.69 118.309 16.25C118.309 15.81 118.222 15.4367 118.049 15.13C117.875 14.8233 117.649 14.5967 117.369 14.45C117.089 14.2967 116.785 14.22 116.459 14.22C116.125 14.22 115.819 14.2967 115.539 14.45C115.265 14.5967 115.045 14.8233 114.879 15.13C114.712 15.4367 114.629 15.81 114.629 16.25C114.629 16.6967 114.709 17.0733 114.869 17.38C115.035 17.6867 115.255 17.9167 115.529 18.07C115.802 18.2167 116.102 18.29 116.429 18.29ZM127.735 13.52L126.025 19H125.085L123.765 14.65L122.445 19H121.505L119.785 13.52H120.715L121.975 18.12L123.335 13.52H124.265L125.595 18.13L126.835 13.52H127.735Z" fill="black"/>
<path d="M60.9087 31.168C60.9087 31.6627 60.792 32.1293 60.5587 32.568C60.3254 33.0067 59.952 33.366 59.4387 33.646C58.9254 33.9167 58.2674 34.052 57.4647 34.052H55.7007V38H54.1047V28.27H57.4647C58.2114 28.27 58.8414 28.4007 59.3547 28.662C59.8774 28.914 60.2647 29.2593 60.5167 29.698C60.778 30.1367 60.9087 30.6267 60.9087 31.168ZM57.4647 32.75C58.0714 32.75 58.524 32.6147 58.8227 32.344C59.1214 32.064 59.2707 31.672 59.2707 31.168C59.2707 30.104 58.6687 29.572 57.4647 29.572H55.7007V32.75H57.4647ZM64.0269 27.64V38H62.4309V27.64H64.0269ZM65.5903 34.108C65.5903 33.3333 65.7489 32.6473 66.0663 32.05C66.3929 31.4527 66.8316 30.9907 67.3823 30.664C67.9423 30.328 68.5583 30.16 69.2303 30.16C69.8369 30.16 70.3643 30.2813 70.8123 30.524C71.2696 30.7573 71.6336 31.0513 71.9043 31.406V30.286H73.5143V38H71.9043V36.852C71.6336 37.216 71.2649 37.5193 70.7983 37.762C70.3316 38.0047 69.7996 38.126 69.2023 38.126C68.5396 38.126 67.9329 37.958 67.3823 37.622C66.8316 37.2767 66.3929 36.8007 66.0663 36.194C65.7489 35.578 65.5903 34.8827 65.5903 34.108ZM71.9043 34.136C71.9043 33.604 71.7923 33.142 71.5683 32.75C71.3536 32.358 71.0689 32.0593 70.7143 31.854C70.3596 31.6487 69.9769 31.546 69.5663 31.546C69.1556 31.546 68.7729 31.6487 68.4183 31.854C68.0636 32.05 67.7743 32.344 67.5503 32.736C67.3356 33.1187 67.2283 33.576 67.2283 34.108C67.2283 34.64 67.3356 35.1067 67.5503 35.508C67.7743 35.9093 68.0636 36.2173 68.4183 36.432C68.7823 36.6373 69.1649 36.74 69.5663 36.74C69.9769 36.74 70.3596 36.6373 70.7143 36.432C71.0689 36.2267 71.3536 35.928 71.5683 35.536C71.7923 35.1347 71.9043 34.668 71.9043 34.136ZM82.5545 30.286L77.8225 41.626H76.1705L77.7385 37.874L74.7005 30.286H76.4785L78.6485 36.166L80.9025 30.286H82.5545ZM90.6017 38.098C89.9484 38.098 89.3604 37.986 88.8377 37.762C88.315 37.5287 87.9044 37.202 87.6057 36.782C87.307 36.362 87.1577 35.872 87.1577 35.312H88.8657C88.903 35.732 89.0664 36.0773 89.3557 36.348C89.6544 36.6187 90.0697 36.754 90.6017 36.754C91.1524 36.754 91.5817 36.6233 91.8897 36.362C92.1977 36.0913 92.3517 35.746 92.3517 35.326C92.3517 34.9993 92.2537 34.7333 92.0577 34.528C91.871 34.3227 91.633 34.164 91.3437 34.052C91.0637 33.94 90.6717 33.8187 90.1677 33.688C89.533 33.52 89.015 33.352 88.6137 33.184C88.2217 33.0067 87.8857 32.736 87.6057 32.372C87.3257 32.008 87.1857 31.5227 87.1857 30.916C87.1857 30.356 87.3257 29.866 87.6057 29.446C87.8857 29.026 88.2777 28.704 88.7817 28.48C89.2857 28.256 89.869 28.144 90.5317 28.144C91.4744 28.144 92.2444 28.382 92.8417 28.858C93.4484 29.3247 93.7844 29.9687 93.8497 30.79H92.0857C92.0577 30.4353 91.8897 30.132 91.5817 29.88C91.2737 29.628 90.8677 29.502 90.3637 29.502C89.9064 29.502 89.533 29.6187 89.2437 29.852C88.9544 30.0853 88.8097 30.4213 88.8097 30.86C88.8097 31.1587 88.8984 31.406 89.0757 31.602C89.2624 31.7887 89.4957 31.938 89.7757 32.05C90.0557 32.162 90.4384 32.2833 90.9237 32.414C91.5677 32.5913 92.0904 32.7687 92.4917 32.946C92.9024 33.1233 93.2477 33.3987 93.5277 33.772C93.817 34.136 93.9617 34.626 93.9617 35.242C93.9617 35.7367 93.8264 36.2033 93.5557 36.642C93.2944 37.0807 92.907 37.4353 92.3937 37.706C91.8897 37.9673 91.2924 38.098 90.6017 38.098ZM97.7069 31.588V35.858C97.7069 36.1473 97.7723 36.3573 97.9029 36.488C98.0429 36.6093 98.2763 36.67 98.6029 36.67H99.5829V38H98.3229C97.6043 38 97.0536 37.832 96.6709 37.496C96.2883 37.16 96.0969 36.614 96.0969 35.858V31.588H95.1869V30.286H96.0969V28.368H97.7069V30.286H99.5829V31.588H97.7069ZM104.4 38.126C103.672 38.126 103.014 37.9627 102.426 37.636C101.838 37.3 101.376 36.8333 101.04 36.236C100.704 35.6293 100.536 34.9293 100.536 34.136C100.536 33.352 100.709 32.6567 101.054 32.05C101.399 31.4433 101.871 30.9767 102.468 30.65C103.065 30.3233 103.733 30.16 104.47 30.16C105.207 30.16 105.875 30.3233 106.472 30.65C107.069 30.9767 107.541 31.4433 107.886 32.05C108.231 32.6567 108.404 33.352 108.404 34.136C108.404 34.92 108.227 35.6153 107.872 36.222C107.517 36.8287 107.032 37.3 106.416 37.636C105.809 37.9627 105.137 38.126 104.4 38.126ZM104.4 36.74C104.811 36.74 105.193 36.642 105.548 36.446C105.912 36.25 106.206 35.956 106.43 35.564C106.654 35.172 106.766 34.696 106.766 34.136C106.766 33.576 106.659 33.1047 106.444 32.722C106.229 32.33 105.945 32.036 105.59 31.84C105.235 31.644 104.853 31.546 104.442 31.546C104.031 31.546 103.649 31.644 103.294 31.84C102.949 32.036 102.673 32.33 102.468 32.722C102.263 33.1047 102.16 33.576 102.16 34.136C102.16 34.9667 102.37 35.6107 102.79 36.068C103.219 36.516 103.756 36.74 104.4 36.74ZM111.578 31.406C111.811 31.014 112.119 30.7107 112.502 30.496C112.894 30.272 113.356 30.16 113.888 30.16V31.812H113.482C112.856 31.812 112.38 31.9707 112.054 32.288C111.736 32.6053 111.578 33.156 111.578 33.94V38H109.982V30.286H111.578V31.406ZM122.425 33.954C122.425 34.2433 122.406 34.5047 122.369 34.738H116.475C116.521 35.354 116.75 35.8487 117.161 36.222C117.571 36.5953 118.075 36.782 118.673 36.782C119.531 36.782 120.138 36.4227 120.493 35.704H122.215C121.981 36.4133 121.557 36.9967 120.941 37.454C120.334 37.902 119.578 38.126 118.673 38.126C117.935 38.126 117.273 37.9627 116.685 37.636C116.106 37.3 115.649 36.8333 115.313 36.236C114.986 35.6293 114.823 34.9293 114.823 34.136C114.823 33.3427 114.981 32.6473 115.299 32.05C115.625 31.4433 116.078 30.9767 116.657 30.65C117.245 30.3233 117.917 30.16 118.673 30.16C119.401 30.16 120.049 30.3187 120.619 30.636C121.188 30.9533 121.631 31.4013 121.949 31.98C122.266 32.5493 122.425 33.2073 122.425 33.954ZM120.759 33.45C120.749 32.862 120.539 32.3907 120.129 32.036C119.718 31.6813 119.209 31.504 118.603 31.504C118.052 31.504 117.581 31.6813 117.189 32.036C116.797 32.3813 116.563 32.8527 116.489 33.45H120.759Z" fill="black"/>
</svg>
