<svg width="626" height="126" viewBox="0 0 932 126" fill="none" xmlns="http://www.w3.org/2000/svg">
<path d="M83 70C102.33 70 118 54.33 118 35C118 15.67 102.33 0 83 0C63.67 0 48 15.67 48 35C48 54.33 63.67 70 83 70Z" fill="#BF4C26"/>
<path d="M91.7362 26.895C92.1499 26.4813 92.7111 26.2488 93.2962 26.2488C93.8813 26.2488 94.4424 26.4813 94.8562 26.895C95.2699 27.3088 95.5023 27.8699 95.5023 28.455C95.5023 29.0401 95.2699 29.6013 94.8562 30.015L81.6187 43.25C81.2052 43.6633 80.6445 43.8954 80.0599 43.8954C79.4753 43.8954 78.9147 43.6633 78.5012 43.25L71.1462 35.8975C70.7324 35.4838 70.5 34.9226 70.5 34.3375C70.5 33.7524 70.7324 33.1913 71.1462 32.7775C71.5599 32.3638 72.1211 32.1313 72.7062 32.1313C73.2913 32.1313 73.8524 32.3638 74.2662 32.7775L80.0612 38.5725L91.7362 26.895Z" fill="white"/>
<path d="M345 70C364.33 70 380 54.33 380 35C380 15.67 364.33 0 345 0C325.67 0 310 15.67 310 35C310 54.33 325.67 70 345 70Z" fill="#BF4C26"/>
<path d="M353.736 26.895C354.15 26.4813 354.711 26.2488 355.296 26.2488C355.881 26.2488 356.442 26.4813 356.856 26.895C357.27 27.3088 357.502 27.8699 357.502 28.455C357.502 29.0401 357.27 29.6013 356.856 30.015L343.619 43.25C343.205 43.6633 342.645 43.8954 342.06 43.8954C341.475 43.8954 340.915 43.6633 340.501 43.25L333.146 35.8975C332.732 35.4838 332.5 34.9226 332.5 34.3375C332.5 33.7524 332.732 33.1913 333.146 32.7775C333.56 32.3638 334.121 32.1313 334.706 32.1313C335.291 32.1313 335.852 32.3638 336.266 32.7775L342.061 38.5725L353.736 26.895Z" fill="white"/>
<path d="M607 70C626.33 70 642 54.33 642 35C642 15.67 626.33 0 607 0C587.67 0 572 15.67 572 35C572 54.33 587.67 70 607 70Z" fill="#BF4C26"/>
<path d="M615.736 26.895C616.15 26.4813 616.711 26.2488 617.296 26.2488C617.881 26.2488 618.442 26.4813 618.856 26.895C619.27 27.3088 619.502 27.8699 619.502 28.455C619.502 29.0401 619.27 29.6013 618.856 30.015L605.619 43.25C605.205 43.6633 604.645 43.8954 604.06 43.8954C603.475 43.8954 602.915 43.6633 602.501 43.25L595.146 35.8975C594.732 35.4838 594.5 34.9226 594.5 34.3375C594.5 33.7524 594.732 33.1913 595.146 32.7775C595.56 32.3638 596.121 32.1313 596.706 32.1313C597.291 32.1313 597.852 32.3638 598.266 32.7775L604.061 38.5725L615.736 26.895Z" fill="white"/>
<path d="M869 70C888.33 70 904 54.33 904 35C904 15.67 888.33 0 869 0C849.67 0 834 15.67 834 35C834 54.33 849.67 70 869 70Z" fill="#BF4C26"/>
<path d="M877.736 26.895C878.15 26.4813 878.711 26.2488 879.296 26.2488C879.881 26.2488 880.442 26.4813 880.856 26.895C881.27 27.3088 881.502 27.8699 881.502 28.455C881.502 29.0401 881.27 29.6013 880.856 30.015L867.619 43.25C867.205 43.6633 866.645 43.8954 866.06 43.8954C865.475 43.8954 864.915 43.6633 864.501 43.25L857.146 35.8975C856.732 35.4838 856.5 34.9226 856.5 34.3375C856.5 33.7524 856.732 33.1913 857.146 32.7775C857.56 32.3638 858.121 32.1313 858.706 32.1313C859.291 32.1313 859.852 32.3638 860.266 32.7775L866.061 38.5725L877.736 26.895Z" fill="white"/>
<line x1="134" y1="33" x2="294" y2="33" stroke="#BF4C26" stroke-width="4"/>
<line x1="396" y1="33" x2="556" y2="33" stroke="#BF4C26" stroke-width="4"/>
<line x1="658" y1="33" x2="818" y2="33" stroke="#BF4C26" stroke-width="4"/>
<path d="M10.152 120.288C8.824 120.288 7.592 120.072 6.456 119.64C5.336 119.208 4.36 118.6 3.528 117.816C2.712 117.032 2.072 116.112 1.608 115.056C1.16 114 0.936 112.848 0.936 111.6C0.936 110.352 1.16 109.2 1.608 108.144C2.072 107.088 2.72 106.168 3.552 105.384C4.384 104.6 5.36 103.992 6.48 103.56C7.6 103.128 8.816 102.912 10.128 102.912C11.456 102.912 12.672 103.128 13.776 103.56C14.896 103.992 15.864 104.6 16.68 105.384C17.512 106.168 18.16 107.088 18.624 108.144C19.088 109.184 19.32 110.336 19.32 111.6C19.32 112.848 19.088 114.008 18.624 115.08C18.16 116.136 17.512 117.056 16.68 117.84C15.864 118.608 14.896 119.208 13.776 119.64C12.672 120.072 11.464 120.288 10.152 120.288ZM10.128 116.976C10.88 116.976 11.568 116.848 12.192 116.592C12.832 116.336 13.392 115.968 13.872 115.488C14.352 115.008 14.72 114.44 14.976 113.784C15.248 113.128 15.384 112.4 15.384 111.6C15.384 110.8 15.248 110.072 14.976 109.416C14.72 108.76 14.352 108.192 13.872 107.712C13.408 107.232 12.856 106.864 12.216 106.608C11.576 106.352 10.88 106.224 10.128 106.224C9.376 106.224 8.68 106.352 8.04 106.608C7.416 106.864 6.864 107.232 6.384 107.712C5.904 108.192 5.528 108.76 5.256 109.416C5 110.072 4.872 110.8 4.872 111.6C4.872 112.384 5 113.112 5.256 113.784C5.528 114.44 5.896 115.008 6.36 115.488C6.84 115.968 7.4 116.336 8.04 116.592C8.68 116.848 9.376 116.976 10.128 116.976ZM21.978 120V107.088H25.554V110.736L25.05 109.68C25.434 108.768 26.05 108.08 26.898 107.616C27.746 107.136 28.778 106.896 29.994 106.896V110.352C29.834 110.336 29.69 110.328 29.562 110.328C29.434 110.312 29.298 110.304 29.154 110.304C28.13 110.304 27.298 110.6 26.658 111.192C26.034 111.768 25.722 112.672 25.722 113.904V120H21.978ZM37.6704 120.192C36.4544 120.192 35.3584 119.92 34.3824 119.376C33.4064 118.816 32.6304 118.04 32.0544 117.048C31.4944 116.056 31.2144 114.888 31.2144 113.544C31.2144 112.184 31.4944 111.008 32.0544 110.016C32.6304 109.024 33.4064 108.256 34.3824 107.712C35.3584 107.168 36.4544 106.896 37.6704 106.896C38.7584 106.896 39.7104 107.136 40.5264 107.616C41.3424 108.096 41.9744 108.824 42.4224 109.8C42.8704 110.776 43.0944 112.024 43.0944 113.544C43.0944 115.048 42.8784 116.296 42.4464 117.288C42.0144 118.264 41.3904 118.992 40.5744 119.472C39.7744 119.952 38.8064 120.192 37.6704 120.192ZM38.3184 117.12C38.9264 117.12 39.4784 116.976 39.9744 116.688C40.4704 116.4 40.8624 115.992 41.1504 115.464C41.4544 114.92 41.6064 114.28 41.6064 113.544C41.6064 112.792 41.4544 112.152 41.1504 111.624C40.8624 111.096 40.4704 110.688 39.9744 110.4C39.4784 110.112 38.9264 109.968 38.3184 109.968C37.6944 109.968 37.1344 110.112 36.6384 110.4C36.1424 110.688 35.7424 111.096 35.4384 111.624C35.1504 112.152 35.0064 112.792 35.0064 113.544C35.0064 114.28 35.1504 114.92 35.4384 115.464C35.7424 115.992 36.1424 116.4 36.6384 116.688C37.1344 116.976 37.6944 117.12 38.3184 117.12ZM41.7024 120V117.36L41.7744 113.52L41.5344 109.704V102.192H45.2784V120H41.7024ZM55.1516 120.192C53.6796 120.192 52.3836 119.904 51.2636 119.328C50.1596 118.752 49.3036 117.968 48.6956 116.976C48.0876 115.968 47.7836 114.824 47.7836 113.544C47.7836 112.248 48.0796 111.104 48.6716 110.112C49.2796 109.104 50.1036 108.32 51.1436 107.76C52.1836 107.184 53.3596 106.896 54.6716 106.896C55.9356 106.896 57.0716 107.168 58.0796 107.712C59.1036 108.24 59.9116 109.008 60.5036 110.016C61.0956 111.008 61.3916 112.2 61.3916 113.592C61.3916 113.736 61.3836 113.904 61.3676 114.096C61.3516 114.272 61.3356 114.44 61.3196 114.6H50.8316V112.416H59.3516L57.9116 113.064C57.9116 112.392 57.7756 111.808 57.5036 111.312C57.2316 110.816 56.8556 110.432 56.3756 110.16C55.8956 109.872 55.3356 109.728 54.6956 109.728C54.0556 109.728 53.4876 109.872 52.9916 110.16C52.5116 110.432 52.1356 110.824 51.8636 111.336C51.5916 111.832 51.4556 112.424 51.4556 113.112V113.688C51.4556 114.392 51.6076 115.016 51.9116 115.56C52.2316 116.088 52.6716 116.496 53.2316 116.784C53.8076 117.056 54.4796 117.192 55.2476 117.192C55.9356 117.192 56.5356 117.088 57.0476 116.88C57.5756 116.672 58.0556 116.36 58.4876 115.944L60.4796 118.104C59.8876 118.776 59.1436 119.296 58.2476 119.664C57.3516 120.016 56.3196 120.192 55.1516 120.192ZM63.8843 120V107.088H67.4603V110.736L66.9563 109.68C67.3403 108.768 67.9563 108.08 68.8043 107.616C69.6523 107.136 70.6843 106.896 71.9003 106.896V110.352C71.7403 110.336 71.5963 110.328 71.4683 110.328C71.3403 110.312 71.2043 110.304 71.0603 110.304C70.0363 110.304 69.2043 110.6 68.5643 111.192C67.9403 111.768 67.6283 112.672 67.6283 113.904V120H63.8843ZM81.2811 120V103.2H88.5531C90.0571 103.2 91.3531 103.448 92.4411 103.944C93.5291 104.424 94.3691 105.12 94.9611 106.032C95.5531 106.944 95.8491 108.032 95.8491 109.296C95.8491 110.544 95.5531 111.624 94.9611 112.536C94.3691 113.448 93.5291 114.152 92.4411 114.648C91.3531 115.128 90.0571 115.368 88.5531 115.368H83.4411L85.1691 113.616V120H81.2811ZM85.1691 114.048L83.4411 112.2H88.3371C89.5371 112.2 90.4331 111.944 91.0251 111.432C91.6171 110.92 91.9131 110.208 91.9131 109.296C91.9131 108.368 91.6171 107.648 91.0251 107.136C90.4331 106.624 89.5371 106.368 88.3371 106.368H83.4411L85.1691 104.52V114.048ZM98.5952 120V102.192H102.339V120H98.5952ZM113.734 120V117.48L113.494 116.928V112.416C113.494 111.616 113.246 110.992 112.75 110.544C112.27 110.096 111.526 109.872 110.518 109.872C109.83 109.872 109.15 109.984 108.478 110.208C107.822 110.416 107.262 110.704 106.798 111.072L105.454 108.456C106.158 107.96 107.006 107.576 107.998 107.304C108.99 107.032 109.998 106.896 111.022 106.896C112.99 106.896 114.518 107.36 115.606 108.288C116.694 109.216 117.238 110.664 117.238 112.632V120H113.734ZM109.798 120.192C108.79 120.192 107.926 120.024 107.206 119.688C106.486 119.336 105.934 118.864 105.55 118.272C105.166 117.68 104.974 117.016 104.974 116.28C104.974 115.512 105.158 114.84 105.526 114.264C105.91 113.688 106.51 113.24 107.326 112.92C108.142 112.584 109.206 112.416 110.518 112.416H113.95V114.6H110.926C110.046 114.6 109.438 114.744 109.102 115.032C108.782 115.32 108.622 115.68 108.622 116.112C108.622 116.592 108.806 116.976 109.174 117.264C109.558 117.536 110.078 117.672 110.734 117.672C111.358 117.672 111.918 117.528 112.414 117.24C112.91 116.936 113.27 116.496 113.494 115.92L114.07 117.648C113.798 118.48 113.302 119.112 112.582 119.544C111.862 119.976 110.934 120.192 109.798 120.192ZM126.96 120.192C125.568 120.192 124.328 119.912 123.24 119.352C122.152 118.776 121.296 117.984 120.672 116.976C120.064 115.968 119.76 114.824 119.76 113.544C119.76 112.248 120.064 111.104 120.672 110.112C121.296 109.104 122.152 108.32 123.24 107.76C124.328 107.184 125.568 106.896 126.96 106.896C128.32 106.896 129.504 107.184 130.512 107.76C131.52 108.32 132.264 109.128 132.744 110.184L129.84 111.744C129.504 111.136 129.08 110.688 128.568 110.4C128.072 110.112 127.528 109.968 126.936 109.968C126.296 109.968 125.72 110.112 125.208 110.4C124.696 110.688 124.288 111.096 123.984 111.624C123.696 112.152 123.552 112.792 123.552 113.544C123.552 114.296 123.696 114.936 123.984 115.464C124.288 115.992 124.696 116.4 125.208 116.688C125.72 116.976 126.296 117.12 126.936 117.12C127.528 117.12 128.072 116.984 128.568 116.712C129.08 116.424 129.504 115.968 129.84 115.344L132.744 116.928C132.264 117.968 131.52 118.776 130.512 119.352C129.504 119.912 128.32 120.192 126.96 120.192ZM141.144 120.192C139.672 120.192 138.376 119.904 137.256 119.328C136.152 118.752 135.296 117.968 134.688 116.976C134.08 115.968 133.776 114.824 133.776 113.544C133.776 112.248 134.072 111.104 134.664 110.112C135.272 109.104 136.096 108.32 137.136 107.76C138.176 107.184 139.352 106.896 140.664 106.896C141.928 106.896 143.064 107.168 144.072 107.712C145.096 108.24 145.904 109.008 146.496 110.016C147.088 111.008 147.384 112.2 147.384 113.592C147.384 113.736 147.376 113.904 147.36 114.096C147.344 114.272 147.328 114.44 147.312 114.6H136.824V112.416H145.344L143.904 113.064C143.904 112.392 143.768 111.808 143.496 111.312C143.224 110.816 142.848 110.432 142.368 110.16C141.888 109.872 141.328 109.728 140.688 109.728C140.048 109.728 139.48 109.872 138.984 110.16C138.504 110.432 138.128 110.824 137.856 111.336C137.584 111.832 137.448 112.424 137.448 113.112V113.688C137.448 114.392 137.6 115.016 137.904 115.56C138.224 116.088 138.664 116.496 139.224 116.784C139.8 117.056 140.472 117.192 141.24 117.192C141.928 117.192 142.528 117.088 143.04 116.88C143.568 116.672 144.048 116.36 144.48 115.944L146.472 118.104C145.88 118.776 145.136 119.296 144.24 119.664C143.344 120.016 142.312 120.192 141.144 120.192ZM155.42 120.192C154.204 120.192 153.108 119.92 152.132 119.376C151.156 118.816 150.38 118.04 149.804 117.048C149.244 116.056 148.964 114.888 148.964 113.544C148.964 112.184 149.244 111.008 149.804 110.016C150.38 109.024 151.156 108.256 152.132 107.712C153.108 107.168 154.204 106.896 155.42 106.896C156.508 106.896 157.46 107.136 158.276 107.616C159.092 108.096 159.724 108.824 160.172 109.8C160.62 110.776 160.844 112.024 160.844 113.544C160.844 115.048 160.628 116.296 160.196 117.288C159.764 118.264 159.14 118.992 158.324 119.472C157.524 119.952 156.556 120.192 155.42 120.192ZM156.068 117.12C156.676 117.12 157.228 116.976 157.724 116.688C158.22 116.4 158.612 115.992 158.9 115.464C159.204 114.92 159.356 114.28 159.356 113.544C159.356 112.792 159.204 112.152 158.9 111.624C158.612 111.096 158.22 110.688 157.724 110.4C157.228 110.112 156.676 109.968 156.068 109.968C155.444 109.968 154.884 110.112 154.388 110.4C153.892 110.688 153.492 111.096 153.188 111.624C152.9 112.152 152.756 112.792 152.756 113.544C152.756 114.28 152.9 114.92 153.188 115.464C153.492 115.992 153.892 116.4 154.388 116.688C154.884 116.976 155.444 117.12 156.068 117.12ZM159.452 120V117.36L159.524 113.52L159.284 109.704V102.192H163.028V120H159.452Z" fill="black"/>
<path d="M294.992 120V103.2H302.264C303.768 103.2 305.064 103.448 306.152 103.944C307.24 104.424 308.08 105.12 308.672 106.032C309.264 106.944 309.56 108.032 309.56 109.296C309.56 110.544 309.264 111.624 308.672 112.536C308.08 113.448 307.24 114.152 306.152 114.648C305.064 115.128 303.768 115.368 302.264 115.368H297.152L298.88 113.616V120H294.992ZM298.88 114.048L297.152 112.2H302.048C303.248 112.2 304.144 111.944 304.736 111.432C305.328 110.92 305.624 110.208 305.624 109.296C305.624 108.368 305.328 107.648 304.736 107.136C304.144 106.624 303.248 106.368 302.048 106.368H297.152L298.88 104.52V114.048ZM318.456 120.192C316.984 120.192 315.688 119.904 314.568 119.328C313.464 118.752 312.608 117.968 312 116.976C311.392 115.968 311.088 114.824 311.088 113.544C311.088 112.248 311.384 111.104 311.976 110.112C312.584 109.104 313.408 108.32 314.448 107.76C315.488 107.184 316.664 106.896 317.976 106.896C319.24 106.896 320.376 107.168 321.384 107.712C322.408 108.24 323.216 109.008 323.808 110.016C324.4 111.008 324.696 112.2 324.696 113.592C324.696 113.736 324.688 113.904 324.672 114.096C324.656 114.272 324.64 114.44 324.624 114.6H314.136V112.416H322.656L321.216 113.064C321.216 112.392 321.08 111.808 320.808 111.312C320.536 110.816 320.16 110.432 319.68 110.16C319.2 109.872 318.64 109.728 318 109.728C317.36 109.728 316.792 109.872 316.296 110.16C315.816 110.432 315.44 110.824 315.168 111.336C314.896 111.832 314.76 112.424 314.76 113.112V113.688C314.76 114.392 314.912 115.016 315.216 115.56C315.536 116.088 315.976 116.496 316.536 116.784C317.112 117.056 317.784 117.192 318.552 117.192C319.24 117.192 319.84 117.088 320.352 116.88C320.88 116.672 321.36 116.36 321.792 115.944L323.784 118.104C323.192 118.776 322.448 119.296 321.552 119.664C320.656 120.016 319.624 120.192 318.456 120.192ZM335.037 106.896C336.061 106.896 336.973 107.104 337.773 107.52C338.589 107.92 339.229 108.544 339.693 109.392C340.157 110.224 340.389 111.296 340.389 112.608V120H336.645V113.184C336.645 112.144 336.413 111.376 335.949 110.88C335.501 110.384 334.861 110.136 334.029 110.136C333.437 110.136 332.901 110.264 332.421 110.52C331.957 110.76 331.589 111.136 331.317 111.648C331.061 112.16 330.933 112.816 330.933 113.616V120H327.189V107.088H330.765V110.664L330.093 109.584C330.557 108.72 331.221 108.056 332.085 107.592C332.949 107.128 333.933 106.896 335.037 106.896ZM349.42 120.192C348.204 120.192 347.108 119.92 346.132 119.376C345.156 118.816 344.38 118.04 343.804 117.048C343.244 116.056 342.964 114.888 342.964 113.544C342.964 112.184 343.244 111.008 343.804 110.016C344.38 109.024 345.156 108.256 346.132 107.712C347.108 107.168 348.204 106.896 349.42 106.896C350.508 106.896 351.46 107.136 352.276 107.616C353.092 108.096 353.724 108.824 354.172 109.8C354.62 110.776 354.844 112.024 354.844 113.544C354.844 115.048 354.628 116.296 354.196 117.288C353.764 118.264 353.14 118.992 352.324 119.472C351.524 119.952 350.556 120.192 349.42 120.192ZM350.068 117.12C350.676 117.12 351.228 116.976 351.724 116.688C352.22 116.4 352.612 115.992 352.9 115.464C353.204 114.92 353.356 114.28 353.356 113.544C353.356 112.792 353.204 112.152 352.9 111.624C352.612 111.096 352.22 110.688 351.724 110.4C351.228 110.112 350.676 109.968 350.068 109.968C349.444 109.968 348.884 110.112 348.388 110.4C347.892 110.688 347.492 111.096 347.188 111.624C346.9 112.152 346.756 112.792 346.756 113.544C346.756 114.28 346.9 114.92 347.188 115.464C347.492 115.992 347.892 116.4 348.388 116.688C348.884 116.976 349.444 117.12 350.068 117.12ZM353.452 120V117.36L353.524 113.52L353.284 109.704V102.192H357.028V120H353.452ZM360.494 120V107.088H364.238V120H360.494ZM362.366 105.288C361.678 105.288 361.118 105.088 360.686 104.688C360.254 104.288 360.038 103.792 360.038 103.2C360.038 102.608 360.254 102.112 360.686 101.712C361.118 101.312 361.678 101.112 362.366 101.112C363.054 101.112 363.614 101.304 364.046 101.688C364.478 102.056 364.694 102.536 364.694 103.128C364.694 103.752 364.478 104.272 364.046 104.688C363.63 105.088 363.07 105.288 362.366 105.288ZM375.56 106.896C376.584 106.896 377.496 107.104 378.296 107.52C379.112 107.92 379.752 108.544 380.216 109.392C380.68 110.224 380.912 111.296 380.912 112.608V120H377.168V113.184C377.168 112.144 376.936 111.376 376.472 110.88C376.024 110.384 375.384 110.136 374.552 110.136C373.96 110.136 373.424 110.264 372.944 110.52C372.48 110.76 372.112 111.136 371.84 111.648C371.584 112.16 371.456 112.816 371.456 113.616V120H367.712V107.088H371.288V110.664L370.616 109.584C371.08 108.72 371.744 108.056 372.608 107.592C373.472 107.128 374.456 106.896 375.56 106.896ZM390.472 124.848C389.256 124.848 388.08 124.696 386.944 124.392C385.824 124.104 384.888 123.664 384.136 123.072L385.624 120.384C386.168 120.832 386.856 121.184 387.688 121.44C388.536 121.712 389.368 121.848 390.184 121.848C391.512 121.848 392.472 121.552 393.064 120.96C393.672 120.368 393.976 119.488 393.976 118.32V116.376L394.216 113.136L394.168 109.872V107.088H397.72V117.84C397.72 120.24 397.096 122.008 395.848 123.144C394.6 124.28 392.808 124.848 390.472 124.848ZM389.896 119.376C388.696 119.376 387.608 119.12 386.632 118.608C385.672 118.08 384.896 117.352 384.304 116.424C383.728 115.48 383.44 114.384 383.44 113.136C383.44 111.872 383.728 110.776 384.304 109.848C384.896 108.904 385.672 108.176 386.632 107.664C387.608 107.152 388.696 106.896 389.896 106.896C390.984 106.896 391.944 107.12 392.776 107.568C393.608 108 394.256 108.68 394.72 109.608C395.184 110.52 395.416 111.696 395.416 113.136C395.416 114.56 395.184 115.736 394.72 116.664C394.256 117.576 393.608 118.256 392.776 118.704C391.944 119.152 390.984 119.376 389.896 119.376ZM390.64 116.304C391.296 116.304 391.88 116.176 392.392 115.92C392.904 115.648 393.304 115.272 393.592 114.792C393.88 114.312 394.024 113.76 394.024 113.136C394.024 112.496 393.88 111.944 393.592 111.48C393.304 111 392.904 110.632 392.392 110.376C391.88 110.104 391.296 109.968 390.64 109.968C389.984 109.968 389.4 110.104 388.888 110.376C388.376 110.632 387.968 111 387.664 111.48C387.376 111.944 387.232 112.496 387.232 113.136C387.232 113.76 387.376 114.312 387.664 114.792C387.968 115.272 388.376 115.648 388.888 115.92C389.4 116.176 389.984 116.304 390.64 116.304Z" fill="black"/>
<path d="M563.512 120.288C562.168 120.288 560.88 120.112 559.648 119.76C558.416 119.392 557.424 118.92 556.672 118.344L557.992 115.416C558.712 115.928 559.56 116.352 560.536 116.688C561.528 117.008 562.528 117.168 563.536 117.168C564.304 117.168 564.92 117.096 565.384 116.952C565.864 116.792 566.216 116.576 566.44 116.304C566.664 116.032 566.776 115.72 566.776 115.368C566.776 114.92 566.6 114.568 566.248 114.312C565.896 114.04 565.432 113.824 564.856 113.664C564.28 113.488 563.64 113.328 562.936 113.184C562.248 113.024 561.552 112.832 560.848 112.608C560.16 112.384 559.528 112.096 558.952 111.744C558.376 111.392 557.904 110.928 557.536 110.352C557.184 109.776 557.008 109.04 557.008 108.144C557.008 107.184 557.264 106.312 557.776 105.528C558.304 104.728 559.088 104.096 560.128 103.632C561.184 103.152 562.504 102.912 564.088 102.912C565.144 102.912 566.184 103.04 567.208 103.296C568.232 103.536 569.136 103.904 569.92 104.4L568.72 107.352C567.936 106.904 567.152 106.576 566.368 106.368C565.584 106.144 564.816 106.032 564.064 106.032C563.312 106.032 562.696 106.12 562.216 106.296C561.736 106.472 561.392 106.704 561.184 106.992C560.976 107.264 560.872 107.584 560.872 107.952C560.872 108.384 561.048 108.736 561.4 109.008C561.752 109.264 562.216 109.472 562.792 109.632C563.368 109.792 564 109.952 564.688 110.112C565.392 110.272 566.088 110.456 566.776 110.664C567.48 110.872 568.12 111.152 568.696 111.504C569.272 111.856 569.736 112.32 570.088 112.896C570.456 113.472 570.64 114.2 570.64 115.08C570.64 116.024 570.376 116.888 569.848 117.672C569.32 118.456 568.528 119.088 567.472 119.568C566.432 120.048 565.112 120.288 563.512 120.288ZM580.881 106.896C581.905 106.896 582.817 107.104 583.617 107.52C584.433 107.92 585.073 108.544 585.537 109.392C586.001 110.224 586.233 111.296 586.233 112.608V120H582.489V113.184C582.489 112.144 582.257 111.376 581.793 110.88C581.345 110.384 580.705 110.136 579.873 110.136C579.281 110.136 578.745 110.264 578.265 110.52C577.801 110.76 577.433 111.136 577.161 111.648C576.905 112.16 576.777 112.816 576.777 113.616V120H573.033V102.192H576.777V110.664L575.937 109.584C576.401 108.72 577.065 108.056 577.929 107.592C578.793 107.128 579.777 106.896 580.881 106.896ZM589.626 120V107.088H593.37V120H589.626ZM591.498 105.288C590.81 105.288 590.25 105.088 589.818 104.688C589.386 104.288 589.17 103.792 589.17 103.2C589.17 102.608 589.386 102.112 589.818 101.712C590.25 101.312 590.81 101.112 591.498 101.112C592.186 101.112 592.746 101.304 593.178 101.688C593.61 102.056 593.826 102.536 593.826 103.128C593.826 103.752 593.61 104.272 593.178 104.688C592.762 105.088 592.202 105.288 591.498 105.288ZM604.477 120.192C603.389 120.192 602.437 119.952 601.621 119.472C600.805 118.992 600.165 118.264 599.701 117.288C599.253 116.296 599.029 115.048 599.029 113.544C599.029 112.024 599.245 110.776 599.677 109.8C600.109 108.824 600.733 108.096 601.549 107.616C602.365 107.136 603.341 106.896 604.477 106.896C605.693 106.896 606.781 107.176 607.741 107.736C608.717 108.28 609.485 109.048 610.045 110.04C610.621 111.032 610.909 112.2 610.909 113.544C610.909 114.904 610.621 116.08 610.045 117.072C609.485 118.064 608.717 118.832 607.741 119.376C606.781 119.92 605.693 120.192 604.477 120.192ZM596.845 124.656V107.088H600.421V109.728L600.349 113.568L600.589 117.384V124.656H596.845ZM603.829 117.12C604.453 117.12 605.005 116.976 605.485 116.688C605.981 116.4 606.373 115.992 606.661 115.464C606.965 114.92 607.117 114.28 607.117 113.544C607.117 112.792 606.965 112.152 606.661 111.624C606.373 111.096 605.981 110.688 605.485 110.4C605.005 110.112 604.453 109.968 603.829 109.968C603.205 109.968 602.645 110.112 602.149 110.4C601.653 110.688 601.261 111.096 600.973 111.624C600.685 112.152 600.541 112.792 600.541 113.544C600.541 114.28 600.685 114.92 600.973 115.464C601.261 115.992 601.653 116.4 602.149 116.688C602.645 116.976 603.205 117.12 603.829 117.12ZM621.048 120.192C619.96 120.192 619.008 119.952 618.192 119.472C617.376 118.992 616.736 118.264 616.272 117.288C615.824 116.296 615.6 115.048 615.6 113.544C615.6 112.024 615.816 110.776 616.248 109.8C616.68 108.824 617.304 108.096 618.12 107.616C618.936 107.136 619.912 106.896 621.048 106.896C622.264 106.896 623.352 107.176 624.312 107.736C625.288 108.28 626.056 109.048 626.616 110.04C627.192 111.032 627.48 112.2 627.48 113.544C627.48 114.904 627.192 116.08 626.616 117.072C626.056 118.064 625.288 118.832 624.312 119.376C623.352 119.92 622.264 120.192 621.048 120.192ZM613.416 124.656V107.088H616.992V109.728L616.92 113.568L617.16 117.384V124.656H613.416ZM620.4 117.12C621.024 117.12 621.576 116.976 622.056 116.688C622.552 116.4 622.944 115.992 623.232 115.464C623.536 114.92 623.688 114.28 623.688 113.544C623.688 112.792 623.536 112.152 623.232 111.624C622.944 111.096 622.552 110.688 622.056 110.4C621.576 110.112 621.024 109.968 620.4 109.968C619.776 109.968 619.216 110.112 618.72 110.4C618.224 110.688 617.832 111.096 617.544 111.624C617.256 112.152 617.112 112.792 617.112 113.544C617.112 114.28 617.256 114.92 617.544 115.464C617.832 115.992 618.224 116.4 618.72 116.688C619.216 116.976 619.776 117.12 620.4 117.12ZM636.394 120.192C634.922 120.192 633.626 119.904 632.506 119.328C631.402 118.752 630.546 117.968 629.938 116.976C629.33 115.968 629.026 114.824 629.026 113.544C629.026 112.248 629.322 111.104 629.914 110.112C630.522 109.104 631.346 108.32 632.386 107.76C633.426 107.184 634.602 106.896 635.914 106.896C637.178 106.896 638.314 107.168 639.322 107.712C640.346 108.24 641.154 109.008 641.746 110.016C642.338 111.008 642.634 112.2 642.634 113.592C642.634 113.736 642.626 113.904 642.61 114.096C642.594 114.272 642.578 114.44 642.562 114.6H632.074V112.416H640.594L639.154 113.064C639.154 112.392 639.018 111.808 638.746 111.312C638.474 110.816 638.098 110.432 637.618 110.16C637.138 109.872 636.578 109.728 635.938 109.728C635.298 109.728 634.73 109.872 634.234 110.16C633.754 110.432 633.378 110.824 633.106 111.336C632.834 111.832 632.698 112.424 632.698 113.112V113.688C632.698 114.392 632.85 115.016 633.154 115.56C633.474 116.088 633.914 116.496 634.474 116.784C635.05 117.056 635.722 117.192 636.49 117.192C637.178 117.192 637.778 117.088 638.29 116.88C638.818 116.672 639.298 116.36 639.73 115.944L641.722 118.104C641.13 118.776 640.386 119.296 639.49 119.664C638.594 120.016 637.562 120.192 636.394 120.192ZM650.67 120.192C649.454 120.192 648.358 119.92 647.382 119.376C646.406 118.816 645.63 118.04 645.054 117.048C644.494 116.056 644.214 114.888 644.214 113.544C644.214 112.184 644.494 111.008 645.054 110.016C645.63 109.024 646.406 108.256 647.382 107.712C648.358 107.168 649.454 106.896 650.67 106.896C651.758 106.896 652.71 107.136 653.526 107.616C654.342 108.096 654.974 108.824 655.422 109.8C655.87 110.776 656.094 112.024 656.094 113.544C656.094 115.048 655.878 116.296 655.446 117.288C655.014 118.264 654.39 118.992 653.574 119.472C652.774 119.952 651.806 120.192 650.67 120.192ZM651.318 117.12C651.926 117.12 652.478 116.976 652.974 116.688C653.47 116.4 653.862 115.992 654.15 115.464C654.454 114.92 654.606 114.28 654.606 113.544C654.606 112.792 654.454 112.152 654.15 111.624C653.862 111.096 653.47 110.688 652.974 110.4C652.478 110.112 651.926 109.968 651.318 109.968C650.694 109.968 650.134 110.112 649.638 110.4C649.142 110.688 648.742 111.096 648.438 111.624C648.15 112.152 648.006 112.792 648.006 113.544C648.006 114.28 648.15 114.92 648.438 115.464C648.742 115.992 649.142 116.4 649.638 116.688C650.134 116.976 650.694 117.12 651.318 117.12ZM654.702 120V117.36L654.774 113.52L654.534 109.704V102.192H658.278V120H654.702Z" fill="black"/>
<path d="M812.992 120V103.2H820.624C822.448 103.2 824.056 103.552 825.448 104.256C826.84 104.944 827.928 105.912 828.712 107.16C829.496 108.408 829.888 109.888 829.888 111.6C829.888 113.296 829.496 114.776 828.712 116.04C827.928 117.288 826.84 118.264 825.448 118.968C824.056 119.656 822.448 120 820.624 120H812.992ZM816.88 116.808H820.432C821.552 116.808 822.52 116.6 823.336 116.184C824.168 115.752 824.808 115.144 825.256 114.36C825.72 113.576 825.952 112.656 825.952 111.6C825.952 110.528 825.72 109.608 825.256 108.84C824.808 108.056 824.168 107.456 823.336 107.04C822.52 106.608 821.552 106.392 820.432 106.392H816.88V116.808ZM838.964 120.192C837.492 120.192 836.196 119.904 835.076 119.328C833.972 118.752 833.116 117.968 832.508 116.976C831.9 115.968 831.596 114.824 831.596 113.544C831.596 112.248 831.892 111.104 832.484 110.112C833.092 109.104 833.916 108.32 834.956 107.76C835.996 107.184 837.172 106.896 838.484 106.896C839.748 106.896 840.884 107.168 841.892 107.712C842.916 108.24 843.724 109.008 844.316 110.016C844.908 111.008 845.204 112.2 845.204 113.592C845.204 113.736 845.196 113.904 845.18 114.096C845.164 114.272 845.148 114.44 845.132 114.6H834.644V112.416H843.164L841.724 113.064C841.724 112.392 841.588 111.808 841.316 111.312C841.044 110.816 840.668 110.432 840.188 110.16C839.708 109.872 839.148 109.728 838.508 109.728C837.868 109.728 837.3 109.872 836.804 110.16C836.324 110.432 835.948 110.824 835.676 111.336C835.404 111.832 835.268 112.424 835.268 113.112V113.688C835.268 114.392 835.42 115.016 835.724 115.56C836.044 116.088 836.484 116.496 837.044 116.784C837.62 117.056 838.292 117.192 839.06 117.192C839.748 117.192 840.348 117.088 840.86 116.88C841.388 116.672 841.868 116.36 842.3 115.944L844.292 118.104C843.7 118.776 842.956 119.296 842.06 119.664C841.164 120.016 840.132 120.192 838.964 120.192ZM847.697 120V102.192H851.441V120H847.697ZM854.916 120V107.088H858.66V120H854.916ZM856.788 105.288C856.1 105.288 855.54 105.088 855.108 104.688C854.676 104.288 854.46 103.792 854.46 103.2C854.46 102.608 854.676 102.112 855.108 101.712C855.54 101.312 856.1 101.112 856.788 101.112C857.476 101.112 858.036 101.304 858.468 101.688C858.9 102.056 859.116 102.536 859.116 103.128C859.116 103.752 858.9 104.272 858.468 104.688C858.052 105.088 857.492 105.288 856.788 105.288ZM865.638 120L860.214 107.088H864.078L868.59 118.2H866.67L871.35 107.088H874.95L869.502 120H865.638ZM882.534 120.192C881.062 120.192 879.766 119.904 878.646 119.328C877.542 118.752 876.686 117.968 876.078 116.976C875.47 115.968 875.166 114.824 875.166 113.544C875.166 112.248 875.462 111.104 876.054 110.112C876.662 109.104 877.486 108.32 878.526 107.76C879.566 107.184 880.742 106.896 882.054 106.896C883.318 106.896 884.454 107.168 885.462 107.712C886.486 108.24 887.294 109.008 887.886 110.016C888.478 111.008 888.774 112.2 888.774 113.592C888.774 113.736 888.766 113.904 888.75 114.096C888.734 114.272 888.718 114.44 888.702 114.6H878.214V112.416H886.734L885.294 113.064C885.294 112.392 885.158 111.808 884.886 111.312C884.614 110.816 884.238 110.432 883.758 110.16C883.278 109.872 882.718 109.728 882.078 109.728C881.438 109.728 880.87 109.872 880.374 110.16C879.894 110.432 879.518 110.824 879.246 111.336C878.974 111.832 878.838 112.424 878.838 113.112V113.688C878.838 114.392 878.99 115.016 879.294 115.56C879.614 116.088 880.054 116.496 880.614 116.784C881.19 117.056 881.862 117.192 882.63 117.192C883.318 117.192 883.918 117.088 884.43 116.88C884.958 116.672 885.438 116.36 885.87 115.944L887.862 118.104C887.27 118.776 886.526 119.296 885.63 119.664C884.734 120.016 883.702 120.192 882.534 120.192ZM891.267 120V107.088H894.843V110.736L894.339 109.68C894.723 108.768 895.339 108.08 896.187 107.616C897.035 107.136 898.067 106.896 899.283 106.896V110.352C899.123 110.336 898.979 110.328 898.851 110.328C898.723 110.312 898.587 110.304 898.443 110.304C897.419 110.304 896.587 110.6 895.947 111.192C895.323 111.768 895.011 112.672 895.011 113.904V120H891.267ZM907.824 120.192C906.352 120.192 905.056 119.904 903.936 119.328C902.832 118.752 901.976 117.968 901.368 116.976C900.76 115.968 900.456 114.824 900.456 113.544C900.456 112.248 900.752 111.104 901.344 110.112C901.952 109.104 902.776 108.32 903.816 107.76C904.856 107.184 906.032 106.896 907.344 106.896C908.608 106.896 909.744 107.168 910.752 107.712C911.776 108.24 912.584 109.008 913.176 110.016C913.768 111.008 914.064 112.2 914.064 113.592C914.064 113.736 914.056 113.904 914.04 114.096C914.024 114.272 914.008 114.44 913.992 114.6H903.504V112.416H912.023L910.584 113.064C910.584 112.392 910.448 111.808 910.176 111.312C909.904 110.816 909.528 110.432 909.048 110.16C908.568 109.872 908.008 109.728 907.368 109.728C906.728 109.728 906.16 109.872 905.664 110.16C905.184 110.432 904.808 110.824 904.536 111.336C904.264 111.832 904.128 112.424 904.128 113.112V113.688C904.128 114.392 904.28 115.016 904.584 115.56C904.904 116.088 905.344 116.496 905.904 116.784C906.48 117.056 907.152 117.192 907.92 117.192C908.608 117.192 909.208 117.088 909.72 116.88C910.248 116.672 910.728 116.36 911.16 115.944L913.152 118.104C912.56 118.776 911.816 119.296 910.92 119.664C910.024 120.016 908.992 120.192 907.824 120.192ZM922.1 120.192C920.884 120.192 919.788 119.92 918.812 119.376C917.836 118.816 917.06 118.04 916.484 117.048C915.924 116.056 915.644 114.888 915.644 113.544C915.644 112.184 915.924 111.008 916.484 110.016C917.06 109.024 917.836 108.256 918.812 107.712C919.788 107.168 920.884 106.896 922.1 106.896C923.188 106.896 924.14 107.136 924.956 107.616C925.772 108.096 926.404 108.824 926.852 109.8C927.3 110.776 927.524 112.024 927.524 113.544C927.524 115.048 927.308 116.296 926.876 117.288C926.444 118.264 925.82 118.992 925.004 119.472C924.204 119.952 923.236 120.192 922.1 120.192ZM922.748 117.12C923.356 117.12 923.908 116.976 924.404 116.688C924.9 116.4 925.292 115.992 925.58 115.464C925.884 114.92 926.036 114.28 926.036 113.544C926.036 112.792 925.884 112.152 925.58 111.624C925.292 111.096 924.9 110.688 924.404 110.4C923.908 110.112 923.356 109.968 922.748 109.968C922.124 109.968 921.564 110.112 921.068 110.4C920.572 110.688 920.172 111.096 919.868 111.624C919.58 112.152 919.436 112.792 919.436 113.544C919.436 114.28 919.58 114.92 919.868 115.464C920.172 115.992 920.572 116.4 921.068 116.688C921.564 116.976 922.124 117.12 922.748 117.12ZM926.132 120V117.36L926.204 113.52L925.964 109.704V102.192H929.708V120H926.132Z" fill="black"/>
</svg>
