<svg width="30" height="30" viewBox="0 0 36 36" fill="none" xmlns="http://www.w3.org/2000/svg">
<circle cx="18" cy="18" r="17.5" stroke="#757575" stroke-opacity="0.25"/>
<g clip-path="url(#clip0_156_1497)">
<path d="M18 10C15.829 10 15.556 10.01 14.703 10.048C13.85 10.088 13.269 10.222 12.76 10.42C12.2261 10.6208 11.7425 10.9358 11.343 11.343C10.9361 11.7427 10.6211 12.2262 10.42 12.76C10.222 13.268 10.087 13.85 10.048 14.7C10.01 15.555 10 15.827 10 18.001C10 20.173 10.01 20.445 10.048 21.298C10.088 22.15 10.222 22.731 10.42 23.24C10.625 23.766 10.898 24.212 11.343 24.657C11.787 25.102 12.233 25.376 12.759 25.58C13.269 25.778 13.849 25.913 14.701 25.952C15.555 25.99 15.827 26 18 26C20.173 26 20.444 25.99 21.298 25.952C22.149 25.912 22.732 25.778 23.241 25.58C23.7746 25.3791 24.2578 25.0641 24.657 24.657C25.102 24.212 25.375 23.766 25.58 23.24C25.777 22.731 25.912 22.15 25.952 21.298C25.99 20.445 26 20.173 26 18C26 15.827 25.99 15.555 25.952 14.701C25.912 13.85 25.777 13.268 25.58 12.76C25.3789 12.2262 25.0639 11.7427 24.657 11.343C24.2576 10.9357 23.774 10.6206 23.24 10.42C22.73 10.222 22.148 10.087 21.297 10.048C20.443 10.01 20.172 10 17.998 10H18.001H18ZM17.283 11.442H18.001C20.137 11.442 20.39 11.449 21.233 11.488C22.013 11.523 22.437 11.654 22.719 11.763C23.092 11.908 23.359 12.082 23.639 12.362C23.919 12.642 24.092 12.908 24.237 13.282C24.347 13.563 24.477 13.987 24.512 14.767C24.551 15.61 24.559 15.863 24.559 17.998C24.559 20.133 24.551 20.387 24.512 21.23C24.477 22.01 24.346 22.433 24.237 22.715C24.1087 23.0624 23.904 23.3764 23.638 23.634C23.358 23.914 23.092 24.087 22.718 24.232C22.438 24.342 22.014 24.472 21.233 24.508C20.39 24.546 20.137 24.555 18.001 24.555C15.865 24.555 15.611 24.546 14.768 24.508C13.988 24.472 13.565 24.342 13.283 24.232C12.9355 24.1039 12.6211 23.8996 12.363 23.634C12.0968 23.376 11.8917 23.0617 11.763 22.714C11.654 22.433 11.523 22.009 11.488 21.229C11.45 20.386 11.442 20.133 11.442 17.996C11.442 15.86 11.45 15.608 11.488 14.765C11.524 13.985 11.654 13.561 11.764 13.279C11.909 12.906 12.083 12.639 12.363 12.359C12.643 12.079 12.909 11.906 13.283 11.761C13.565 11.651 13.988 11.521 14.768 11.485C15.506 11.451 15.792 11.441 17.283 11.44V11.442ZM22.271 12.77C22.1449 12.77 22.0201 12.7948 21.9036 12.8431C21.7872 12.8913 21.6813 12.962 21.5922 13.0512C21.503 13.1403 21.4323 13.2462 21.3841 13.3626C21.3358 13.4791 21.311 13.6039 21.311 13.73C21.311 13.8561 21.3358 13.9809 21.3841 14.0974C21.4323 14.2138 21.503 14.3197 21.5922 14.4088C21.6813 14.498 21.7872 14.5687 21.9036 14.6169C22.0201 14.6652 22.1449 14.69 22.271 14.69C22.5256 14.69 22.7698 14.5889 22.9498 14.4088C23.1299 14.2288 23.231 13.9846 23.231 13.73C23.231 13.4754 23.1299 13.2312 22.9498 13.0512C22.7698 12.8711 22.5256 12.77 22.271 12.77ZM18.001 13.892C17.4561 13.8835 16.9149 13.9835 16.409 14.1861C15.9031 14.3888 15.4425 14.6901 15.0542 15.0724C14.6658 15.4548 14.3574 15.9106 14.1468 16.4133C13.9363 16.916 13.8279 17.4555 13.8279 18.0005C13.8279 18.5455 13.9363 19.085 14.1468 19.5877C14.3574 20.0904 14.6658 20.5462 15.0542 20.9286C15.4425 21.3109 15.9031 21.6122 16.409 21.8149C16.9149 22.0175 17.4561 22.1175 18.001 22.109C19.0795 22.0922 20.1082 21.6519 20.865 20.8833C21.6217 20.1146 22.0459 19.0792 22.0459 18.0005C22.0459 16.9218 21.6217 15.8864 20.865 15.1177C20.1082 14.3491 19.0795 13.9088 18.001 13.892ZM18.001 15.333C18.7083 15.333 19.3867 15.614 19.8869 16.1141C20.387 16.6143 20.668 17.2927 20.668 18C20.668 18.7073 20.387 19.3857 19.8869 19.8859C19.3867 20.386 18.7083 20.667 18.001 20.667C17.2937 20.667 16.6153 20.386 16.1151 19.8859C15.615 19.3857 15.334 18.7073 15.334 18C15.334 17.2927 15.615 16.6143 16.1151 16.1141C16.6153 15.614 17.2937 15.333 18.001 15.333Z" fill="#757575"/>
</g>
<defs>
<clipPath id="clip0_156_1497">
<rect width="16" height="16" fill="white" transform="translate(10 10)"/>
</clipPath>
</defs>
</svg>
