<svg width="30" height="30" viewBox="0 0 36 36" fill="none" xmlns="http://www.w3.org/2000/svg">
<circle cx="18" cy="18" r="17.5" stroke="#757575" stroke-opacity="0.25"/>
<path d="M19.8333 18L16.625 19.8333V16.1666L19.8333 18Z" fill="#757575" stroke="#757575" stroke-width="1.5" stroke-linecap="round" stroke-linejoin="round"/>
<path d="M8.83398 18.6481V17.351C8.83398 14.6972 8.83398 13.3699 9.66357 12.5165C10.4941 11.6621 11.8012 11.6255 14.4147 11.5512C15.6522 11.5164 16.9172 11.4916 18.0007 11.4916C19.0832 11.4916 20.3482 11.5164 21.5867 11.5512C24.2001 11.6255 25.5072 11.6621 26.3368 12.5165C27.1673 13.3699 27.1673 14.6981 27.1673 17.351V18.6481C27.1673 21.3027 27.1673 22.6291 26.3377 23.4835C25.5072 24.3369 24.201 24.3745 21.5867 24.4478C20.3492 24.4836 19.0842 24.5083 18.0007 24.5083C16.8051 24.5047 15.6096 24.4845 14.4147 24.4478C11.8012 24.3745 10.4941 24.3378 9.66357 23.4835C8.83398 22.6291 8.83398 21.3018 8.83398 18.649V18.6481Z" stroke="#757575" stroke-width="1.5"/>
</svg>
