<svg width="300" height="206" viewBox="0 0 370 246" fill="none" xmlns="http://www.w3.org/2000/svg">
<g clip-path="url(#clip0_158_3756)">
<path d="M376.936 -4.93728H-6.93555V250.936H376.936V-4.93728Z" fill="white"/>
<path d="M377 251H-7V-5H377V251ZM-6.872 250.872H376.872V-4.872H-6.872V250.872Z" fill="black"/>
<path d="M23.1543 233.843V150.434H88.6903V95.4122H276.459V109.903H345.328L346.462 233.843H23.1543Z" fill="#F1F2F5"/>
<path d="M233.418 48.0394H104.855C100.442 48.0394 96.8652 51.6165 96.8652 56.0291V225.852C96.8652 230.264 100.442 233.842 104.855 233.842H233.418C237.831 233.842 241.408 230.264 241.408 225.852V56.0291C241.408 51.6165 237.831 48.0394 233.418 48.0394Z" fill="#1D2238"/>
<path d="M232.405 59.1024H105.869V222.779H232.405V59.1024Z" fill="white"/>
<path d="M178.944 45.1222C178.914 42.5407 177.868 40.075 176.032 38.2599C174.196 36.4449 171.719 35.4269 169.137 35.4269C166.555 35.4269 164.078 36.4449 162.242 38.2599C160.406 40.075 159.36 42.5407 159.33 45.1222H150.242V60.664H188.032V45.1222H178.944ZM169.136 46.6749C168.453 46.6749 167.785 46.4722 167.216 46.0924C166.648 45.7127 166.205 45.1729 165.943 44.5414C165.682 43.9099 165.613 43.2151 165.747 42.5447C165.88 41.8743 166.209 41.2585 166.693 40.7751C167.176 40.2918 167.792 39.9626 168.462 39.8293C169.132 39.6959 169.827 39.7644 170.459 40.026C171.09 40.2875 171.63 40.7305 172.01 41.2988C172.39 41.8672 172.592 42.5353 172.592 43.2189C172.592 44.1355 172.228 45.0145 171.58 45.6626C170.932 46.3108 170.053 46.6749 169.136 46.6749Z" fill="#F0C36A"/>
<path d="M227.237 76.1955H141.588V81.4269H227.237V76.1955Z" fill="#F1F2F5"/>
<path d="M227.237 86.4125H141.588V91.6438H227.237V86.4125Z" fill="#F1F2F5"/>
<path d="M183.329 96.6282H141.588V101.86H183.329V96.6282Z" fill="#F1F2F5"/>
<path d="M138.024 102.245H113.932V75.8115H138.024V102.245ZM114.703 101.477H137.256V76.5795H114.7L114.703 101.477Z" fill="#9EA9BD"/>
<path d="M122.755 80.8752L128.401 88.728L143.963 74.0887L146.727 77.6586L127.593 95.9395L119.344 83.9792L122.755 80.8752Z" fill="#BF4C26"/>
<path d="M227.237 109.903H141.588V115.134H227.237V109.903Z" fill="#F1F2F5"/>
<path d="M227.237 120.12H141.588V125.351H227.237V120.12Z" fill="#F1F2F5"/>
<path d="M183.329 130.336H141.588V135.567H183.329V130.336Z" fill="#F1F2F5"/>
<path d="M138.024 135.951H113.932V109.519H138.024V135.951ZM114.703 135.183H137.256V110.287H114.7L114.703 135.183Z" fill="#9EA9BD"/>
<path d="M122.755 114.583L128.401 122.434L143.963 107.796L146.727 111.365L127.593 129.647L119.344 117.687L122.755 114.583Z" fill="#BF4C26"/>
<path d="M227.237 143.611H141.588V148.842H227.237V143.611Z" fill="#F1F2F5"/>
<path d="M227.237 153.826H141.588V159.058H227.237V153.826Z" fill="#F1F2F5"/>
<path d="M183.329 164.043H141.588V169.275H183.329V164.043Z" fill="#F1F2F5"/>
<path d="M138.024 169.659H113.932V143.224H138.024V169.659ZM114.703 168.891H137.256V143.992H114.7L114.703 168.891Z" fill="#9EA9BD"/>
<path d="M122.755 148.289L128.401 156.142L143.963 141.504L146.727 145.072L127.593 163.353L119.344 151.394L122.755 148.289Z" fill="#BF4C26"/>
<path d="M227.237 177.318H141.588V182.549H227.237V177.318Z" fill="#F1F2F5"/>
<path d="M227.237 187.534H141.588V192.765H227.237V187.534Z" fill="#F1F2F5"/>
<path d="M183.329 197.749H141.588V202.981H183.329V197.749Z" fill="#F1F2F5"/>
<path d="M138.024 203.366H113.932V176.934H138.024V203.366ZM114.703 202.598H137.256V177.702H114.7L114.703 202.598Z" fill="#9EA9BD"/>
<path d="M122.755 181.996L128.401 189.849L143.963 175.21L146.727 178.78L127.593 197.061L119.344 185.1L122.755 181.996Z" fill="#BF4C26"/>
<path d="M305.167 193.888H265.381V233.843H305.167V193.888Z" fill="#9EA9BD"/>
<path d="M287.673 193.888H282.877V200.215H287.673V193.888Z" fill="#1D2238"/>
<path d="M333.654 193.888H305.168V233.843H333.654V193.888Z" fill="#D2D6E1"/>
<path d="M321.235 193.888H317.588V200.215H321.235V193.888Z" fill="#1D2238"/>
<path d="M297.499 117.42H257.713V193.888H297.499V117.42Z" fill="#EDB248"/>
<path d="M280.003 117.42H275.207V129.528H280.003V117.42Z" fill="#1D2238"/>
<path d="M325.986 117.42H297.5V193.888H325.986V117.42Z" fill="#F0C36A"/>
<path d="M313.567 117.42H309.92V129.528H313.567V117.42Z" fill="#1D2238"/>
<path d="M241.987 193.888H190.816V233.843H241.987V193.888Z" fill="#F0C36A"/>
<path d="M219.485 193.888H213.318V200.215H219.485V193.888Z" fill="#1D2238"/>
<path d="M275.846 193.888H241.986V233.843H275.846V193.888Z" fill="#F6DBA6"/>
<path d="M262.995 193.888H256.828V200.215H262.995V193.888Z" fill="#1D2238"/>
<path d="M236.894 153.931H197.107V193.886H236.894V153.931Z" fill="#D2D6E1"/>
<path d="M219.398 153.931H214.602V160.258H219.398V153.931Z" fill="#1D2238"/>
<path d="M265.381 153.931H236.895V193.886H265.381V153.931Z" fill="#F1F2F5"/>
<path d="M252.961 153.931H249.314V160.258H252.961V153.931Z" fill="#1D2238"/>
<path d="M356.057 233.523H13.8145V234.163H356.057V233.523Z" fill="#1D2238"/>
<path d="M77.6657 116.005L76.3461 116.887L69.3061 106.366C69.189 106.192 69.1461 105.977 69.1869 105.771C69.2277 105.565 69.3489 105.383 69.5237 105.266C69.6104 105.207 69.7077 105.167 69.81 105.147C69.9124 105.126 70.0177 105.126 70.1201 105.146C70.2225 105.167 70.3198 105.207 70.4066 105.265C70.4934 105.323 70.5678 105.398 70.6257 105.484L77.6657 116.005Z" fill="#1D2238"/>
<path d="M70.6953 118.776C70.6953 118.776 71.2393 114.256 72.3696 114.048C73.4998 113.839 76.8495 113.92 77.5164 114.048C78.1833 114.176 80.0265 115.344 80.4041 116.517L73.2553 123.461L70.6953 118.776Z" fill="#FFBE9D"/>
<path d="M64.1 80.8112C65.0346 82.0615 65.6708 83.5089 65.9598 85.0429C66.1352 86.0285 65.8434 87.0307 64.973 87.5274L60.123 80.8112H64.1Z" fill="#1D2238"/>
<path d="M57.1921 79.6234C55.2013 79.6236 53.284 80.3752 51.8234 81.7278C50.3628 83.0805 49.4665 84.9345 49.3137 86.9194L49.2497 86.9091L47.5396 97.5715C47.4492 98.1304 47.47 98.7017 47.6007 99.2525C47.7314 99.8034 47.9695 100.323 48.3013 100.782C48.6332 101.241 49.0523 101.629 49.5346 101.926C50.0169 102.222 50.5529 102.421 51.1121 102.51C53.4596 102.886 55.2593 103.553 56.0439 98.9411L56.1642 98.1846C56.5058 98.2297 56.85 98.2528 57.1946 98.2538C59.2907 98.2534 61.3007 97.4205 62.7828 95.9383C64.2648 94.456 65.0973 92.4458 65.0973 90.3498V87.5338C65.0982 86.4952 64.8943 85.4666 64.4974 84.5068C64.1005 83.547 63.5183 82.6749 62.7841 81.9402C62.0499 81.2056 61.1782 80.6228 60.2187 80.2253C59.2591 79.8277 58.2307 79.6232 57.1921 79.6234Z" fill="#FFBE9D"/>
<path d="M62.0127 86.1834C62.0735 86.3874 62.1231 86.5947 62.1612 86.8042C62.1842 86.9078 62.197 87.0115 62.2136 87.1152C62.2303 87.2189 62.2469 87.3226 62.2572 87.4263C62.2815 87.6323 62.3045 87.8397 62.3148 88.047L62.3365 88.3568V88.6679L61.9909 88.312C62.1189 88.312 62.2546 88.303 62.3864 88.312C62.4543 88.312 62.5068 88.312 62.6207 88.3223C62.7203 88.3351 62.8177 88.3618 62.91 88.4016C63.091 88.4811 63.2435 88.6138 63.3473 88.7821C63.4511 88.9504 63.5013 89.1462 63.4911 89.3437C63.4756 89.5303 63.4057 89.7084 63.2901 89.8557C63.1775 89.995 63.0246 90.096 62.8524 90.145C62.7691 90.1681 62.6827 90.1776 62.5964 90.1731C62.5239 90.1667 62.452 90.1547 62.3813 90.1373C62.2533 90.1079 62.1176 90.0746 61.9858 90.0349C61.9833 90.0342 61.9811 90.0329 61.9791 90.0313C61.9771 90.0297 61.9755 90.0277 61.9743 90.0254C61.9731 90.0232 61.9724 90.0207 61.9721 90.0181C61.9719 90.0156 61.9722 90.013 61.973 90.0106C61.9743 90.0069 61.9767 90.0036 61.9799 90.0013C61.9832 89.9991 61.987 89.9978 61.9909 89.9978H62.3864C62.453 89.9978 62.5144 89.9978 62.5823 89.9978C62.6448 89.9899 62.7059 89.9735 62.764 89.9491C62.8806 89.9005 62.9803 89.8185 63.0503 89.7134C63.1204 89.6082 63.1578 89.4847 63.1578 89.3584C63.1578 89.2321 63.1204 89.1086 63.0503 89.0035C62.9803 88.8983 62.8806 88.8163 62.764 88.7677C62.7062 88.7445 62.6455 88.7295 62.5836 88.7229C62.5234 88.7229 62.4556 88.7229 62.389 88.7229H61.9551V88.6845C61.9551 87.8563 61.9551 87.0282 61.9743 86.2C61.9743 86.1949 61.9763 86.19 61.9799 86.1864C61.9835 86.1828 61.9884 86.1808 61.9935 86.1808C61.9976 86.1807 62.0017 86.1821 62.005 86.1846C62.0082 86.1872 62.0105 86.1908 62.0114 86.1949L62.0127 86.1834Z" fill="#1D2238"/>
<path d="M63.6468 86.7914C63.95 86.7914 64.1959 86.5455 64.1959 86.2423C64.1959 85.939 63.95 85.6931 63.6468 85.6931C63.3435 85.6931 63.0977 85.939 63.0977 86.2423C63.0977 86.5455 63.3435 86.7914 63.6468 86.7914Z" fill="#1D2238"/>
<path d="M63.1905 91.7923C63.1905 91.7923 62.2817 90.4675 59.6309 90.5021L63.1905 91.7923Z" fill="white"/>
<path d="M62.2637 84.0291C62.2138 84.2339 62.6388 84.5117 63.2135 84.6512C63.7882 84.7907 64.2925 84.737 64.3412 84.5322C64.3898 84.3274 63.9662 84.0496 63.3927 83.9101C62.8193 83.7706 62.3137 83.8243 62.2637 84.0291Z" fill="#1D2238"/>
<path d="M60.4671 87.0474C60.7704 87.0474 61.0162 86.8015 61.0162 86.4983C61.0162 86.195 60.7704 85.9491 60.4671 85.9491C60.1638 85.9491 59.918 86.195 59.918 86.4983C59.918 86.8015 60.1638 87.0474 60.4671 87.0474Z" fill="#1D2238"/>
<path d="M59.0865 84.8022C59.1389 85.0058 59.6458 85.0518 60.2167 84.9046C60.7876 84.7574 61.2087 84.472 61.1562 84.2646C61.1037 84.0573 60.5981 84.015 60.026 84.1622C59.4538 84.3094 59.034 84.6 59.0865 84.8022Z" fill="#1D2238"/>
<path d="M63.7236 92.1635C63.3338 92.1292 62.9481 92.0585 62.5716 91.9523C62.3821 91.9075 62.2004 91.8435 62.0148 91.7885C61.8292 91.7335 61.65 91.6605 61.4682 91.5965C61.2864 91.5325 61.1098 91.4531 60.9319 91.3763C60.754 91.2995 60.5786 91.2202 60.4071 91.128C60.0539 90.9549 59.7172 90.7501 59.401 90.5162C59.3996 90.5147 59.3984 90.5131 59.3977 90.5112C59.3969 90.5093 59.3965 90.5073 59.3965 90.5053C59.3965 90.5033 59.3969 90.5013 59.3977 90.4994C59.3984 90.4975 59.3996 90.4958 59.401 90.4944C59.4035 90.4923 59.4067 90.4912 59.41 90.4912C59.4132 90.4912 59.4164 90.4923 59.4189 90.4944L61.5949 91.3034L63.7543 92.1418C63.7563 92.1425 63.7581 92.1436 63.7596 92.145C63.7611 92.1464 63.7623 92.1482 63.7632 92.1501C63.764 92.152 63.7645 92.1541 63.7645 92.1562C63.7645 92.1583 63.7641 92.1603 63.7632 92.1623C63.762 92.1653 63.7599 92.1679 63.7571 92.1697C63.7544 92.1715 63.7512 92.1725 63.7479 92.1725L63.7236 92.1635Z" fill="#1D2238"/>
<path d="M48.1737 87.713C48.1737 87.713 55.0588 81.647 61.7238 81.656C61.7238 81.656 64.6345 81.528 65.7097 83.9933C65.7097 83.9933 64.4297 73.9248 53.2937 75.6221C42.1577 77.3194 46.6057 88.6781 46.6057 88.6781L48.1737 87.713Z" fill="#BF4C26"/>
<path d="M56.0157 82.8887C56.0157 82.8887 54.6602 84.5347 51.8288 87.5274C51.1274 88.2672 49.9088 89.2912 49.9088 89.2912C49.9088 89.2912 50.2019 87.7424 49.6797 86.6135C49.6848 86.6135 52.849 84.0586 56.0157 82.8887Z" fill="#1D2238"/>
<path d="M60.3895 81.5011C60.3895 81.5011 61.2612 83.0794 63.482 83.1882C63.482 83.1882 59.9325 84.3543 58.5488 81.8864L60.3895 81.5011Z" fill="#1D2238"/>
<path d="M48.7464 90.232L48.2216 93.3245L46.6113 88.6768L49.3134 86.9258L48.7464 90.232Z" fill="#1D2238"/>
<path d="M48.6708 90.0477C49.5396 90.0477 50.2439 89.176 50.2439 88.1008C50.2439 87.0256 49.5396 86.1539 48.6708 86.1539C47.802 86.1539 47.0977 87.0256 47.0977 88.1008C47.0977 89.176 47.802 90.0477 48.6708 90.0477Z" fill="#EB9481"/>
<path d="M49.5757 87.5683C49.4524 87.4578 49.3072 87.3745 49.1495 87.3238C49.086 87.3026 49.0193 87.2926 48.9524 87.2944C48.8937 87.294 48.8353 87.303 48.7796 87.3213C48.6739 87.3639 48.5787 87.4291 48.5007 87.5122C48.4227 87.5953 48.3636 87.6944 48.3277 87.8026C48.3052 87.8618 48.2868 87.9225 48.2727 87.9843C48.2727 88.015 48.2599 88.047 48.2561 88.079V88.1277V88.1635C48.2561 88.1738 48.2561 88.1712 48.2561 88.175C48.252 88.167 48.2473 88.1593 48.242 88.152C48.2188 88.1191 48.1841 88.0962 48.1447 88.088C48.0973 88.088 48.1703 88.1085 48.2356 88.0995C48.3764 88.0842 48.5556 88.0458 48.7348 88.0176C48.9243 87.9806 49.1198 87.9885 49.3057 88.0406H49.3121C49.3168 88.0424 49.3206 88.0459 49.3228 88.0505C49.325 88.055 49.3252 88.0602 49.3236 88.065C49.3221 88.0686 49.3197 88.0717 49.3165 88.074C49.3133 88.0762 49.3096 88.0776 49.3057 88.0778C49.1346 88.096 48.9676 88.1422 48.8116 88.2147C48.6503 88.2774 48.4916 88.3504 48.3201 88.4016C48.2313 88.4324 48.136 88.4395 48.0436 88.4221C48.0181 88.415 47.9943 88.4029 47.9736 88.3864C47.9529 88.3699 47.9358 88.3494 47.9233 88.3261C47.9007 88.2829 47.888 88.2352 47.8861 88.1866C47.8779 88.0059 47.9071 87.8255 47.9719 87.6566C48.0354 87.4865 48.1401 87.3348 48.2765 87.215C48.413 87.0927 48.5855 87.0181 48.7681 87.0026C48.9495 86.9894 49.1299 87.0381 49.2801 87.1408C49.4273 87.2441 49.5451 87.3839 49.6218 87.5466C49.6231 87.5488 49.6239 87.5513 49.6241 87.5538C49.6244 87.5564 49.624 87.559 49.6232 87.5614C49.6223 87.5638 49.621 87.5661 49.6192 87.5679C49.6174 87.5698 49.6153 87.5712 49.6129 87.5722C49.6098 87.5741 49.6062 87.5751 49.6026 87.5751C49.599 87.5751 49.5954 87.5741 49.5924 87.5722L49.5757 87.5683Z" fill="#1D2238"/>
<path d="M57.4805 82.36C57.4805 82.36 62.2024 76.0317 67.9099 77.5613C73.6174 79.0909 65.7096 83.9869 65.7096 83.9869C65.7096 83.9869 63.5105 80.2813 57.4805 82.36Z" fill="#F1F2F5"/>
<path d="M52.7992 75.9178C52.853 76.1955 52.2578 76.545 51.4719 76.6973C50.686 76.8496 50.0024 76.7472 49.9487 76.4682C49.8949 76.1891 50.4901 75.8422 51.2773 75.6899C52.0645 75.5376 52.7455 75.64 52.7992 75.9178Z" fill="#1D2238"/>
<path d="M56.1601 98.1847C54.8698 97.4223 53.688 96.4898 52.6465 95.4122C52.6465 95.4122 53.4068 98.049 56.0449 98.9411L56.1601 98.1847Z" fill="#1D2238"/>
<path d="M69.4781 224.12L81.4397 229.335C82.314 229.716 83.0553 230.349 83.5694 231.153C84.0836 231.956 84.3474 232.894 84.3274 233.848L58.3203 233.792L59.704 224.108L69.4781 224.12Z" fill="#4A4E60"/>
<path d="M58.3242 232.056C60.4669 232.184 62.6084 232.247 64.7511 232.293C65.8225 232.322 66.8938 232.33 67.9652 232.348L71.178 232.371L74.3921 232.363C75.4634 232.349 76.5348 232.347 77.6061 232.322C79.7489 232.284 81.8903 232.226 84.033 232.111C81.8916 231.983 79.7489 231.919 77.6061 231.873C76.5361 231.844 75.4647 231.836 74.3933 231.818L71.1793 231.795L67.9665 231.804C66.8951 231.818 65.8237 231.822 64.7524 231.846C62.6097 231.888 60.4669 231.946 58.3242 232.056Z" fill="#1D2238"/>
<path d="M65.4863 229.89C66.4085 228.968 66.4085 227.473 65.4863 226.55C64.564 225.628 63.0687 225.628 62.1465 226.55C61.2242 227.473 61.2242 228.968 62.1465 229.89C63.0687 230.812 64.564 230.812 65.4863 229.89Z" fill="#1D2238"/>
<path d="M79.824 228.398C79.5435 228.287 79.2372 228.258 78.9408 228.315C78.6607 228.364 78.3937 228.47 78.1562 228.627C77.9117 228.787 77.7057 228.999 77.5533 229.248C77.3878 229.51 77.3152 229.82 77.3472 230.128L77.3971 230.158C77.4664 230.052 77.5421 229.95 77.6237 229.853C77.6647 229.806 77.7005 229.755 77.7517 229.709L77.8797 229.574C78.0622 229.399 78.2616 229.243 78.4749 229.108C78.6854 228.967 78.9062 228.842 79.1354 228.734C79.2489 228.681 79.3654 228.631 79.4848 228.585C79.6013 228.536 79.7216 228.491 79.8407 228.457L79.824 228.398Z" fill="#1D2238"/>
<path d="M76.7724 227.095C76.4918 226.984 76.1856 226.955 75.8892 227.012C75.6091 227.061 75.3421 227.167 75.1046 227.324C74.8603 227.484 74.6545 227.696 74.5017 227.945C74.336 228.207 74.2638 228.517 74.2969 228.825L74.3468 228.855C74.4153 228.748 74.4905 228.647 74.5721 228.55C74.6131 228.503 74.6502 228.452 74.7001 228.407L74.8281 228.271C75.0106 228.096 75.21 227.94 75.4233 227.805C75.6338 227.665 75.8546 227.54 76.0838 227.433C76.1977 227.379 76.3142 227.328 76.4332 227.283C76.5523 227.238 76.67 227.189 76.7903 227.155L76.7724 227.095Z" fill="#1D2238"/>
<path d="M73.947 225.912C73.6665 225.801 73.3601 225.772 73.0638 225.829C72.7837 225.878 72.5167 225.984 72.2792 226.14C72.0348 226.3 71.8286 226.512 71.675 226.761C71.5105 227.024 71.4385 227.334 71.4702 227.643L71.5201 227.671C71.5894 227.565 71.6651 227.464 71.7467 227.367C71.7877 227.319 71.8235 227.268 71.8683 227.223L71.9963 227.087C72.1788 226.912 72.3782 226.756 72.5915 226.621C72.802 226.481 73.0228 226.356 73.252 226.249C73.3663 226.195 73.4828 226.145 73.6014 226.099C73.7179 226.05 73.8382 226.005 73.9573 225.971L73.947 225.912Z" fill="#1D2238"/>
<path d="M53.8889 224.12L65.8518 229.335C66.7261 229.716 67.4674 230.349 67.9815 231.153C68.4957 231.956 68.7595 232.894 68.7395 233.848L42.7324 233.792L44.1161 224.108L53.8889 224.12Z" fill="#9EA9BD"/>
<path d="M42.7363 232.056C44.879 232.184 47.0205 232.247 49.1632 232.293C50.2346 232.322 51.3059 232.33 52.3773 232.348L55.5901 232.371L58.8042 232.363C59.8755 232.349 60.9469 232.347 62.0183 232.322C64.1597 232.284 66.3024 232.226 68.4451 232.111C66.3037 231.983 64.161 231.919 62.0183 231.873C60.9482 231.844 59.8768 231.836 58.8054 231.818L55.5926 231.8L52.3786 231.809C51.3085 231.823 50.2371 231.827 49.1658 231.851C47.0166 231.888 44.879 231.946 42.7363 232.056Z" fill="#1D2238"/>
<path d="M49.8984 229.889C50.8206 228.967 50.8207 227.472 49.8984 226.549C48.9761 225.627 47.4808 225.627 46.5586 226.549C45.6363 227.472 45.6363 228.967 46.5586 229.889C47.4808 230.811 48.9761 230.811 49.8984 229.889Z" fill="#1D2238"/>
<path d="M64.2361 228.398C63.9556 228.287 63.6492 228.258 63.3529 228.315C63.0727 228.364 62.8057 228.47 62.5682 228.627C62.3236 228.787 62.1173 228.999 61.9641 229.248C61.7996 229.51 61.7275 229.82 61.7593 230.128L61.8092 230.158C61.8785 230.052 61.9542 229.95 62.0358 229.853C62.0767 229.806 62.1126 229.755 62.1574 229.709L62.2854 229.574C62.4701 229.4 62.6716 229.246 62.887 229.112C63.0975 228.971 63.3182 228.846 63.5474 228.738C63.6609 228.684 63.7774 228.635 63.8969 228.589C64.0134 228.54 64.1337 228.495 64.2527 228.461L64.2361 228.398Z" fill="#1D2238"/>
<path d="M61.1833 227.095C60.9027 226.984 60.5965 226.955 60.3001 227.012C60.0201 227.061 59.753 227.167 59.5155 227.324C59.2712 227.484 59.0649 227.696 58.9113 227.945C58.7469 228.207 58.6748 228.517 58.7066 228.825L58.7565 228.855C58.8258 228.749 58.9014 228.647 58.983 228.55C59.024 228.503 59.0598 228.452 59.111 228.407L59.239 228.271C59.4215 228.096 59.6209 227.94 59.8342 227.805C60.0448 227.665 60.2655 227.54 60.4947 227.433C60.6086 227.379 60.7251 227.328 60.8441 227.283C60.9632 227.238 61.0809 227.189 61.2 227.155L61.1833 227.095Z" fill="#1D2238"/>
<path d="M58.3591 225.912C58.0786 225.801 57.7723 225.772 57.4759 225.829C57.1959 225.878 56.9288 225.984 56.6913 226.14C56.447 226.3 56.2407 226.512 56.0871 226.761C55.9226 227.024 55.8506 227.334 55.8823 227.643L55.9323 227.671C56.0015 227.565 56.0772 227.464 56.1588 227.367C56.1998 227.319 56.2356 227.268 56.2804 227.223L56.4084 227.087C56.5909 226.912 56.7903 226.756 57.0036 226.621C57.2139 226.481 57.4342 226.356 57.6628 226.249C57.778 226.195 57.8945 226.145 58.0135 226.099C58.1326 226.053 58.2503 226.005 58.3694 225.971L58.3591 225.912Z" fill="#1D2238"/>
<path d="M73.613 224.028L71.277 176.064C71.2108 174.716 71.0512 173.375 70.7996 172.05L65.8319 145.982L35.7519 143.631C35.7519 143.631 32.7977 155.646 38.8521 167.214L41.9676 224.408L58.0226 224.306V224.126L73.613 224.028Z" fill="#1D2238"/>
<path d="M55.6116 147.553L55.8164 149.947L56.0084 152.34L56.3924 157.129L57.0926 166.709L57.2679 169.106L57.4266 171.502L57.7428 176.295L58.3726 185.881L58.4084 186.48C58.4186 186.68 58.4084 186.881 58.4084 187.081V188.283L58.4007 190.684L58.3841 195.488L58.3674 200.29L58.3572 202.693L58.3316 205.094L58.2305 214.7L58.1486 219.504L58.1063 221.906L58.0513 224.306H58.009L57.9975 205.106V195.506V190.704V187.102C57.9975 186.903 58.0039 186.703 57.9975 186.503L57.9591 185.904L55.5898 147.564L55.6116 147.553Z" fill="#4A4E60"/>
<path d="M79.3041 131.417L75.1761 125.001L65.6542 127.577L63.1672 110.511C63.1429 110.328 63.1198 110.173 63.0993 110.05C62.476 106.296 55.8353 99.7654 55.8353 99.7654L54.3685 101.276L47.5397 97.5779C47.5397 97.5779 41.8654 99.8589 38.3787 104.284C34.892 108.709 35.7547 143.631 35.7547 143.631C35.7547 143.631 42.8037 149.342 47.9032 150.287C53.0027 151.232 66.3838 147.559 66.3838 147.559C66.3838 147.559 66.1521 144.628 65.8104 140.399L79.3041 131.417Z" fill="#BF4C26"/>
<path d="M54.3686 101.276L51.1519 104.036C50.8983 104.254 50.5754 104.374 50.2409 104.376C49.9065 104.377 49.5824 104.26 49.3266 104.044C47.8418 102.788 45.2063 100.204 46.0345 98.2845L47.5398 97.5779L54.3686 101.276Z" fill="white"/>
<path d="M54.3672 101.276L55.9544 102.988C56.0545 103.096 56.1787 103.179 56.3169 103.23C56.4551 103.281 56.6033 103.298 56.7495 103.281C56.8956 103.263 57.0356 103.211 57.1579 103.129C57.2803 103.047 57.3815 102.938 57.4533 102.809L57.9205 101.976L55.8341 99.7654L54.3672 101.276Z" fill="white"/>
<path d="M45.8765 108.673L51.8118 125.641L70.2745 116.297L73.1955 123.465L56.7654 137.052C55.203 138.344 53.2822 139.127 51.2614 139.296C49.5766 139.437 47.8835 139.146 46.3429 138.449C44.8023 137.752 43.4653 136.674 42.4589 135.315C39.6774 131.561 36.1549 126.416 35.8029 124.006C35.2051 119.97 32.1587 112.28 38.3795 104.284L45.8765 108.673Z" fill="#BF4C26"/>
<path d="M64.0516 119.451C63.0515 120.006 62.0476 120.554 61.0398 121.094C60.0337 121.638 59.0225 122.171 58.0126 122.706C57.0026 123.241 55.9889 123.771 54.9726 124.293C53.9563 124.815 52.9438 125.346 51.9236 125.862L51.6343 126.008L51.5678 125.689C51.4154 124.957 51.2478 124.222 51.075 123.492C50.9022 122.761 50.7294 122.028 50.5438 121.299C50.1713 119.844 49.7834 118.389 49.3482 116.947C48.913 115.504 48.4522 114.078 47.9057 112.679C47.6318 111.98 47.3425 111.287 47.0097 110.613C46.6884 109.933 46.3081 109.282 45.873 108.668C46.3599 109.248 46.7887 109.874 47.153 110.538C47.5204 111.2 47.8583 111.878 48.1617 112.572C48.7748 113.956 49.2894 115.38 49.7617 116.816C50.234 118.252 50.6487 119.707 51.025 121.168C51.4014 122.63 51.7508 124.101 52.049 125.586L51.6945 125.413C52.7185 124.901 53.7425 124.389 54.7665 123.886C55.7905 123.383 56.8145 122.881 57.8462 122.378C58.8778 121.875 59.9044 121.383 60.9387 120.894C61.9729 120.405 63.0148 119.928 64.0516 119.451Z" fill="#1D2238"/>
<path d="M35.8008 124.006L36.4165 125.12L37.0245 126.237C37.4306 126.98 37.8402 127.722 38.2533 128.463C38.6641 129.204 39.0763 129.944 39.4987 130.679L40.1387 131.778C40.3525 132.147 40.5611 132.517 40.7685 132.887C41.5992 134.36 42.4133 135.851 43.5307 137.08C43.8087 137.384 44.1081 137.668 44.4267 137.93C44.5816 138.058 44.7518 138.178 44.9169 138.297C45.0821 138.416 45.26 138.519 45.4417 138.612C46.1653 139.001 46.9495 139.265 47.7611 139.392C49.388 139.664 51.0891 139.467 52.6673 138.974C53.4629 138.729 54.2321 138.404 54.9637 138.007C55.3286 137.807 55.6831 137.588 56.0261 137.353C56.3678 137.117 56.6891 136.856 57.0206 136.585C58.3373 135.517 59.66 134.455 60.9886 133.399L62.9841 131.822L63.9825 131.033L64.9873 130.252L64.0325 131.093L63.0712 131.927L61.1512 133.591C59.8635 134.696 58.5728 135.796 57.2792 136.891C56.9592 137.163 56.6277 137.445 56.2782 137.7C55.9258 137.95 55.561 138.182 55.1851 138.396C54.4319 138.819 53.6387 139.166 52.8171 139.433C51.9931 139.699 51.1431 139.877 50.2814 139.964C49.415 140.052 48.5408 140.028 47.6805 139.892C46.8141 139.751 45.9777 139.466 45.2062 139.047C45.0104 138.945 44.8222 138.823 44.6417 138.706C44.4613 138.588 44.2821 138.45 44.1182 138.308C43.7809 138.031 43.4663 137.727 43.1774 137.4C42.6128 136.748 42.1069 136.047 41.6657 135.306C41.2203 134.576 40.8197 133.824 40.4241 133.074C40.2262 132.699 40.0261 132.326 39.8238 131.956C39.619 131.584 39.4155 131.211 39.2171 130.836C38.8186 130.086 38.4278 129.333 38.0446 128.576C37.6615 127.819 37.2809 127.06 36.9029 126.299L36.3461 125.156L35.8008 124.006Z" fill="#1D2238"/>
<path d="M49.6582 131.764C49.6134 131.611 49.5775 131.454 49.543 131.297C49.5047 131.14 49.4778 130.981 49.4623 130.821C49.4267 130.5 49.4186 130.177 49.438 129.854C49.4701 129.203 49.604 128.56 49.8348 127.95C50.0614 127.338 50.3837 126.766 50.7897 126.255C51.1824 125.737 51.6812 125.31 52.2527 125.001C51.9037 125.511 51.5836 126.041 51.294 126.588C51.0103 127.115 50.7631 127.66 50.5542 128.221C50.3423 128.781 50.1682 129.355 50.0332 129.939C49.9487 130.231 49.9052 130.532 49.8387 130.835C49.7721 131.138 49.7401 131.448 49.6582 131.764Z" fill="#1D2238"/>
<path d="M75.0186 130.089L67.3975 126.904C67.2882 126.858 67.1921 126.786 67.118 126.694C67.044 126.601 66.9944 126.492 66.9737 126.375C66.9531 126.258 66.9621 126.139 66.9999 126.026C67.0377 125.914 67.1031 125.813 67.1901 125.733L86.8496 107.524C86.93 107.449 87.0265 107.394 87.1316 107.364C87.2367 107.333 87.3475 107.327 87.4553 107.347C87.563 107.366 87.6648 107.411 87.7525 107.476C87.8402 107.542 87.9114 107.627 87.9607 107.724L92.1219 115.98C92.1986 116.133 92.221 116.307 92.1854 116.474C92.1498 116.641 92.0584 116.791 91.9261 116.9L75.9978 129.945C75.863 130.056 75.7006 130.128 75.5281 130.153C75.3556 130.178 75.1794 130.156 75.0186 130.089Z" fill="#4A4E60"/>
<path d="M65.7102 140.459C65.5822 139.677 65.4849 138.892 65.394 138.108C65.3467 137.715 65.3044 137.322 65.266 136.929C65.2276 136.536 65.1854 136.143 65.1521 135.75C65.0766 134.964 65.0164 134.176 64.9563 133.388C64.9243 132.996 64.9038 132.601 64.8769 132.207C64.85 131.813 64.8244 131.42 64.8065 131.024L64.7988 130.871L64.9268 130.802C65.3108 130.592 65.6948 130.377 66.0865 130.171C66.4782 129.964 66.8622 129.755 67.2551 129.555C67.6481 129.355 68.0372 129.15 68.4328 128.956C68.8283 128.761 69.2251 128.572 69.6257 128.382C69.263 128.638 68.8974 128.885 68.5288 129.121C68.1601 129.364 67.7876 129.6 67.4151 129.835C67.0427 130.071 66.6676 130.3 66.2939 130.533C65.9201 130.766 65.5387 130.987 65.1624 131.214L65.2814 130.991C65.3185 131.384 65.3467 131.778 65.3774 132.172C65.4081 132.567 65.4427 132.958 65.4644 133.353C65.5169 134.141 65.5681 134.928 65.6039 135.718C65.6257 136.112 65.6423 136.507 65.6564 136.902C65.6705 137.298 65.6859 137.691 65.6948 138.086C65.7127 138.872 65.723 139.667 65.7102 140.459Z" fill="#1D2238"/>
<path d="M84.8857 123.909C84.855 123.713 84.8 123.516 84.7577 123.326C84.6592 122.932 84.5657 122.537 84.4697 122.141C84.3366 121.592 84.2031 121.043 84.0691 120.494C84.0039 120.225 83.8346 119.993 83.5986 119.849C83.3625 119.705 83.0789 119.661 82.8102 119.726C82.5415 119.792 82.3097 119.961 82.1658 120.197C82.0219 120.433 81.9777 120.717 82.0428 120.985L82.0812 121.143C81.9136 121 81.7052 120.915 81.4859 120.898C81.2666 120.881 81.0476 120.935 80.8604 121.05C80.6731 121.165 80.5272 121.337 80.4434 121.54C80.3597 121.744 80.3425 121.968 80.3942 122.182C80.4364 122.356 80.4787 122.529 80.5222 122.703C80.4941 122.65 80.4526 122.606 80.4019 122.575C80.0652 122.347 79.5059 122.402 79.2819 122.767C79.1539 122.986 79.191 123.239 79.2089 123.483C79.2908 124.59 79.4508 125.696 79.5724 126.8L77.5449 128.684L78.0083 129.408C78.4268 129.263 78.8147 129.181 79.2332 129.036C79.79 128.844 80.3609 128.688 80.8972 128.449C81.3165 128.25 81.7046 127.992 82.0492 127.681C82.7267 127.087 83.3559 126.44 83.9308 125.746C84.1984 125.432 84.4633 125.113 84.7116 124.784C84.8003 124.659 84.8615 124.516 84.8915 124.365C84.9215 124.214 84.9195 124.059 84.8857 123.909Z" fill="#FFBE9D"/>
<path d="M79.5675 126.798C79.5675 126.798 79.3396 127.669 79.7684 128.313C79.7684 128.313 79.0158 128.138 79.2782 127.065L79.5675 126.798Z" fill="#1D2238"/>
<path d="M82.0762 121.143C82.371 121.374 82.5884 121.689 82.6995 122.046C82.8122 122.397 82.9005 122.752 82.9914 123.106C83.0823 123.461 83.1616 123.818 83.2359 124.176L83.3459 124.714C83.3779 124.894 83.4138 125.074 83.4419 125.255C83.3856 125.08 83.3383 124.905 83.2858 124.728L83.1411 124.199C83.0439 123.846 82.9568 123.492 82.8672 123.137L82.6112 122.073C82.5677 121.899 82.4991 121.732 82.4077 121.578C82.3162 121.419 82.2048 121.273 82.0762 121.143Z" fill="#1D2238"/>
<path d="M80.5156 122.704C80.8057 122.873 81.0242 123.142 81.13 123.461C81.2235 123.776 81.2887 124.093 81.3579 124.411C81.427 124.728 81.4859 125.051 81.5358 125.369L81.6126 125.851C81.6331 126.012 81.6574 126.172 81.674 126.334C81.6292 126.177 81.5921 126.02 81.546 125.862L81.4347 125.388C81.3604 125.072 81.2952 124.748 81.2273 124.437C81.1595 124.126 81.0993 123.797 81.0302 123.486C80.9961 123.333 80.9297 123.188 80.8356 123.061C80.7444 122.929 80.6369 122.809 80.5156 122.704Z" fill="#1D2238"/>
<path d="M68.3242 125.641C69.0794 124.901 69.8474 124.176 70.6129 123.448C71.3783 122.72 72.1489 121.996 72.9169 121.272L75.2388 119.116L77.5735 116.975C79.1377 115.556 80.7005 114.135 82.2762 112.728L83.4564 111.672L84.6468 110.622C85.4361 109.921 86.2284 109.223 87.0237 108.528L87.2157 108.361L87.3271 108.582L88.2231 110.374L89.1191 112.166L89.9997 113.958C90.2941 114.555 90.5843 115.157 90.8701 115.763C90.5373 115.184 90.2084 114.603 89.8833 114.02L88.9041 112.271L87.9377 110.517L86.9802 108.759L87.2836 108.812C86.5105 109.533 85.7339 110.249 84.954 110.96L83.7866 112.032L82.6129 113.095C81.0513 114.517 79.4769 115.924 77.9025 117.332L75.5306 119.433L73.1447 121.519C72.346 122.21 71.5498 122.904 70.7434 123.586C69.937 124.268 69.137 124.966 68.3242 125.641Z" fill="#1D2238"/>
</g>
<defs>
<clipPath id="clip0_158_3756">
<rect width="370" height="246" fill="white"/>
</clipPath>
</defs>
</svg>
